<?xml version="1.0" encoding="utf-8" ?><svg xmlns="http://www.w3.org/2000/svg" xmlns:xlink="http://www.w3.org/1999/xlink" width="948" height="1024" viewBox="0 0 948 1024"><path fill="#393A4C" d="M432.969 505.236C435.462 510.106 433.173 512.011 438.125 515.48C440.18 515.53 443.633 515.509 445.553 515.812C446.68 521.214 448.199 526.615 445.668 531.861L445.421 536.296C463.58 535.341 483.766 536.539 502.062 536.741C529.232 536.861 556.402 536.812 583.572 536.595C593.552 536.55 614.738 537.191 624.092 536.292C630.428 536.132 636.766 536.07 643.104 536.104C646.057 536.073 649.914 536.141 652.785 535.939C655.893 534.574 660.454 533.489 663.75 534.707C670.513 537.206 697.844 566.643 705.856 574.032C708.581 576.544 711.577 579.985 714.938 581.516C723.425 588.205 733.393 600.364 741.769 607.757C744.161 609.869 747.6 613.907 750.097 615.595C751.81 617.11 754.112 619.292 755.946 620.541C756.788 622.92 758.643 624.4 760.419 626.289C760.507 632.99 761.279 637.174 758.299 643.209C753.422 643.394 749.201 643.165 744.217 643.549C735.88 643.524 713.374 642.924 706.161 643.768C705.094 645.047 705.241 647.387 705.123 649.257C705.187 647.029 705.322 646.249 704.777 644.137C702.618 643.624 690.742 643.767 687.576 643.765C672.3 643.754 656.598 643.378 641.351 643.838C639.094 643.221 617.243 643.5 613.552 643.517L586.433 643.575C578.022 643.545 569.374 643.406 560.983 643.505C557.082 644.233 547.71 644.041 543.416 644.053L513.02 644.065C512.787 685.685 512.927 727.306 513.44 768.923C490.074 769.176 466.705 769.038 443.343 768.509L443.536 732.491C443.553 728.007 443.803 717.396 443.212 713.503C442.724 709.386 443.605 704.29 442.657 700.493C444.286 697.473 443.296 651.151 442.666 645.827C441.842 645.357 441.288 645.032 440.497 644.491L439.896 644.071C438.403 643.016 415.793 643.534 412.526 643.712C407.915 644.263 398.868 644.346 394.331 643.675C388.72 643.087 373.482 643.561 367.261 643.594C360.357 643.091 348.869 643.438 341.704 643.441L293.73 643.472C287.796 643.504 268.225 643.061 263.314 643.679C258.894 644.101 252.691 644.034 248.263 643.753C245.974 643.247 221.941 643.496 217.85 643.515C209.969 643.439 192.892 644.171 184.85 641.928C183.077 641.433 183.159 629.165 184.252 627.627C192.004 616.721 203.259 607.454 212.548 597.483C212.698 590.041 211.456 579.948 211.084 572.34C210.278 555.833 210.792 546.495 214.153 530.603C217.795 532.189 229.247 538.113 232.199 538.294L233.47 537.287C236.434 538.537 236.015 538.711 238.254 536.766C238.458 535.95 242.455 526.835 242.892 525.938C244.342 527.833 250.494 528.105 252.761 529.233C255.956 530.824 259.497 534.361 262.076 536.775C261.083 537.961 260.553 538.563 259.429 539.618C262.092 542.241 263.592 543.305 266.674 545.494L268.854 543.343C273.654 539.451 277.461 535.476 282.832 532.237C285.413 534.727 285.943 535.883 289.377 536.299C296 535.465 308.972 536.418 316.031 536.312C318.298 536.098 340.937 536.512 343.864 536.718C347.716 536.727 359.716 536.933 363.128 536.437L363.351 535.922C363.461 533.07 363.581 532.244 364.154 529.486L364.38 529.569C364.438 528.484 364.482 528.428 364.714 527.36C366.818 526.044 377.826 526.096 381.294 525.914L383.087 524.89L385.675 524.697C387.998 524.525 389.338 524.452 391.656 524.57C397.306 524.522 403.458 524.148 409.016 523.124C415.622 517.143 414.744 512.561 418.035 507.765C423.278 508.342 428.056 506.741 432.969 505.236Z"/><path fill="#D9D8D9" d="M242.892 525.938C244.342 527.833 250.494 528.105 252.761 529.233C255.956 530.824 259.497 534.361 262.076 536.775C261.083 537.961 260.553 538.563 259.429 539.618C262.092 542.241 263.592 543.305 266.674 545.494L268.854 543.343C273.654 539.451 277.461 535.476 282.832 532.237C285.413 534.727 285.943 535.883 289.377 536.299C288.185 538.33 274.56 551.703 271.931 554.402L231.174 595.912C223.348 603.839 213.78 613.113 206.454 621.365C235.674 621.774 265.55 621.48 294.816 621.476L453.9 621.462L737.486 621.448C734.579 617.5 726.841 610.198 723.082 606.395L700.514 583.132L671.194 552.961C667.279 548.919 657.356 537.41 652.785 535.939C655.893 534.574 660.454 533.489 663.75 534.707C670.513 537.206 697.844 566.643 705.856 574.032C708.581 576.544 711.577 579.985 714.938 581.516C723.425 588.205 733.393 600.364 741.769 607.757C744.161 609.869 747.6 613.907 750.097 615.595C751.81 617.11 754.112 619.292 755.946 620.541C756.788 622.92 758.643 624.4 760.419 626.289C760.507 632.99 761.279 637.174 758.299 643.209C753.422 643.394 749.201 643.165 744.217 643.549C735.88 643.524 713.374 642.924 706.161 643.768C705.094 645.047 705.241 647.387 705.123 649.257C705.187 647.029 705.322 646.249 704.777 644.137C702.618 643.624 690.742 643.767 687.576 643.765C672.3 643.754 656.598 643.378 641.351 643.838C639.094 643.221 617.243 643.5 613.552 643.517L586.433 643.575C578.022 643.545 569.374 643.406 560.983 643.505C557.082 644.233 547.71 644.041 543.416 644.053L513.02 644.065C512.787 685.685 512.927 727.306 513.44 768.923C490.074 769.176 466.705 769.038 443.343 768.509L443.536 732.491C443.553 728.007 443.803 717.396 443.212 713.503C442.724 709.386 443.605 704.29 442.657 700.493C444.286 697.473 443.296 651.151 442.666 645.827C441.842 645.357 441.288 645.032 440.497 644.491L439.896 644.071C438.403 643.016 415.793 643.534 412.526 643.712C407.915 644.263 398.868 644.346 394.331 643.675C388.72 643.087 373.482 643.561 367.261 643.594C360.357 643.091 348.869 643.438 341.704 643.441L293.73 643.472C287.796 643.504 268.225 643.061 263.314 643.679C258.894 644.101 252.691 644.034 248.263 643.753C245.974 643.247 221.941 643.496 217.85 643.515C209.969 643.439 192.892 644.171 184.85 641.928C183.077 641.433 183.159 629.165 184.252 627.627C192.004 616.721 203.259 607.454 212.548 597.483C212.698 590.041 211.456 579.948 211.084 572.34C210.278 555.833 210.792 546.495 214.153 530.603C217.795 532.189 229.247 538.113 232.199 538.294L233.47 537.287C236.434 538.537 236.015 538.711 238.254 536.766C238.458 535.95 242.455 526.835 242.892 525.938Z"/><path fill="#0A0A14" d="M242.892 525.938C244.342 527.833 250.494 528.105 252.761 529.233C255.956 530.824 259.497 534.361 262.076 536.775C261.083 537.961 260.553 538.563 259.429 539.618C262.092 542.241 263.592 543.305 266.674 545.494C257.401 554.897 246.973 564.362 237.483 573.731C232.447 578.703 217.428 594.002 212.548 597.483C212.698 590.041 211.456 579.948 211.084 572.34C210.278 555.833 210.792 546.495 214.153 530.603C217.795 532.189 229.247 538.113 232.199 538.294L233.47 537.287C236.434 538.537 236.015 538.711 238.254 536.766C238.458 535.95 242.455 526.835 242.892 525.938Z"/><path fill="#E99C9E" d="M242.892 525.938C244.342 527.833 250.494 528.105 252.761 529.233C255.956 530.824 259.497 534.361 262.076 536.775C261.083 537.961 260.553 538.563 259.429 539.618C256.293 543.69 252.714 545.41 248.028 547.039C244.672 541.705 243.198 540.866 238.254 536.766C238.458 535.95 242.455 526.835 242.892 525.938Z"/><path fill="#65667A" d="M316.031 536.312C318.298 536.098 340.937 536.512 343.864 536.718L342.553 537.063L342.353 540.152C341.33 542.165 341.25 542.839 340.721 545.083C339.466 548.776 338.319 552.503 337.279 556.261C336.935 558.04 336.065 563.13 335.497 564.536L336.558 565.033C337.421 566.481 338.25 567.948 339.045 569.434C340.428 569.613 340.662 569.449 342 569.105C343.216 570.017 342.797 569.425 343.164 571.026C341.763 571.043 340.061 571.192 338.641 571.277C338.386 571.681 337.824 572.627 337.547 572.961C341.592 573.869 348.8 575.279 352.413 576.657C351.154 577.726 349.013 582.101 347.924 583.771C343.036 591.269 334.823 608.825 329.358 614.914C316.582 615.684 302.509 615.326 289.597 615.331C268.665 615.501 247.732 615.37 226.805 614.937C229.146 611.35 235.394 604.976 238.482 601.678L261.347 577.505L285.028 552.134C287.546 549.46 292.768 543.316 295.536 541.538C303.322 541.454 311.108 541.258 318.889 540.949C317.932 538.77 317.478 538.264 316.031 536.312Z"/><path fill="#6F67F9" d="M316.031 536.312C318.298 536.098 340.937 536.512 343.864 536.718L342.553 537.063L342.353 540.152C341.33 542.165 341.25 542.839 340.721 545.083C339.466 548.776 338.319 552.503 337.279 556.261C336.935 558.04 336.065 563.13 335.497 564.536L332.546 564.757C331.487 565.005 330.934 565.038 329.987 565.55L329.557 566.057L328.304 564.393C325.356 562.998 290.763 563.471 284.507 563.402C285.966 561.326 299.12 547.268 301.348 545.04C308.118 544.557 314.049 544.856 320.83 545.073C320.165 543.338 319.796 542.572 318.889 540.949C317.932 538.77 317.478 538.264 316.031 536.312Z"/><defs><linearGradient id="gradient_0" gradientUnits="userSpaceOnUse" x1="332.55539" y1="561.99353" x2="330.65958" y2="545.724"><stop offset="0" stop-color="#6D8AFD"/><stop offset="1" stop-color="#7272F1"/></linearGradient></defs><path fill="url(#gradient_0)" d="M316.031 536.312C318.298 536.098 340.937 536.512 343.864 536.718L342.553 537.063L342.353 540.152C341.33 542.165 341.25 542.839 340.721 545.083C339.466 548.776 338.319 552.503 337.279 556.261C336.935 558.04 336.065 563.13 335.497 564.536L332.546 564.757C329.9 562.477 324.354 548.912 322.705 544.838L322.415 544.366L320.753 540.624C319.243 536.894 319.696 537.101 316.031 536.312Z"/><path fill="#393A4C" d="M316.031 536.312C318.298 536.098 340.937 536.512 343.864 536.718L342.553 537.063L341.435 537.44C340.882 538.906 340.538 539.967 340.103 541.472L339.941 541.809L339.021 545.075C335.667 545.456 326.065 545.157 322.705 544.838L322.415 544.366L320.753 540.624C319.243 536.894 319.696 537.101 316.031 536.312Z"/><path fill="#687394" d="M322.415 544.366C328.948 544.141 334.075 541.763 339.941 541.809L339.021 545.075C335.667 545.456 326.065 545.157 322.705 544.838L322.415 544.366Z"/><path fill="#65667A" d="M320.753 540.624C325.643 542.058 334.735 541.552 340.103 541.472L339.941 541.809C334.075 541.763 328.948 544.141 322.415 544.366L320.753 540.624Z"/><path fill="#80B6D0" d="M340.103 541.472C340.538 539.967 340.882 538.906 341.435 537.44L342.553 537.063L342.353 540.152C341.33 542.165 341.25 542.839 340.721 545.083C339.466 548.776 338.319 552.503 337.279 556.261C336.935 558.04 336.065 563.13 335.497 564.536L332.546 564.757C335.159 560.651 337.666 550.144 339.021 545.075L339.941 541.809L340.103 541.472Z"/><path fill="#86ADF3" d="M316.031 536.312C319.696 537.101 319.243 536.894 320.753 540.624L322.415 544.366L322.705 544.838C324.354 548.912 329.9 562.477 332.546 564.757C331.487 565.005 330.934 565.038 329.987 565.55C329.247 563.161 322.082 547.384 320.83 545.073C320.165 543.338 319.796 542.572 318.889 540.949C317.932 538.77 317.478 538.264 316.031 536.312Z"/><path fill="#93EDFA" d="M332.546 564.757L335.497 564.536L336.558 565.033C337.421 566.481 338.25 567.948 339.045 569.434C340.428 569.613 340.662 569.449 342 569.105C343.216 570.017 342.797 569.425 343.164 571.026C341.763 571.043 340.061 571.192 338.641 571.277C338.386 571.681 337.824 572.627 337.547 572.961L337.158 573.944L339.668 574.977L339.639 575.633L338.037 576.447L338.207 575.608C337.404 575.195 324.073 574.748 321.992 574.622L331.065 574.454C326.968 569.948 326.747 570.613 320.732 570.78C323.069 570.67 325.695 570.677 327.926 570.103C327.405 569.512 325.867 569.392 324.876 569.176C328.733 569.028 328.212 569.389 329.557 566.057L329.987 565.55C330.934 565.038 331.487 565.005 332.546 564.757Z"/><path fill="#EFEFF0" d="M270.884 575.727L271.326 575.645L272.064 575.518C279.526 574.169 287.993 574.582 295.645 574.641C304.427 574.729 313.21 574.723 321.992 574.622C324.073 574.748 337.404 575.195 338.207 575.608L338.037 576.447C329.083 576.916 315.225 576.397 305.896 576.481C298.049 576.55 277.265 576.937 270.884 575.727Z"/><path fill="#EFEFF0" d="M307.854 570.609C300.735 570.54 284.796 571.536 278.943 569.843L278.87 569.388C282.475 568.55 307.074 569.02 312.577 569.075L312.15 569.153C310.379 569.464 309.681 569.501 307.891 569.509L307.433 569.946L307.854 570.609Z"/><path fill="#D9D8D9" d="M312.577 569.075C315.581 569.001 322.1 568.768 324.876 569.176C325.867 569.392 327.405 569.512 327.926 570.103C325.695 570.677 323.069 570.67 320.732 570.78C316.549 570.84 312.06 570.681 307.854 570.609L307.433 569.946L307.891 569.509C309.681 569.501 310.379 569.464 312.15 569.153L312.577 569.075Z"/><path fill="#6F67F9" d="M265.079 587.792C270.699 586.675 277.019 586.804 282.651 587.766C286.999 588.019 291.331 588.003 295.685 588.029C291.948 594.771 288.972 598.002 283.632 603.641C277.905 603.881 271.974 604.06 266.273 604.443C259.754 604.559 255.466 604.372 249.094 603.776C253.073 599.355 260.359 590.506 265.079 587.792Z"/><path fill="#EFEFF0" d="M265.079 587.792C270.699 586.675 277.019 586.804 282.651 587.766C282.281 588.507 281.397 590.901 281.18 591.217C282.883 592.367 283.21 592.179 283.938 593.747C282.978 594.91 282.743 594.773 281.227 595.396L281.23 596.815C278.418 599.585 270.591 600.1 266.806 601.202C266.221 600.85 263.433 598.101 263.157 597.329C263.982 594.431 265.752 593.859 268.392 592.319L268.09 591.879C268.431 590.935 268.389 590.919 268.548 589.916C267.482 588.33 267.257 588.67 265.079 587.792Z"/><path fill="#756FC8" d="M265.079 587.792C270.699 586.675 277.019 586.804 282.651 587.766C282.281 588.507 281.397 590.901 281.18 591.217C273.491 590.52 273.641 592 268.392 592.319L268.09 591.879C268.431 590.935 268.389 590.919 268.548 589.916C267.482 588.33 267.257 588.67 265.079 587.792Z"/><path fill="#EFEFF0" d="M268.385 580.715C272.761 580.226 310.108 579.945 312.051 580.792L312.181 581.845C307.152 582.341 273.755 582.812 268.858 581.722L268.385 580.715Z"/><path fill="#EFEFF0" d="M247.253 607.7C251.806 607.425 272.502 607.174 276.114 608.009L276.485 608.782L275.914 609.474C271.184 609.532 250.173 610.1 246.831 609.146L246.545 608.472L247.253 607.7Z"/><path fill="#7892BD" d="M624.092 536.292C630.428 536.132 636.766 536.07 643.104 536.104L643.028 536.432L642.64 536.801C640.012 539.347 632.263 547.842 630.978 550.906C634.434 555.945 641.365 554.954 643.453 561.327C648.65 577.183 612.668 575.49 604.775 572.618C595.916 569.396 590.203 568.306 588.344 558.968C583.642 558.075 563.999 553.799 560.35 553.58L561.741 552.072C563.425 552.38 566.052 552.945 567.681 553.047C569.017 553.746 585.276 556.838 588.103 557.456C593.422 552.136 596.024 552.383 602.328 550.027C606.356 548.206 615.964 548.482 619.098 547.035C619.692 545.294 619.805 544.625 621.107 543.335C622.274 540.901 621.817 538.872 624.092 536.292Z"/><path fill="#385470" d="M624.092 536.292C630.428 536.132 636.766 536.07 643.104 536.104L643.028 536.432C642.399 536.321 640.935 536.313 640.553 536.587C636.692 539.356 625.761 554.652 622.27 555.366C619.442 551.641 625.27 539.594 624.092 536.292Z"/><path fill="#4B4F72" d="M602.328 550.027C606.356 548.206 615.964 548.482 619.098 547.035C619.692 545.294 619.805 544.625 621.107 543.335L618.842 552.927C613.436 552.954 608.87 552.681 603.631 554.223C598.647 555.459 598.63 558.17 595.654 558.742C593.685 558.482 591.795 558.564 590.709 556.834L591.187 555.851C594.859 552.903 600.484 551.513 605.134 551.338L604.591 550.758C603.195 550.824 603.83 550.819 602.328 550.027Z"/><path fill="#567297" d="M595.654 558.742C598.63 558.17 598.647 555.459 603.631 554.223C606.179 555.543 608.652 553.398 611 554.503L611.228 555.265C604.27 561.127 602.886 559.254 595.654 558.742Z"/><path fill="#4B4F72" d="M630.464 556.743L629.739 556.02C629.998 554.27 629.586 554.928 630.898 553.911C636.703 553.812 648.555 563.471 640.891 568.522C631.65 574.612 617.893 574.258 607.435 572.348C598.622 570.739 592.902 567.325 588.831 559.289C591.23 559.585 593.556 559.843 595.936 560.29C600.968 561.495 604.417 561.499 609.86 563.539C611.712 564.21 611.697 565.482 613.531 566.498C611.874 564.606 611.93 561.764 613.659 559.938C615.388 558.112 618.222 557.901 620.202 559.452C622.182 561.002 622.657 563.805 621.298 565.921C625.569 562.529 621.813 559.404 623.944 556.359C625.992 555.718 627.328 556.377 629.591 556.962L630.464 556.743Z"/><path fill="#56809B" d="M621.298 565.921C625.569 562.529 621.813 559.404 623.944 556.359C625.992 555.718 627.328 556.377 629.591 556.962L629.403 557.867C628.8 560.841 629.207 564.572 626.4 566.37C622.98 568.559 618.697 569.481 614.686 568.679C612.694 568.281 609.6 565.567 609.86 563.539C611.712 564.21 611.697 565.482 613.531 566.498C611.874 564.606 611.93 561.764 613.659 559.938C615.388 558.112 618.222 557.901 620.202 559.452C622.182 561.002 622.657 563.805 621.298 565.921Z"/><path fill="#93EDFA" d="M613.531 566.498C611.874 564.606 611.93 561.764 613.659 559.938C615.388 558.112 618.222 557.901 620.202 559.452C622.182 561.002 622.657 563.805 621.298 565.921C620.471 567.21 619.086 568.034 617.559 568.148C616.032 568.261 614.54 567.65 613.531 566.498Z"/><path fill="#567297" d="M630.464 556.743L632.289 557.711C628.929 559.535 629.527 561.877 629.107 565.618L626.275 567.897C626.7 570.489 627.138 567.691 627.556 570.318C616.685 572.614 601.145 572.013 595.936 560.29C600.968 561.495 604.417 561.499 609.86 563.539C609.6 565.567 612.694 568.281 614.686 568.679C618.697 569.481 622.98 568.559 626.4 566.37C629.207 564.572 628.8 560.841 629.403 557.867L629.591 556.962L630.464 556.743Z"/><path fill="#687394" d="M632.289 557.711C641.344 563.123 634.669 568.395 627.556 570.318C627.138 567.691 626.7 570.489 626.275 567.897L629.107 565.618C629.527 561.877 628.929 559.535 632.289 557.711Z"/><path fill="#65667A" d="M343.864 536.718C347.716 536.727 359.716 536.933 363.128 536.437C363.772 538.209 364.109 539.21 364.993 540.857C365.813 542.036 367.991 546.584 368.346 547.867C363.754 556.603 356.907 566.75 353.095 575.438C348.41 574.043 343.175 572.898 338.641 571.277C340.061 571.192 341.763 571.043 343.164 571.026C342.797 569.425 343.216 570.017 342 569.105C340.662 569.449 340.428 569.613 339.045 569.434C338.25 567.948 337.421 566.481 336.558 565.033L335.497 564.536C336.065 563.13 336.935 558.04 337.279 556.261C338.319 552.503 339.466 548.776 340.721 545.083C341.25 542.839 341.33 542.165 342.353 540.152L342.553 537.063L343.864 536.718Z"/><path fill="#6F67F9" d="M337.279 556.261C338.319 552.503 339.466 548.776 340.721 545.083C347.108 544.904 353.336 544.988 359.724 545.061C357.403 549.25 351.563 560.386 348.565 563.563C343.769 564.565 343.981 565.536 344.043 570.451L343.164 571.026C342.797 569.425 343.216 570.017 342 569.105C340.662 569.449 340.428 569.613 339.045 569.434C338.25 567.948 337.421 566.481 336.558 565.033L335.497 564.536C336.065 563.13 336.935 558.04 337.279 556.261Z"/><path fill="#687394" d="M342.271 563.663C344.342 563.571 346.508 563.406 348.565 563.563C343.769 564.565 343.981 565.536 344.043 570.451L343.164 571.026C342.797 569.425 343.216 570.017 342 569.105C340.662 569.449 340.428 569.613 339.045 569.434C338.25 567.948 337.421 566.481 336.558 565.033C337.657 563.685 340.566 563.803 342.271 563.663Z"/><path fill="#7892BD" d="M337.279 556.261C338.246 561.144 339.915 559.49 342.271 563.663C340.566 563.803 337.657 563.685 336.558 565.033L335.497 564.536C336.065 563.13 336.935 558.04 337.279 556.261Z"/><path fill="#393A4C" d="M343.864 536.718C347.716 536.727 359.716 536.933 363.128 536.437C363.772 538.209 364.109 539.21 364.993 540.857C361.012 541.465 345.018 542.581 342.353 540.152L342.553 537.063L343.864 536.718Z"/><path fill="#18172F" d="M432.969 505.236C435.462 510.106 433.173 512.011 438.125 515.48C440.18 515.53 443.633 515.509 445.553 515.812C446.68 521.214 448.199 526.615 445.668 531.861C443.921 531.236 441.165 531.416 439.216 531.415C426.278 531.467 413.34 531.438 400.402 531.329L397.387 530.646C395.418 529.178 389.894 527.461 388.654 525.572L389.058 524.993L391.656 524.57C397.306 524.522 403.458 524.148 409.016 523.124C415.622 517.143 414.744 512.561 418.035 507.765C423.278 508.342 428.056 506.741 432.969 505.236Z"/><path fill="#E99C9E" d="M438.125 515.48C440.18 515.53 443.633 515.509 445.553 515.812C446.68 521.214 448.199 526.615 445.668 531.861C443.921 531.236 441.165 531.416 439.216 531.415C438.913 526.1 438.549 520.788 438.125 515.48Z"/><path fill="#393A4C" d="M368.346 547.867C370.114 551.756 372.688 557.844 374.652 561.468C375.71 563.654 376.724 565.862 377.692 568.089C379.689 572.44 381.628 576.817 383.508 581.219C382.398 581.977 381.323 582.66 380.314 583.551C371.288 581.202 362.027 578.228 353.095 575.438C356.907 566.75 363.754 556.603 368.346 547.867Z"/><defs><linearGradient id="gradient_1" gradientUnits="userSpaceOnUse" x1="371.47876" y1="566.42004" x2="375.5578" y2="565.336"><stop offset="0" stop-color="#6E7286"/><stop offset="1" stop-color="#657E93"/></linearGradient></defs><path fill="url(#gradient_1)" d="M374.652 561.468C375.71 563.654 376.724 565.862 377.692 568.089C375.452 568.399 373.781 568.705 371.809 567.679C369.744 564.758 372.357 563.197 374.652 561.468Z"/><path fill="#EFEFF0" d="M385.675 524.697C387.998 524.525 389.338 524.452 391.656 524.57L389.058 524.993L388.654 525.572C389.894 527.461 395.418 529.178 397.387 530.646L395.96 531.427C398.682 533.128 401.439 534.893 404.216 536.49C391.981 536.536 377.491 536.883 365.417 536.303C364.76 535.934 364.599 536.297 363.351 535.922C363.461 533.07 363.581 532.244 364.154 529.486L364.38 529.569C364.438 528.484 364.482 528.428 364.714 527.36C366.818 526.044 377.826 526.096 381.294 525.914L383.087 524.89L385.675 524.697Z"/><path fill="#18172F" d="M385.675 524.697C387.998 524.525 389.338 524.452 391.656 524.57L389.058 524.993L388.654 525.572C389.894 527.461 395.418 529.178 397.387 530.646L395.96 531.427C389.469 531.681 381.262 531.662 374.784 531.414C372.189 531.501 367.785 531.838 365.332 531.132C364.594 530.92 364.727 530.563 364.38 529.569C364.438 528.484 364.482 528.428 364.714 527.36C366.818 526.044 377.826 526.096 381.294 525.914L383.087 524.89L385.675 524.697Z"/><path fill="#567297" d="M385.675 524.697C387.998 524.525 389.338 524.452 391.656 524.57L389.058 524.993L388.654 525.572C389.894 527.461 395.418 529.178 397.387 530.646L395.96 531.427C389.469 531.681 381.262 531.662 374.784 531.414C379.494 530.903 388.536 531.099 393.79 530.925C389.639 528.616 385.993 526.006 381.294 525.914L383.087 524.89L385.675 524.697Z"/><path fill="#80B6D0" d="M363.351 535.922C364.599 536.297 364.76 535.934 365.417 536.303C364.984 538.529 374.818 557.618 376.6 561.501C377.184 563.28 378.679 566.849 379.758 568.388L380.829 570.832C382.033 573.939 383.661 578.125 385.709 580.7C390.236 582.543 394.915 582.079 392.239 589.082C390.725 593.042 382.832 593.035 382.195 588.608C382.117 588.065 381.955 587.496 381.853 586.96C380.322 584.971 369.709 581.905 366.99 581.325C363.571 579.964 356.184 577.859 352.413 576.657C348.8 575.279 341.592 573.869 337.547 572.961C337.824 572.627 338.386 571.681 338.641 571.277C343.175 572.898 348.41 574.043 353.095 575.438C362.027 578.228 371.288 581.202 380.314 583.551C381.323 582.66 382.398 581.977 383.508 581.219C381.628 576.817 379.689 572.44 377.692 568.089C376.724 565.862 375.71 563.654 374.652 561.468C372.688 557.844 370.114 551.756 368.346 547.867C367.991 546.584 365.813 542.036 364.993 540.857C364.109 539.21 363.772 538.209 363.128 536.437L363.351 535.922Z"/><path fill="#EFEFF0" d="M400.402 531.329C413.34 531.438 426.278 531.467 439.216 531.415C441.165 531.416 443.921 531.236 445.668 531.861L445.421 536.296C436.342 537.1 418.178 536.594 408.428 536.591C405.688 535.537 401.228 534.306 399.769 531.837L400.402 531.329Z"/><path fill="#3D6986" d="M380.829 570.832C382.587 572.796 386.494 574.673 389.067 575.807C397.447 579.501 397.744 594.567 386.807 593.671C385.451 593.56 382.355 593.148 381.094 593.453L380.902 594.981C379.156 594.132 375.893 588.671 374.729 586.792L374.902 586.179L376.141 585.855C373.155 583.425 370.122 584.283 366.99 581.325C369.709 581.905 380.322 584.971 381.853 586.96C381.955 587.496 382.117 588.065 382.195 588.608C382.832 593.035 390.725 593.042 392.239 589.082C394.915 582.079 390.236 582.543 385.709 580.7C383.661 578.125 382.033 573.939 380.829 570.832Z"/><path fill="#93EDFA" d="M560.35 553.58C554.49 562.462 542.537 548.971 554.02 545.948C555.567 545.54 556.753 546.113 557.997 546.974C558.715 548.384 559.548 549.547 559.662 551.138L561.741 552.072L560.35 553.58Z"/><defs><linearGradient id="gradient_2" gradientUnits="userSpaceOnUse" x1="385.44073" y1="564.96198" x2="377.87701" y2="564.49597"><stop offset="0" stop-color="#767385"/><stop offset="1" stop-color="#6F819A"/></linearGradient></defs><path fill="url(#gradient_2)" d="M376.6 561.501C379.865 561.689 385.268 561.268 387.018 564.45C386.662 567.773 382.532 568.557 379.758 568.388C378.679 566.849 377.184 563.28 376.6 561.501Z"/><path fill="#80B6D0" d="M395.96 531.427L397.387 530.646L400.402 531.329L399.769 531.837C401.228 534.306 405.688 535.537 408.428 536.591C413.646 539.965 416.498 540.498 421.839 545.142C415.268 543.065 409.703 538.006 404.216 536.49C401.439 534.893 398.682 533.128 395.96 531.427Z"/><path fill="#80B6D0" d="M557.997 546.974C558.651 547.205 559.501 547.517 560.138 547.165C566.35 543.739 571.841 538.237 578.329 535.431C575.566 539.316 569.724 542.879 565.684 545.819C563.352 547.17 560.445 548.554 559.662 551.138C559.548 549.547 558.715 548.384 557.997 546.974Z"/><path fill="#3D6986" d="M559.662 551.138C560.445 548.554 563.352 547.17 565.684 545.819L565.985 546.489C564.786 548.398 565.847 549.573 564.325 551.698C566.102 551.91 566.285 551.936 567.681 553.047C566.052 552.945 563.425 552.38 561.741 552.072L559.662 551.138Z"/><path fill="#6F67F9" d="M414.452 595.223C410.983 587.376 410.644 582.666 412.187 574.097C412.649 571.53 413.201 566.251 415.364 564.698L415.529 567.542L415.499 567.52L416.215 568.296C416.683 567.485 418.765 564.82 419.449 564.62C423.783 563.354 423.67 548.66 426.206 547.86C433.121 545.681 468.838 548.947 472.752 546.525L472.494 546C467.016 545.387 464.943 546.86 458.84 544.998C454.052 543.537 430.317 547.135 427.408 546.204C431.236 543.411 458.761 544.22 465.561 543.86L494.785 542.426C499.928 542.215 501.013 541.133 506.387 542.322C509.305 542.968 513.011 538.043 518.986 539.82C523.767 538.261 525.058 545.428 529.056 545.776C530.164 545.872 530.439 546.074 531.251 546.838C532.888 550.348 531.713 552.669 531.118 556.139C532.903 560.322 536.748 562.863 537.717 565.303C540.818 573.109 543.018 584.314 541.385 592.632C541.22 593.365 538.739 594.426 537.977 594.767C534.606 594.717 529.035 594.426 526.023 594.906C517.335 596.372 509.937 596.848 501.262 594.989C498.947 594.492 494.818 594.822 492.238 594.525C486.881 593.909 482.857 594.237 478.106 597.158L477.887 597.363C482.186 598.787 486.849 599.842 491.375 600.089L491.006 600.535C479.658 599.962 466.713 601.704 456.741 600.751L456.476 600.179C458.412 600.188 460.815 598.818 462.667 597.96C460.985 596.953 460.283 597.852 458.233 595.794C456.902 594.458 445.3 595.39 443.304 595.432C433.653 595.631 424.088 595.258 414.452 595.223Z"/><path fill="#EFEFF0" d="M529.141 553.93L531.118 556.139C532.903 560.322 536.748 562.863 537.717 565.303C540.818 573.109 543.018 584.314 541.385 592.632C541.22 593.365 538.739 594.426 537.977 594.767C534.606 594.717 529.035 594.426 526.023 594.906C517.335 596.372 509.937 596.848 501.262 594.989C498.947 594.492 494.818 594.822 492.238 594.525C486.881 593.909 482.857 594.237 478.106 597.158C476.222 596.785 476.907 597.226 475.676 596.177L475.8 593.527L476.404 593.468L476.421 583.17C472.213 584.376 459.295 587.574 459.055 580.583C461.984 575.063 471.912 577.738 476.628 578.948C476.764 575.855 476.6 572.142 476.538 568.995C484.086 569.08 491.634 569.095 499.183 569.042C497.861 570.607 496.932 571.271 496.865 573.166C499.308 578.899 513.4 576.542 514.173 573.363C512.838 571.489 511.806 570.807 510.037 569.371C517.524 568.779 524.635 569.2 532.051 568.948C531.348 566.983 529.227 557.601 528.5 554.814L529.141 553.93Z"/><defs><linearGradient id="gradient_3" gradientUnits="userSpaceOnUse" x1="538.0213" y1="577.45312" x2="533.77386" y2="578.07697"><stop offset="0" stop-color="#4B6983"/><stop offset="1" stop-color="#597D92"/></linearGradient></defs><path fill="url(#gradient_3)" d="M529.141 553.93L531.118 556.139C532.903 560.322 536.748 562.863 537.717 565.303C540.818 573.109 543.018 584.314 541.385 592.632C541.22 593.365 538.739 594.426 537.977 594.767L538.553 593.367C537.659 588.207 533.63 574.112 532.051 568.948C531.348 566.983 529.227 557.601 528.5 554.814L529.141 553.93Z"/><path fill="#56809B" d="M476.404 593.468L516.1 593.527C522.763 593.53 532.04 593.788 538.553 593.367L537.977 594.767C534.606 594.717 529.035 594.426 526.023 594.906C517.335 596.372 509.937 596.848 501.262 594.989C498.947 594.492 494.818 594.822 492.238 594.525C486.881 593.909 482.857 594.237 478.106 597.158C476.222 596.785 476.907 597.226 475.676 596.177L475.8 593.527L476.404 593.468Z"/><path fill="#6F67F9" d="M496.315 549.208C499.446 548.368 509.408 549.295 513.515 549.347C517.973 549.27 522.432 549.239 526.89 549.255L529.141 553.93L528.5 554.814C529.227 557.601 531.348 566.983 532.051 568.948C524.635 569.2 517.524 568.779 510.037 569.371C511.806 570.807 512.838 571.489 514.173 573.363C513.4 576.542 499.308 578.899 496.865 573.166C496.932 571.271 497.861 570.607 499.183 569.042C491.634 569.095 484.086 569.08 476.538 568.995L476.548 560.314C476.332 558.245 476.348 558.076 476.702 556.007C480.89 555.462 484.144 555.115 488.355 554.907L489.372 554.739C487.112 554.79 478.553 555.316 477.215 554.415L477.064 553.257C479.256 550.126 491.899 548.938 494.514 550.363L496.315 549.208Z"/><path fill="#504ABF" d="M496.315 549.208C499.446 548.368 509.408 549.295 513.515 549.347C517.973 549.27 522.432 549.239 526.89 549.255L529.141 553.93L528.5 554.814C524.793 555.546 520.443 555.422 516.617 555.457C515.976 554.066 515.677 553.581 514.888 552.317C507.03 551.655 507.903 553.309 501.054 554.484L499.003 554.743C496.458 553.687 495.959 552.775 494.514 550.363L496.315 549.208Z"/><path fill="#D9D8D9" d="M476.702 556.007C480.89 555.462 484.144 555.115 488.355 554.907C490.629 555.649 491.129 555.669 492.889 557.172L493.427 558.551C491.42 563.036 480.306 560.655 476.548 560.314C476.332 558.245 476.348 558.076 476.702 556.007Z"/><path fill="#EFEFF0" d="M426.559 548.438C443.274 548.516 459.99 548.493 476.705 548.367L476.702 556.007C476.348 558.076 476.332 558.245 476.548 560.314L476.538 568.995L453.964 568.978C455.353 567.776 458.203 565.878 458.363 564.519C455.537 561.753 443.988 560.406 441.641 564.885C441.692 567.117 442.001 566.782 443.561 569.01L420.58 569.127C422.855 562.47 424.696 555.259 426.559 548.438Z"/><path fill="#567297" d="M414.452 595.223C410.983 587.376 410.644 582.666 412.187 574.097C412.649 571.53 413.201 566.251 415.364 564.698L415.529 567.542L415.499 567.52L416.215 568.296C416.683 567.485 418.765 564.82 419.449 564.62C423.783 563.354 423.67 548.66 426.206 547.86C433.121 545.681 468.838 548.947 472.752 546.525L472.494 546C467.016 545.387 464.943 546.86 458.84 544.998C454.052 543.537 430.317 547.135 427.408 546.204C431.236 543.411 458.761 544.22 465.561 543.86L494.785 542.426C499.928 542.215 501.013 541.133 506.387 542.322C509.305 542.968 513.011 538.043 518.986 539.82C523.767 538.261 525.058 545.428 529.056 545.776C530.164 545.872 530.439 546.074 531.251 546.838C532.888 550.348 531.713 552.669 531.118 556.139L529.141 553.93L526.89 549.255C522.432 549.239 517.973 549.27 513.515 549.347C509.408 549.295 499.446 548.368 496.315 549.208L494.514 550.363C491.899 548.938 479.256 550.126 477.064 553.257L477.215 554.415C478.553 555.316 487.112 554.79 489.372 554.739L488.355 554.907C484.144 555.115 480.89 555.462 476.702 556.007L476.705 548.367C459.99 548.493 443.274 548.516 426.559 548.438C424.696 555.259 422.855 562.47 420.58 569.127C417.929 574.592 414.81 587.766 414.242 593.967L445.525 594.163C456.253 594.29 465.103 594.855 475.8 593.527L475.676 596.177C476.907 597.226 476.222 596.785 478.106 597.158L477.887 597.363C482.186 598.787 486.849 599.842 491.375 600.089L491.006 600.535C479.658 599.962 466.713 601.704 456.741 600.751L456.476 600.179C458.412 600.188 460.815 598.818 462.667 597.96C460.985 596.953 460.283 597.852 458.233 595.794C456.902 594.458 445.3 595.39 443.304 595.432C433.653 595.631 424.088 595.258 414.452 595.223Z"/><path fill="#6F67F9" d="M403.833 602.836C407.355 602.426 414.887 602.753 418.786 602.799C426.96 602.872 435.135 602.898 443.31 602.879L485.279 602.883C491.316 602.883 500.961 602.586 506.793 602.995C521.246 602.604 536.224 602.798 550.661 603.289C557.141 603.51 558.67 613.196 550.361 613.302C546.822 613.347 543.208 613.085 539.668 613.06C531.204 612.992 522.739 613.007 514.275 613.106C477.231 613.335 440.185 613.372 403.14 613.215C391.822 612.948 396.327 603.353 403.833 602.836Z"/><path fill="#D9D8D9" d="M403.833 602.836C407.355 602.426 414.887 602.753 418.786 602.799C426.96 602.872 435.135 602.898 443.31 602.879L485.279 602.883C491.316 602.883 500.961 602.586 506.793 602.995C521.246 602.604 536.224 602.798 550.661 603.289C557.141 603.51 558.67 613.196 550.361 613.302C546.822 613.347 543.208 613.085 539.668 613.06C531.204 612.992 522.739 613.007 514.275 613.106C477.231 613.335 440.185 613.372 403.14 613.215L401.554 611.586C425.688 611.063 450.36 611.78 474.506 611.505C480.183 611.441 507.899 611.954 511.604 610.64C512.64 609.638 512.556 609.403 512.891 608.003C512.078 605.161 509.503 604.502 506.711 604.449C498.02 604.285 489.281 604.452 480.58 604.485L430.925 604.379C425.71 604.772 408.462 604.705 403.4 604.315C404.033 603.452 403.877 603.941 403.833 602.836Z"/><path fill="#B4AFEE" d="M403.833 602.836C407.355 602.426 414.887 602.753 418.786 602.799C426.96 602.872 435.135 602.898 443.31 602.879L485.279 602.883C491.316 602.883 500.961 602.586 506.793 602.995C503.632 603.83 493.195 603.544 489.39 603.539L451.733 603.472C448.145 603.465 433.054 602.857 430.925 604.379C425.71 604.772 408.462 604.705 403.4 604.315C404.033 603.452 403.877 603.941 403.833 602.836Z"/><path fill="#EFEFF0" d="M403.14 613.215C391.822 612.948 396.327 603.353 403.833 602.836C403.877 603.941 404.033 603.452 403.4 604.315C400.387 605.345 398.812 606.983 399.263 610.313C400.535 611.56 399.804 611.142 401.554 611.586L403.14 613.215Z"/><path fill="#B4AFEE" d="M659.575 592.538C634.779 593.344 609.694 591.913 584.876 592.788C581.602 592.904 578.262 592.731 576.359 589.797C576.044 587.617 575.894 588.611 576.647 586.683C579.077 584.873 606.361 585.589 610.999 585.666C626.929 585.929 643.913 584.691 659.657 586.032C664.117 585.985 668.668 585.852 673.117 585.924C677.827 585.999 686.894 584.997 687.38 591.295C686.763 592.132 686.937 592.253 685.589 592.362C677.203 593.039 668.03 592.341 659.575 592.538Z"/><path fill="#756FC8" d="M660.864 590.868C655.667 591.309 648.266 591.119 642.96 591.121L612.576 591.18C603.759 591.221 594.914 591.165 586.098 591.4C583.332 591.473 580.055 591.647 578.279 589.278L578.532 587.848C580.104 586.75 650.172 587.449 659.088 587.426C659.341 587.899 660.801 590.539 660.864 590.868Z"/><path fill="#EFEFF0" d="M659.657 586.032C664.117 585.985 668.668 585.852 673.117 585.924C677.827 585.999 686.894 584.997 687.38 591.295C686.763 592.132 686.937 592.253 685.589 592.362C677.203 593.039 668.03 592.341 659.575 592.538L660.864 590.868C660.801 590.539 659.341 587.899 659.088 587.426L659.657 586.032Z"/><path fill="#EFEFF0" d="M651.872 598.206C653.055 598.17 653.786 598.219 654.952 598.283C656.855 599.751 660.879 602.379 663.294 601.323C663.194 599.88 662.431 599.636 661.11 598.271L668.627 598.147C669.979 599.843 670.266 600.27 671.928 601.601C674.479 601.613 677.835 602.378 680.161 603.388L680.336 603.939C678.095 604.787 675.741 604.183 674.517 605.005C675.113 606.352 675.61 607.342 676.303 608.641C675.405 609.366 675.128 609.063 673.604 609.014C671.934 608.793 670.713 608.235 669.485 609.365L670.023 611.34L669.441 612.047C665.985 612.467 665.601 612.161 663.04 610.002C660.874 608.177 657.849 609.131 655.027 609.603L652.193 604.329C649.598 605.097 646.849 606.136 645.016 603.367L645.481 602.532C647.372 601.952 647.986 602.034 650.006 601.997C649.634 600.721 649.548 600.634 648.998 599.43L649.372 598.556L651.872 598.206Z"/><path fill="#6F67F9" d="M602.934 599.556C605.097 599.401 608.454 599.326 610.404 598.662L610.563 596.289C614.487 595.275 615.108 597.558 618.188 598.838C619.004 599.177 622.678 599.058 623.772 599.026C625.157 601.393 628.102 606.151 628.502 608.678L627.776 609.241C623.839 609.869 618.567 609.547 614.443 609.466L607.735 609.53C605.967 606.338 604.456 602.884 602.934 599.556Z"/><path fill="#4B4F72" d="M614.443 609.466L614.224 607.018C614.921 606.189 616.1 605.105 617.366 605.325C620.435 605.859 619.136 607.222 620.507 609.006C623.004 609.164 625.28 609.206 627.776 609.241C623.839 609.869 618.567 609.547 614.443 609.466Z"/><path fill="#65667A" d="M379.059 552.03C383.747 551.714 388.275 551.939 392.962 552.089C391.576 554.54 391.036 555.423 389.239 557.691C386.087 557.876 378.316 558.865 377.086 555.633C377.525 553.814 377.873 553.563 379.059 552.03Z"/><path fill="#7892BD" d="M384.902 542.546C387.577 542.492 395.137 541.585 395.798 544.854C394.96 546.518 394.333 546.78 392.779 547.935C389.88 548.043 383.017 549.059 381.816 545.911C382.351 544.219 383.462 543.658 384.902 542.546Z"/><path fill="#6F67F9" d="M861.552 418.679C870.202 421.355 887.998 428.025 892.448 436.263C897.465 445.549 912.398 506.202 908.617 516.569C907.571 519.436 904.866 521.564 902.159 522.761C898.279 524.477 889.621 523.586 887.366 526.498C886.767 534.478 889.005 549.304 887.673 558.26C887.286 560.86 884.668 563.804 884.167 566.934C872.381 569.325 847.658 571.669 836.018 570.517C836.211 583.059 837.477 595.342 838.97 607.78C839.452 611.792 840.014 620.321 840.666 623.844C838.562 627.584 836.339 634.651 834.867 638.911C832.034 647.301 829.122 655.664 826.133 664C828.628 674.95 841.268 744.2 839.535 750.776L838.106 752.45C832.932 754.117 828.529 755.468 823.108 756.032C821.908 755.993 821.321 755.958 820.137 755.783C817.485 752.781 814.277 740.502 812.902 736.138C809.685 725.923 806.292 715.576 803.452 705.243C800.541 695.181 798.324 683.586 794.963 673.865C794.016 695.54 791.651 732.459 789.974 755.674C789.731 755.919 789.487 756.165 789.244 756.41L787.549 756.655C783.335 756.297 777.439 756.523 772.714 756.225C770.883 755.731 771.544 756.238 770.541 754.827C770.581 748.461 768.023 730.97 767.305 723.713C764.78 696.827 761.777 669.988 758.299 643.209C761.279 637.174 760.507 632.99 760.419 626.289C758.643 624.4 756.788 622.92 755.946 620.541C755.34 613.017 754.856 605.917 753.561 598.461C752.16 603.341 751.246 610.326 750.097 615.595C747.6 613.907 744.161 609.869 741.769 607.757C733.393 600.364 723.425 588.205 714.938 581.516C719.868 568.323 724.887 529.384 732.005 521.755C730.535 519.114 727.078 517.594 724.102 518.511C716.716 527.305 685.811 516.579 675.24 515.633C669.305 515.103 668.568 509.833 669.977 504.597L668.941 501.815C675.179 499.447 675.223 498.664 679.619 493.489C681.065 492.024 682.832 489.872 684.224 488.28L685.018 486.345C685.702 487.311 685.817 487.282 686.828 487.943C690.875 488.402 692.661 487.876 694.249 484.045C694.069 482.878 693.776 482.326 693.358 481.224C692.167 480.611 691.842 480.102 690.967 479.111C692.907 478.736 694.036 476.747 695.321 475.123C697.09 472.541 698.649 468.951 701.851 468.964L701.85 468.684C706.649 468.542 713.452 467.348 716.501 471.51C718.728 461.933 723.08 445.779 734.281 443.816L735.341 443.134C739.186 441.043 742.622 439.572 746.618 437.833L753.401 435.464C760.498 435.755 769.058 436.264 776.054 435.984C782.052 438.101 788.929 441.793 794.635 444.721C807.561 451.356 807.834 466.169 807.576 479.313C809.614 484.697 810.539 488.008 814.302 492.45L814.952 489.814C815.508 476.781 819.856 462.265 821.285 449.217C822.502 438.111 831.27 430.439 840.039 424.346C841.45 426.037 842.109 427.738 844.415 430.377C849.994 426.872 855.933 422.408 861.552 418.679ZM787.757 531.064C794.538 545.646 799.518 563.393 800.733 579.474C801.145 584.93 799.992 591.4 799.681 597.003L797.698 634.123C800.671 626.312 803.143 606.757 804.953 597.806C807.033 587.517 810.506 574.267 811.941 564.108C809.194 558.068 813.889 537.632 813.967 527.787C809.093 525.484 802.089 522.81 796.759 522.375C798.296 524.27 798.164 523.532 798.173 525.542C796.556 528.653 791.183 529.915 787.757 531.064Z"/><path fill="#0A0A14" d="M733.633 521.281L734.545 522.027C738.99 522.742 746.465 522.639 751.124 522.653L751.412 522.997L752.529 522.677L752.804 522.928C756.649 523.061 760.575 523.151 764.407 523.413C769.349 523.485 773.996 523.446 778.907 524.132C782.187 527.471 783.322 529.139 787.757 531.064C794.538 545.646 799.518 563.393 800.733 579.474C801.145 584.93 799.992 591.4 799.681 597.003L797.698 634.123C800.671 626.312 803.143 606.757 804.953 597.806C807.033 587.517 810.506 574.267 811.941 564.108C819.921 567.545 827.44 569.31 836.018 570.517C836.211 583.059 837.477 595.342 838.97 607.78C839.452 611.792 840.014 620.321 840.666 623.844C838.562 627.584 836.339 634.651 834.867 638.911C832.034 647.301 829.122 655.664 826.133 664C828.628 674.95 841.268 744.2 839.535 750.776L838.106 752.45C832.932 754.117 828.529 755.468 823.108 756.032C821.908 755.993 821.321 755.958 820.137 755.783C817.485 752.781 814.277 740.502 812.902 736.138C809.685 725.923 806.292 715.576 803.452 705.243C800.541 695.181 798.324 683.586 794.963 673.865C794.016 695.54 791.651 732.459 789.974 755.674C789.731 755.919 789.487 756.165 789.244 756.41L787.549 756.655C783.335 756.297 777.439 756.523 772.714 756.225C770.883 755.731 771.544 756.238 770.541 754.827C770.581 748.461 768.023 730.97 767.305 723.713C764.78 696.827 761.777 669.988 758.299 643.209C761.279 637.174 760.507 632.99 760.419 626.289C758.643 624.4 756.788 622.92 755.946 620.541C755.34 613.017 754.856 605.917 753.561 598.461C752.16 603.341 751.246 610.326 750.097 615.595C747.6 613.907 744.161 609.869 741.769 607.757C733.393 600.364 723.425 588.205 714.938 581.516C719.868 568.323 724.887 529.384 732.005 521.755L732.434 522.03L733.633 521.281Z"/><path fill="#0F2D42" d="M733.633 521.281L734.545 522.027C738.99 522.742 746.465 522.639 751.124 522.653L751.412 522.997L752.529 522.677L752.804 522.928C756.649 523.061 760.575 523.151 764.407 523.413L762.836 524.818L762.829 525.557L763.998 526.23L764.114 527.296C762.872 527.75 762.674 527.692 761.332 527.787C760.103 531.11 770.533 538.919 766.205 546.32C762.638 552.423 756.607 554.488 749.705 551.641C743.354 547.481 741.41 537.202 737.458 530.734L737.705 530.085C738.769 530.454 739.569 530.866 740.645 530.87C738.374 528.863 736.236 527.748 735.477 525.174L732.434 522.03L733.633 521.281Z"/><path fill="#80B6D0" d="M733.633 521.281L734.545 522.027C738.99 522.742 746.465 522.639 751.124 522.653L751.412 522.997L752.529 522.677L752.804 522.928C753.097 525.206 753.341 526.62 753.871 528.853C757.503 529.592 759.491 533.172 760.072 536.655C763.647 543.89 757.775 551.012 751.212 544.702C749.178 542.747 750.309 540.039 750.415 537.535C748.404 535.092 738.599 527.646 735.477 525.174L732.434 522.03L733.633 521.281Z"/><path fill="#18172F" d="M734.545 522.027C738.99 522.742 746.465 522.639 751.124 522.653L751.412 522.997L752.253 527.868C749.346 528.341 746.538 528.684 743.848 529.939L734.545 522.027Z"/><path fill="#385470" d="M752.253 527.868L753.759 537.383C750.28 534.92 747.097 532.724 743.848 529.939C746.538 528.684 749.346 528.341 752.253 527.868Z"/><path fill="#385470" d="M753.871 528.853C757.503 529.592 759.491 533.172 760.072 536.655C754.575 533.639 755.176 535.4 753.871 528.853Z"/><path fill="#393A4C" d="M716.501 471.51C718.728 461.933 723.08 445.779 734.281 443.816C734.907 447.686 738.224 464.978 739.443 468.391L741.397 467.632L741.913 467.598C754.814 465.982 760.347 481.044 769.789 487.453C772.262 491.812 774.873 497.036 777.394 501.194C772.132 507.105 778.519 515.107 784.876 517.009C789.061 519.579 791.989 520.973 796.759 522.375C798.296 524.27 798.164 523.532 798.173 525.542C796.556 528.653 791.183 529.915 787.757 531.064C783.322 529.139 782.187 527.471 778.907 524.132C773.996 523.446 769.349 523.485 764.407 523.413C760.575 523.151 756.649 523.061 752.804 522.928L752.529 522.677L751.412 522.997L751.124 522.653C746.465 522.639 738.99 522.742 734.545 522.027L733.633 521.281L732.434 522.03L732.005 521.755C730.535 519.114 727.078 517.594 724.102 518.511C716.716 527.305 685.811 516.579 675.24 515.633C669.305 515.103 668.568 509.833 669.977 504.597L668.941 501.815C675.179 499.447 675.223 498.664 679.619 493.489C681.065 492.024 682.832 489.872 684.224 488.28L685.018 486.345C685.702 487.311 685.817 487.282 686.828 487.943C690.875 488.402 692.661 487.876 694.249 484.045C694.069 482.878 693.776 482.326 693.358 481.224C692.167 480.611 691.842 480.102 690.967 479.111C692.907 478.736 694.036 476.747 695.321 475.123C697.09 472.541 698.649 468.951 701.851 468.964L701.85 468.684C706.649 468.542 713.452 467.348 716.501 471.51Z"/><path fill="#E99C9E" d="M741.913 467.598C754.814 465.982 760.347 481.044 769.789 487.453C772.262 491.812 774.873 497.036 777.394 501.194C772.132 507.105 778.519 515.107 784.876 517.009C789.061 519.579 791.989 520.973 796.759 522.375C798.296 524.27 798.164 523.532 798.173 525.542C796.556 528.653 791.183 529.915 787.757 531.064C783.322 529.139 782.187 527.471 778.907 524.132C773.996 523.446 769.349 523.485 764.407 523.413C760.575 523.151 756.649 523.061 752.804 522.928L752.529 522.677L751.412 522.997L751.124 522.653C750.356 519.776 749.36 515.934 749.377 513.022L750.237 512.869L749.11 507.997C748.388 501.533 745.619 491.465 744.313 484.378L744.143 483.653C744.533 481.394 741.053 472.984 741.913 467.598Z"/><path fill="#6F67F9" d="M744.313 484.378C747.308 484.492 748.17 484.51 751.188 484.06C755.061 489.009 761.926 499.761 765.373 505.377L765.698 507.733C764.35 508.295 763.673 507.342 761.504 507.901C758.816 507.827 751.299 507.388 749.11 507.997C748.388 501.533 745.619 491.465 744.313 484.378Z"/><path fill="#4B4F72" d="M749.11 507.997C751.299 507.388 758.816 507.827 761.504 507.901L761.346 512.444L750.237 512.869L749.11 507.997Z"/><path fill="#756FC8" d="M765.373 505.377C767.298 508.084 768.202 509.514 769.772 512.437L761.346 512.444L761.504 507.901C763.673 507.342 764.35 508.295 765.698 507.733L765.373 505.377Z"/><path fill="#C6BECA" d="M749.377 513.022L750.237 512.869C751.46 515.493 752.098 519.753 752.529 522.677L751.412 522.997L751.124 522.653C750.356 519.776 749.36 515.934 749.377 513.022Z"/><path fill="#6F67F9" d="M716.501 471.51C718.728 461.933 723.08 445.779 734.281 443.816C734.907 447.686 738.224 464.978 739.443 468.391L741.397 467.632L741.913 467.598C741.053 472.984 744.533 481.394 744.143 483.653L744.313 484.378C745.619 491.465 748.388 501.533 749.11 507.997L750.237 512.869L749.377 513.022L749.092 512.857C748.944 511.212 748.236 509.458 747.69 507.865C742.555 507.552 738.688 507.622 733.614 507.8C731.218 503.07 728.773 498.377 726.64 493.522C724.293 489.639 722.041 484.193 720.144 479.963C719.288 478.324 716.349 472.96 716.501 471.51Z"/><path fill="#D8A3C0" d="M741.397 467.632L741.913 467.598C741.053 472.984 744.533 481.394 744.143 483.653L742.952 484.045C736.111 481.793 735.913 480.912 735.673 474.161C733.496 474.506 729.641 475.348 727.772 474.238L727.711 473.378C730.948 470.258 735.151 469.535 739.443 468.391L741.397 467.632Z"/><path fill="#86ADF3" d="M742.952 484.045L744.143 483.653L744.313 484.378C745.619 491.465 748.388 501.533 749.11 507.997L750.237 512.869L749.377 513.022L749.092 512.857C748.944 511.212 748.236 509.458 747.69 507.865C745.775 499.45 744.638 492.261 742.952 484.045Z"/><path fill="#D8A3C0" d="M720.144 479.963C721.665 480.201 723.422 480.154 724.339 481.416C726.267 484.069 726.359 490.146 726.64 493.522C724.293 489.639 722.041 484.193 720.144 479.963Z"/><path fill="#393A4C" d="M685.018 486.345C685.702 487.311 685.817 487.282 686.828 487.943C690.875 488.402 692.661 487.876 694.249 484.045C694.543 487.463 694.209 487.892 696.581 490.11L696.524 492.137C704.781 498.889 713.228 506.101 721.588 512.65L722.386 513.065C722.939 515.359 723.19 516.349 724.102 518.511C716.716 527.305 685.811 516.579 675.24 515.633C669.305 515.103 668.568 509.833 669.977 504.597L668.941 501.815C675.179 499.447 675.223 498.664 679.619 493.489C681.065 492.024 682.832 489.872 684.224 488.28L685.018 486.345Z"/><path fill="#E99C9E" d="M675.557 500.639C680.937 501.928 681.333 507.447 681.639 512.343C694.013 512.194 709.315 512.038 721.588 512.65L722.386 513.065C722.939 515.359 723.19 516.349 724.102 518.511C716.716 527.305 685.811 516.579 675.24 515.633C669.305 515.103 668.568 509.833 669.977 504.597C671.392 503.123 671.691 502.802 673.466 501.821L675.557 500.639Z"/><path fill="#80B6D0" d="M685.018 486.345C685.702 487.311 685.817 487.282 686.828 487.943C690.875 488.402 692.661 487.876 694.249 484.045C694.543 487.463 694.209 487.892 696.581 490.11L696.524 492.137C692.528 497.761 689.033 492.624 686.388 489.166L684.224 488.28L685.018 486.345Z"/><path fill="#80B6D0" d="M684.224 488.28L686.388 489.166C683.306 492.103 678.035 497.222 675.557 500.639L673.466 501.821C671.691 502.802 671.392 503.123 669.977 504.597L668.941 501.815C675.179 499.447 675.223 498.664 679.619 493.489C681.065 492.024 682.832 489.872 684.224 488.28Z"/><path fill="#E99C9E" d="M723.426 512.498C724.075 512.538 726.54 512.644 727.051 512.735L730.563 512.954C736.74 512.969 742.916 512.937 749.092 512.857L749.377 513.022C749.36 515.934 750.356 519.776 751.124 522.653C746.465 522.639 738.99 522.742 734.545 522.027L733.633 521.281L732.434 522.03L732.005 521.755C730.535 519.114 727.078 517.594 724.102 518.511C723.19 516.349 722.939 515.359 722.386 513.065L723.426 512.498Z"/><path fill="#C6BECA" d="M723.426 512.498C724.075 512.538 726.54 512.644 727.051 512.735L730.563 512.954C730.958 516.206 731.26 516.636 732.865 519.432C733.631 520.452 733.459 520.042 733.633 521.281L732.434 522.03L732.005 521.755C730.535 519.114 727.078 517.594 724.102 518.511C723.19 516.349 722.939 515.359 722.386 513.065L723.426 512.498Z"/><path fill="#D9D8D9" d="M727.051 512.735L730.563 512.954C730.958 516.206 731.26 516.636 732.865 519.432L731.494 519.258C729.332 517.656 726.475 515.766 725.417 513.283L727.051 512.735Z"/><path fill="#80B6D0" d="M696.581 490.11C705.723 497.337 714.675 504.802 723.426 512.498L722.386 513.065L721.588 512.65C713.228 506.101 704.781 498.889 696.524 492.137L696.581 490.11Z"/><path fill="#80B6D0" d="M695.321 475.123C697.09 472.541 698.649 468.951 701.851 468.964C699.933 471.935 694.235 478.86 693.358 481.224C692.167 480.611 691.842 480.102 690.967 479.111C692.907 478.736 694.036 476.747 695.321 475.123Z"/><path fill="#6F67F9" d="M753.401 435.464C760.498 435.755 769.058 436.264 776.054 435.984C782.052 438.101 788.929 441.793 794.635 444.721C807.561 451.356 807.834 466.169 807.576 479.313C805.342 476.432 804.59 474.014 801.628 470.696C791.341 470.045 777.245 470.455 766.705 470.734C764.895 470.782 764.476 471.696 763.552 472.873C765.283 478.052 767.994 482.472 769.789 487.453C760.347 481.044 754.814 465.982 741.913 467.598L741.397 467.632L739.443 468.391C738.224 464.978 734.907 447.686 734.281 443.816L735.341 443.134C739.186 441.043 742.622 439.572 746.618 437.833L753.401 435.464Z"/><path fill="#86ADF3" d="M734.281 443.816L735.341 443.134C736.154 446.505 740.266 466.451 741.397 467.632L739.443 468.391C738.224 464.978 734.907 447.686 734.281 443.816Z"/><path fill="#393A4C" d="M763.552 472.873C764.476 471.696 764.895 470.782 766.705 470.734C777.245 470.455 791.341 470.045 801.628 470.696C804.59 474.014 805.342 476.432 807.576 479.313C809.614 484.697 810.539 488.008 814.302 492.45L815.292 495.36L814.828 495.895L813.232 495.476C801.748 491.163 800.207 496.369 807.262 505.138C810.718 509.435 814.761 509.173 819.021 511.275C811.598 512.07 797.778 511.189 789.382 511.485C787.913 513.25 786.228 515.181 784.876 517.009C778.519 515.107 772.132 507.105 777.394 501.194C774.873 497.036 772.262 491.812 769.789 487.453C767.994 482.472 765.283 478.052 763.552 472.873Z"/><path fill="#915C61" d="M777.394 501.194C786.052 495.852 793.071 504.826 789.382 511.485C787.913 513.25 786.228 515.181 784.876 517.009C778.519 515.107 772.132 507.105 777.394 501.194Z"/><path fill="#0A0A14" d="M763.552 472.873C764.476 471.696 764.895 470.782 766.705 470.734C777.245 470.455 791.341 470.045 801.628 470.696C804.59 474.014 805.342 476.432 807.576 479.313C809.614 484.697 810.539 488.008 814.302 492.45L815.292 495.36L814.828 495.895L813.232 495.476C810.741 488.892 805.209 478.435 801.377 472.497C792.49 471.756 772.216 471.822 763.552 472.873Z"/><path fill="#915C61" d="M814.952 489.814C824.295 493.963 826.164 495.091 834.435 501.109C834.414 504.429 834.32 506.702 833.999 510.001C831.232 510.022 821.459 510.537 819.021 511.275C814.761 509.173 810.718 509.435 807.262 505.138C800.207 496.369 801.748 491.163 813.232 495.476L814.828 495.895L815.292 495.36L814.302 492.45L814.952 489.814Z"/><path fill="#504ABF" d="M871.059 463.358C872.107 464.747 879.559 492.332 880.337 495.95C870.409 496.806 856.88 496.703 846.535 496.972C842.885 497.09 839.144 496.984 835.484 496.926C846.012 494.879 860.77 493.351 871.554 492.041C870.66 484.129 870.663 471.35 871.059 463.358Z"/><path fill="#504ABF" d="M838.057 516.55C843.29 516.176 875.115 523.353 883.215 524.702L882.134 532.396L881.459 532.964C876.843 532.955 843.665 519.095 838.057 516.55Z"/><path fill="#393A4C" d="M603.489 365.291C613.128 375.388 626.849 378.854 632.93 386.401C636.145 402.645 638.82 418.991 640.951 435.412C643.421 453.824 643.86 453.857 638.877 472.607C638.609 474.376 636.931 484.383 636.224 485.877C636.142 487.455 635.965 489.502 636.044 491.042L636.06 493.046C636.1 495.069 636.075 497.584 636.254 499.555C635.722 501.196 635.636 501.89 634.453 503.168L634.175 508.505C634.211 510.313 634.499 511.915 633.441 513.311C632.767 513.657 631.919 514.129 631.241 514.42L629.888 514.646C628.002 519.59 629.279 528.127 626.572 530.528L625.304 530.782C619.794 530.301 611.999 531.019 606.176 531.052C599.392 531.051 592.609 531.005 585.826 530.915L584.263 530.909C575.061 531.201 565.248 531.03 556 531.021C556.169 525.669 556.093 520.523 556.421 515.132C554.563 513.242 549.185 513.597 546.348 513.512C548.23 497.695 552.333 477.08 552.829 461.831C545.487 466.481 524.075 476.23 515.128 479.805C514.194 480.178 513.332 479.247 512.573 478.665C510.85 474.835 509.105 471.015 507.337 467.206C510.463 460.43 538.109 447.616 545.036 439.934C551.46 432.808 561.089 397.331 568.022 385.261C570.61 380.755 578.169 372.636 583.229 371.224L584.552 368.76C587.403 367.675 600.214 364.416 602.714 365.481L603.489 365.291Z"/><path fill="#393A4C" d="M507.337 467.206C510.463 460.43 538.109 447.616 545.036 439.934C551.46 432.808 561.089 397.331 568.022 385.261C570.61 380.755 578.169 372.636 583.229 371.224C570.834 404.993 565.774 439.394 562.94 475.003C562.413 481.627 561.331 488.307 560.787 494.937C560.337 498.803 559.422 512.451 557.931 515.026L556.421 515.132C554.563 513.242 549.185 513.597 546.348 513.512C548.23 497.695 552.333 477.08 552.829 461.831C545.487 466.481 524.075 476.23 515.128 479.805C514.194 480.178 513.332 479.247 512.573 478.665C510.85 474.835 509.105 471.015 507.337 467.206Z"/><path fill="#6F67F9" d="M584.552 368.76C587.403 367.675 600.214 364.416 602.714 365.481C600.366 370.426 598.688 377.084 597.129 382.413C592.729 397.451 588.031 412.39 583.461 427.377C581.252 434.62 581.865 439.424 582.802 446.802L587.979 490.426C588.586 495.616 589.246 495.624 583.721 495.634C576.074 495.468 568.429 495.236 560.787 494.937C561.331 488.307 562.413 481.627 562.94 475.003C565.774 439.394 570.834 404.993 583.229 371.224L584.552 368.76Z"/><path fill="#18172F" d="M560.787 494.937C568.429 495.236 576.074 495.468 583.721 495.634C585.63 495.873 586.579 495.991 588.424 496.482C590.59 502.218 590.786 507.537 594.358 512.639C595.154 512.916 603.995 515.927 603.886 515.922C601.315 517.755 596.576 520.314 595.401 522.805C591.619 525.409 587.905 528.111 584.263 530.909C575.061 531.201 565.248 531.03 556 531.021C556.169 525.669 556.093 520.523 556.421 515.132L557.931 515.026C559.422 512.451 560.337 498.803 560.787 494.937Z"/><path fill="#80B6D0" d="M605.974 515.884C610.135 513.333 625.637 502.081 628.548 498.977C629.011 492.656 629.942 492.07 636.044 491.042L636.06 493.046C636.1 495.069 636.075 497.584 636.254 499.555C635.722 501.196 635.636 501.89 634.453 503.168L634.175 508.505C634.211 510.313 634.499 511.915 633.441 513.311C632.767 513.657 631.919 514.129 631.241 514.42L629.888 514.646C628.002 519.59 629.279 528.127 626.572 530.528L625.304 530.782C619.794 530.301 611.999 531.019 606.176 531.052C599.392 531.051 592.609 531.005 585.826 530.915L584.263 530.909C587.905 528.111 591.619 525.409 595.401 522.805C598.268 521.242 603.105 517.798 605.974 515.884Z"/><path fill="#915C61" d="M614.684 512.758C619.471 512.049 623.987 515.037 629.423 514.55L629.888 514.646C628.002 519.59 629.279 528.127 626.572 530.528L625.304 530.782C619.794 530.301 611.999 531.019 606.176 531.052C607.802 522.479 611.956 521.402 616.418 515.278L614.684 512.758Z"/><path fill="#9B99B0" d="M614.684 512.758C619.471 512.049 623.987 515.037 629.423 514.55L629.888 514.646C628.002 519.59 629.279 528.127 626.572 530.528L625.304 530.782C625.154 528.541 626.939 520.453 626.557 520.023C624.762 518.007 619.086 515.681 616.418 515.278L614.684 512.758Z"/><path fill="#18172F" d="M585.826 530.915C596.168 525.387 603.878 518.712 613.455 512.686L614.684 512.758L616.418 515.278C611.956 521.402 607.802 522.479 606.176 531.052C599.392 531.051 592.609 531.005 585.826 530.915Z"/><defs><linearGradient id="gradient_4" gradientUnits="userSpaceOnUse" x1="622.63251" y1="513.09119" x2="623.87347" y2="501.35236"><stop offset="0" stop-color="#394F6E"/><stop offset="1" stop-color="#2C607F"/></linearGradient></defs><path fill="url(#gradient_4)" d="M613.455 512.686C616.659 510.024 627.019 502.466 630.767 501.613L631.382 502.121C631.646 505.354 630.143 511.235 629.423 514.55C623.987 515.037 619.471 512.049 614.684 512.758L613.455 512.686Z"/><path fill="#93EDFA" d="M636.254 499.555C634.254 500.504 633.35 500.278 631.05 500.229C629.803 499.318 629.802 499.429 629.216 498.025C630.051 494.933 632.231 495.367 635.306 493.51L636.06 493.046C636.1 495.069 636.075 497.584 636.254 499.555Z"/><path fill="#385470" d="M631.241 514.42C631.251 512.332 632.631 503.958 634.453 503.168L634.175 508.505C634.211 510.313 634.499 511.915 633.441 513.311C632.767 513.657 631.919 514.129 631.241 514.42Z"/><path fill="#385470" d="M612.898 507.52C613.935 503.085 622.633 493.275 625.464 489.054C627.682 485.747 632.278 484.167 636.224 485.877C636.142 487.455 635.965 489.502 636.044 491.042C629.942 492.07 629.011 492.656 628.548 498.977C625.637 502.081 610.135 513.333 605.974 515.884C606.363 511.557 609.641 509.886 612.898 507.52Z"/><path fill="#1A1C2B" d="M613.566 431.822C615.295 433.691 618.228 448.401 618.232 451.604C618.254 469.001 615.418 488.585 611.906 505.648C611.574 507.261 606.079 510.164 605.205 511.749C604.713 512.374 604.531 512.706 604.33 513.476C604.912 511.066 604.546 508.507 604.883 506.053C606.521 494.121 609.223 482.232 611.598 470.431C612.848 464.223 615.029 457.673 615.53 451.417C616.048 444.968 613.689 438.335 613.566 431.822Z"/><path fill="#393A4C" d="M150.917 410.08C154.727 411.494 166.079 419.238 169.943 421.812C169.135 423.874 168.393 425.729 167.724 427.849L171.22 431.629L171.375 432.256C172.559 437.158 173.12 445.428 173.834 449.581C174.702 454.63 185.147 477.804 188.187 481.01C191.391 490.266 194.664 495.688 204.029 499.888C207.022 501.656 220.738 510.375 222.927 510.501C223.044 510.895 223.161 511.288 223.279 511.681C228.934 515.055 234.225 518.467 239.291 522.705C241.327 523.627 242.244 523.69 242.892 525.938C242.455 526.835 238.458 535.95 238.254 536.766C236.015 538.711 236.434 538.537 233.47 537.287L232.199 538.294C229.247 538.113 217.795 532.189 214.153 530.603C203.047 524.355 188.042 520.502 177.018 513.887C175.881 513.205 172.77 510.076 171.674 508.984C170.711 514.215 160.852 559.66 160.906 559.874C159.037 567.144 149.792 575.938 142.109 575.956C130.261 575.983 117.907 574.732 106.067 573.659C104.02 572.67 95.8756 572.509 93.0913 572.324C94.5173 567.58 96.9724 562.218 98.0596 557.545C101.374 543.303 107.863 528.708 110.79 514.578C114.969 494.404 113.737 466.305 121.374 447.408C123.24 442.876 125.558 438.543 128.292 434.475C131.958 429.057 136.572 424.666 140.957 419.855C142.813 417.82 145.783 412.847 147.957 411.932C149.056 411.526 149.955 410.772 150.917 410.08Z"/><path fill="#F5EAEA" d="M150.917 410.08C154.727 411.494 166.079 419.238 169.943 421.812C169.135 423.874 168.393 425.729 167.724 427.849C166.221 427.567 151.046 414.152 147.957 411.932C149.056 411.526 149.955 410.772 150.917 410.08Z"/><path fill="#EFEFF0" d="M239.291 522.705C241.327 523.627 242.244 523.69 242.892 525.938C242.455 526.835 238.458 535.95 238.254 536.766C236.015 538.711 236.434 538.537 233.47 537.287C233.479 536.191 238.553 524.549 239.291 522.705Z"/><path fill="#6F67F9" d="M391.672 377.801C394.064 379.394 397.799 382.104 400.545 382.616C403.657 382.347 408.163 383.757 411.416 384.117L412.79 384.598C432.005 397.358 430.48 429.338 437.778 449.593C442.172 452.1 473.76 466.495 474.499 467.713L474.733 470.039C473.912 471.664 470.475 480.459 470.369 482.011C469.547 482.854 469.449 483.339 468.524 483.134C459.474 481.131 449.705 476.635 440.506 474.378C441.978 479.892 447.832 511.51 445.955 515.138C445.835 515.371 445.687 515.588 445.553 515.812C443.633 515.509 440.18 515.53 438.125 515.48C433.173 512.011 435.462 510.106 432.969 505.236C434.457 502.566 430.218 476.114 429.271 471.348C425.342 469.231 423.668 468.86 419.447 468.117C418.946 470.852 419.057 473.558 419.059 476.34C419.067 479.184 418.391 508.474 418.035 507.765C414.744 512.561 415.622 517.143 409.016 523.124C403.458 524.148 397.306 524.522 391.656 524.57C389.338 524.452 387.998 524.525 385.675 524.697L383.087 524.89L381.294 525.914C377.826 526.096 366.818 526.044 364.714 527.36C364.482 528.428 364.438 528.484 364.38 529.569L364.154 529.486L363.974 527.76C358.93 523.6 360.267 518.691 361.044 512.857L360.721 511.031C361.472 497.932 362.662 484.368 363.043 471.46C363.566 453.738 362.292 434.829 363.633 417.264C364.791 402.089 365.001 393.281 379.599 385.639C383.839 383.419 387.965 380.938 391.672 377.801Z"/><path fill="#EFEFF0" d="M400.545 382.616C403.657 382.347 408.163 383.757 411.416 384.117L412.79 384.598C413.523 387.628 414.198 390.667 414.791 393.728C418.149 411.058 422.565 428.19 425.699 445.563C414.012 429.024 407.242 402.473 400.545 382.616Z"/><path fill="#504ABF" d="M419.059 476.34C414.39 474.334 403.559 472.167 401.22 467.821C395.849 457.839 385.83 443.503 382.328 433.03L382.567 432.633C395.921 445.145 398.663 463.09 418.526 467.903L419.447 468.117C418.946 470.852 419.057 473.558 419.059 476.34Z"/><path fill="#6F67F9" d="M361.044 512.857C368.396 516.583 375.835 520.905 383.087 524.89L381.294 525.914C377.826 526.096 366.818 526.044 364.714 527.36C364.482 528.428 364.438 528.484 364.38 529.569L364.154 529.486L363.974 527.76C358.93 523.6 360.267 518.691 361.044 512.857Z"/><path fill="#86ADF3" d="M360.721 511.031C367.689 514.665 379.237 520.593 385.675 524.697L383.087 524.89C375.835 520.905 368.396 516.583 361.044 512.857L360.721 511.031Z"/><path fill="#6F67F9" d="M240.264 414.373C245.794 420.161 250.235 425.677 255.277 431.895C258.096 427.044 258.776 424.049 260.204 418.581C261.4 420.183 262.461 421.778 263.941 423.109L264.537 425.095C270.863 427.954 280.988 431.329 283.437 438.312C284.675 441.842 283.597 445.79 285.369 449.734C287.724 449.976 288.315 450.095 290.616 449.806L292.82 450.076C301.358 450.617 310.75 450.083 318.657 450.786L320.152 450.942C322.001 450.34 321.117 450.314 322.897 450.958C325.206 455.163 316.593 474.495 314.933 479.768C319.921 482.69 316.365 485.945 315.834 489.78C314.394 493.507 314.345 495.264 310.004 496.017C307.249 500.028 307.195 505.033 304.002 506.538C301.818 507.997 301.05 507.217 298.851 507.89C293.069 509.589 281.905 507.532 275.674 508.107L275.212 510.032C278.546 516.74 280.069 525.406 282.832 532.237C277.461 535.476 273.654 539.451 268.854 543.343L266.674 545.494C263.592 543.305 262.092 542.241 259.429 539.618C260.553 538.563 261.083 537.961 262.076 536.775C259.497 534.361 255.956 530.824 252.761 529.233C250.494 528.105 244.342 527.833 242.892 525.938C242.244 523.69 241.327 523.627 239.291 522.705C234.225 518.467 228.934 515.055 223.279 511.681C223.161 511.288 223.044 510.895 222.927 510.501C220.738 510.375 207.022 501.656 204.029 499.888C194.664 495.688 191.391 490.266 188.187 481.01C190.546 479.081 194.913 478.417 196.066 475.573C199.684 463.961 203.948 438.603 213.517 431.079C216.611 428.646 228.811 425.101 233.694 421.651L233.459 420.736C237.758 420.121 238.492 417.954 240.264 414.373Z"/><path fill="#1A1C2B" d="M285.369 449.734C287.724 449.976 288.315 450.095 290.616 449.806L292.82 450.076C301.358 450.617 310.75 450.083 318.657 450.786L320.152 450.942C322.001 450.34 321.117 450.314 322.897 450.958C325.206 455.163 316.593 474.495 314.933 479.768C319.921 482.69 316.365 485.945 315.834 489.78C314.394 493.507 314.345 495.264 310.004 496.017C307.249 500.028 307.195 505.033 304.002 506.538C301.818 507.997 301.05 507.217 298.851 507.89C293.069 509.589 281.905 507.532 275.674 508.107C271.877 508.229 267.623 508.39 263.971 507.34C263.613 503.246 266.434 496.542 267.889 492.426C269.402 487.775 270.945 483.134 272.517 478.503C274.349 471.308 278.299 459.05 281.378 452.178C282.24 450.254 283.698 450.117 285.369 449.734Z"/><defs><linearGradient id="gradient_5" gradientUnits="userSpaceOnUse" x1="320.36618" y1="469.35657" x2="307.82928" y2="460.62766"><stop offset="0" stop-color="#08020C"/><stop offset="1" stop-color="#132C48"/></linearGradient></defs><path fill="url(#gradient_5)" d="M290.616 449.806L292.82 450.076C301.358 450.617 310.75 450.083 318.657 450.786L320.152 450.942C322.001 450.34 321.117 450.314 322.897 450.958C325.206 455.163 316.593 474.495 314.933 479.768C312.607 479.609 308.568 478.777 306.729 479.506C305.223 481.029 305.604 481.074 304.941 483.467C302.674 482.486 296.662 480.127 295.46 478.174C295.524 476.881 295.259 475.524 295.074 474.229L294.319 472.885C293.785 472.688 292.523 471.998 291.952 471.707C290.807 471.927 289.663 472.155 288.521 472.391C290.051 470.878 289.982 464.361 290.078 462.086C290.551 458.636 290.527 453.408 290.616 449.806Z"/><path fill="#18172F" d="M290.616 449.806L292.82 450.076C301.358 450.617 310.75 450.083 318.657 450.786C310.606 457.706 302.235 465.611 294.319 472.885C293.785 472.688 292.523 471.998 291.952 471.707C290.807 471.927 289.663 472.155 288.521 472.391C290.051 470.878 289.982 464.361 290.078 462.086C290.551 458.636 290.527 453.408 290.616 449.806Z"/><path fill="#80B6D0" d="M290.616 449.806L292.82 450.076C292.668 453.459 291.714 469.25 291.952 471.707C290.807 471.927 289.663 472.155 288.521 472.391C290.051 470.878 289.982 464.361 290.078 462.086C290.551 458.636 290.527 453.408 290.616 449.806Z"/><path fill="#80B6D0" d="M318.657 450.786L320.152 450.942C312.227 459.493 303.468 466.175 295.074 474.229L294.319 472.885C302.235 465.611 310.606 457.706 318.657 450.786Z"/><path fill="#0F2D42" d="M295.46 478.174C296.662 480.127 302.674 482.486 304.941 483.467C305.604 481.074 305.223 481.029 306.729 479.506C308.568 478.777 312.607 479.609 314.933 479.768C319.921 482.69 316.365 485.945 315.834 489.78C314.394 493.507 314.345 495.264 310.004 496.017C307.249 500.028 307.195 505.033 304.002 506.538C300.391 504.932 295.164 486.623 291.241 483.431C292.779 482.101 294.815 480.137 295.46 478.174Z"/><path fill="#80B6D0" d="M295.46 478.174C296.662 480.127 302.674 482.486 304.941 483.467C305.604 481.074 305.223 481.029 306.729 479.506C308.568 478.777 312.607 479.609 314.933 479.768C319.921 482.69 316.365 485.945 315.834 489.78C314.479 489.633 306.156 485.744 304.29 484.939C300.086 483.551 296.947 481.882 293.044 480.44C294.916 485.613 303.899 503.999 304.002 506.538C300.391 504.932 295.164 486.623 291.241 483.431C292.779 482.101 294.815 480.137 295.46 478.174Z"/><path fill="#847376" d="M304.941 483.467C305.604 481.074 305.223 481.029 306.729 479.506C308.568 478.777 312.607 479.609 314.933 479.768C319.921 482.69 316.365 485.945 315.834 489.78C314.777 487.251 307.818 484.737 304.941 483.467Z"/><path fill="#847376" d="M304.29 484.939C306.156 485.744 314.479 489.633 315.834 489.78C314.394 493.507 314.345 495.264 310.004 496.017C306.591 490.488 304.535 492.778 304.29 484.939Z"/><path fill="#18172F" d="M298.851 507.89C297.438 506.444 296.014 505.01 294.579 503.588L294.758 503.152C296.565 503.632 297.866 504.165 299.388 503.286C300.137 500.808 294.98 491.772 293.477 488.873L292.474 488.93L291.83 489.878C291.978 490.787 292.155 491.66 292.432 492.538L292.007 492.543C288.711 486.907 284.419 488.304 282.198 485.165C281.155 480.621 279.503 477.607 280.748 473.202C281.922 469.047 286.323 464.029 290.078 462.086C289.982 464.361 290.051 470.878 288.521 472.391C289.663 472.155 290.807 471.927 291.952 471.707C292.523 471.998 293.785 472.688 294.319 472.885L295.074 474.229C295.259 475.524 295.524 476.881 295.46 478.174C294.815 480.137 292.779 482.101 291.241 483.431C295.164 486.623 300.391 504.932 304.002 506.538C301.818 507.997 301.05 507.217 298.851 507.89Z"/><path fill="#93EDFA" d="M288.521 472.391C289.663 472.155 290.807 471.927 291.952 471.707C292.523 471.998 293.785 472.688 294.319 472.885L295.074 474.229C295.259 475.524 295.524 476.881 295.46 478.174C294.815 480.137 292.779 482.101 291.241 483.431C290.626 483.427 289.912 483.442 289.302 483.31C287.748 482.98 286.413 481.997 285.637 480.612C283.747 477.227 285.209 474.034 288.521 472.391Z"/><path fill="#0A0A14" d="M263.971 507.34C267.623 508.39 271.877 508.229 275.674 508.107L275.212 510.032C278.546 516.74 280.069 525.406 282.832 532.237C277.461 535.476 273.654 539.451 268.854 543.343L266.674 545.494C263.592 543.305 262.092 542.241 259.429 539.618C260.553 538.563 261.083 537.961 262.076 536.775C259.497 534.361 255.956 530.824 252.761 529.233C250.494 528.105 244.342 527.833 242.892 525.938C242.244 523.69 241.327 523.627 239.291 522.705C234.225 518.467 228.934 515.055 223.279 511.681C223.161 511.288 223.044 510.895 222.927 510.501C235.142 510.197 247.508 510.694 259.707 510.378C262.857 509.58 263.626 510.914 263.971 507.34Z"/><path fill="#D1A0A1" d="M262.076 536.775C264.85 539.172 266.521 540.551 268.854 543.343L266.674 545.494C263.592 543.305 262.092 542.241 259.429 539.618C260.553 538.563 261.083 537.961 262.076 536.775Z"/><path fill="#756FC8" d="M263.971 507.34C267.623 508.39 271.877 508.229 275.674 508.107L275.212 510.032C273.969 510.728 262.049 510.428 259.707 510.378C262.857 509.58 263.626 510.914 263.971 507.34Z"/><path fill="#1A1C2B" d="M227.018 463.19C229.271 462.49 228.67 462.321 230.624 462.851L231.627 463.934C232.365 467.026 234.55 473.099 236.794 475.293C236.133 477.579 236.001 477.953 234.047 479.406L233.854 479.865C232.195 480.98 230.038 482.336 228.481 483.51C222.662 487.336 208.82 496.17 204.029 499.888C194.664 495.688 191.391 490.266 188.187 481.01C190.546 479.081 194.913 478.417 196.066 475.573C198.367 476.101 201.303 474.361 203.489 473.365C211.271 469.823 219.144 466.519 227.018 463.19Z"/><path fill="#EFEFF0" d="M227.018 463.19C229.271 462.49 228.67 462.321 230.624 462.851L231.627 463.934C232.365 467.026 234.55 473.099 236.794 475.293C236.133 477.579 236.001 477.953 234.047 479.406C231.809 475.118 228.653 467.676 227.018 463.19Z"/><path fill="#EFEFF0" d="M240.264 414.373C245.794 420.161 250.235 425.677 255.277 431.895C258.096 427.044 258.776 424.049 260.204 418.581C261.4 420.183 262.461 421.778 263.941 423.109L264.537 425.095C264.718 426.198 265.471 428.596 265.803 429.776C262.103 436.548 260.346 441.894 257.886 449.132C250.942 442.387 241.267 428.117 233.694 421.651L233.459 420.736C237.758 420.121 238.492 417.954 240.264 414.373Z"/><path fill="#E99C9E" d="M231.627 463.934C239.887 456.547 247.29 452.582 259.125 451.815C260.196 451.746 260.19 451.946 260.828 452.524C259.5 455.254 254.404 456.88 251.499 458.09C255 465.304 255.856 471.152 246.707 473.383C244.578 473.902 238.101 474.641 236.794 475.293C234.55 473.099 232.365 467.026 231.627 463.934Z"/><path fill="#915C61" d="M247.956 486.051C256.145 478.679 261.748 476.867 272.517 478.503C270.945 483.134 269.402 487.775 267.889 492.426C263.864 492.251 261.164 492.383 257.254 493.583C248.201 496.362 247.752 494.385 247.956 486.051Z"/><path fill="#504ABF" d="M228.481 483.51C230.038 482.336 232.195 480.98 233.854 479.865C235.971 481.421 241.908 481.842 244.839 482.271C240.629 482.655 232.384 483.596 228.481 483.51Z"/><path fill="#18172F" d="M160.906 559.874L162.192 560.129C161.824 566.953 158.485 581.199 157.098 588.799C154.791 601.718 152.372 614.618 149.842 627.496C148.133 636.227 146.65 644.873 144.016 653.385C142.492 657.255 141.87 660.949 140.648 664.856C131.991 692.519 124.161 720.528 113.879 747.648C112.486 751.323 111.867 756.186 110.184 759.416C109.112 759.736 108.954 759.819 107.851 759.886C105.431 761.99 105.766 763.772 106.274 766.864C98.2041 768.062 96.004 767.284 88.8085 763.454C89.4994 760.745 90.2008 758.879 89.8716 756.11C87.6312 750.566 97.09 693.095 98.5301 683.668C99.6265 673.73 106.615 657.133 106.562 647.706C106.425 623.755 106.835 597.485 106.067 573.659C117.907 574.732 130.261 575.983 142.109 575.956C149.792 575.938 159.037 567.144 160.906 559.874Z"/><path fill="#E99C9E" d="M89.8716 756.11C93.0771 756.727 105.237 758.932 107.851 759.886C105.431 761.99 105.766 763.772 106.274 766.864C98.2041 768.062 96.004 767.284 88.8085 763.454C89.4994 760.745 90.2008 758.879 89.8716 756.11Z"/><path fill="#18172F" d="M836.018 570.517C847.658 571.669 872.381 569.325 884.167 566.934C886.521 618.267 879.442 670.611 878.222 722.056C878.159 724.719 875.51 759.034 875.646 758.728L873.493 759.776C869.115 760.266 863.527 760.199 859.034 760.266L854.979 759.135L844.258 657.628C843.091 647.422 842.258 633.426 840.666 623.844C840.014 620.321 839.452 611.792 838.97 607.78C837.477 595.342 836.211 583.059 836.018 570.517Z"/><path fill="#0A0A14" d="M162.192 560.129C164.201 559.704 172.621 560.52 174.629 560.975C175.644 564.302 175.904 574.976 176.214 579.095L178.507 606.175C178.796 609.915 180.293 614.93 180.335 618.277C180.463 628.64 182.438 640.064 182.571 650.206C182.757 664.418 181.847 678.985 181.199 693.169L179.127 742.857C178.964 746.209 179.482 757.457 178.513 759.48C177.445 760.294 177.393 760.199 176.05 760.491C173.614 760.752 161.821 761.537 160.36 761.866C159.957 761.812 158.481 761.553 158.376 761.046C154.488 743.064 151.74 724.337 149.379 706.167C148.186 696.986 147.639 658.65 144.016 653.385C146.65 644.873 148.133 636.227 149.842 627.496C152.372 614.618 154.791 601.718 157.098 588.799C158.485 581.199 161.824 566.953 162.192 560.129Z"/><path fill="#0A0A14" d="M225.186 380.985C225.719 379.132 226.5 376.452 226.705 374.583C227.247 368.498 232.581 367.933 237.049 365.468C238.479 364.68 242.185 361.091 243.445 360.574C252.18 356.99 269.996 361.629 275.246 369.557C276.744 371.82 276.639 378.276 277.502 380.99C278.654 384.32 283.225 389.67 285.391 392.803C284.563 401.007 282.468 402.165 286.278 409.802C285.924 410.616 284.821 413.151 284.215 413.546C280.479 415.982 271.252 420.321 267.289 421.868C266.179 422.297 265.062 422.711 263.941 423.109C262.461 421.778 261.4 420.183 260.204 418.581C258.776 424.049 258.096 427.044 255.277 431.895C250.235 425.677 245.794 420.161 240.264 414.373C238.492 417.954 237.758 420.121 233.459 420.736C230.251 418.784 227.984 415.825 225.332 414.187C218.503 409.966 216.885 412.683 213.68 404.081C216.317 401.342 217.246 400.087 219.438 396.95C219.313 388.29 217.176 386.063 225.186 380.985Z"/><path fill="#915C61" d="M243.052 374.509C245.155 374.473 247.956 374.148 249.932 374.903C253.238 376.166 255.293 379.708 258.498 381.348C261.922 383.099 267.211 382.723 270.022 385.169C272.009 386.899 272.398 391.221 272.429 393.723C272.608 407.887 258.52 411.476 260.204 418.581C258.776 424.049 258.096 427.044 255.277 431.895C250.235 425.677 245.794 420.161 240.264 414.373C241.418 409.203 239.919 409.43 237.841 405.083C235.823 400.865 229.228 395.054 231.349 390.297C233.342 389.805 234.011 392.869 237.375 387.399C239.805 383.449 241.133 378.694 243.052 374.509Z"/><path fill="#EFEFF0" d="M246.465 403.039C250.444 403.177 257.755 404.035 261.978 404.402L262.255 404.774L260.197 407.134C254.877 410.304 248.833 409.137 246.465 403.039Z"/><path fill="#341011" d="M244.938 413.956C249.575 414.63 252.28 416.461 257.624 414.44C258.46 414.124 258.185 414.226 259.08 414.691C253.896 417.694 249.736 417.514 244.938 413.956Z"/><path fill="#0A0A14" d="M245.923 386.476C246.635 386.665 247.037 386.893 247.712 387.197L247.616 387.674C245.81 388.258 243.996 388.816 242.174 389.349L241.448 389.735L241.378 389.028C243.098 387.276 243.549 387.204 245.923 386.476Z"/><path fill="#0A0A14" d="M246.169 390.9C247.833 391.055 249.018 391.643 250.123 392.868C248.672 393.251 249.349 393.108 247.583 392.574C246.807 392.478 245.226 393.037 243.446 393.056C243.957 391.813 244.696 391.764 246.169 390.9Z"/><path fill="#341011" d="M264.227 390.841C266.411 391.292 266.682 391.368 268.438 392.73L268.168 393.172L266.116 392.703C264.845 392.317 263.05 392.684 261.621 392.774C262.035 391.8 263.067 391.514 264.227 390.841Z"/><path fill="#0A0A14" d="M705.123 649.257C705.241 647.387 705.094 645.047 706.161 643.768C713.374 642.924 735.88 643.524 744.217 643.549C740.445 657.434 728.071 753.376 723.855 756.541C723.741 756.627 723.607 756.683 723.483 756.754C718.765 756.354 714.771 755.977 710.059 755.251L705.389 754.277C704.911 748.226 705.1 740.407 705.146 734.254C705.359 706.027 704.358 677.458 705.123 649.257Z"/><path fill="#0A0A14" d="M769.632 357.01C777.352 356.835 787.805 358.791 788.408 368.953C788.608 372.328 786.077 374.971 783.811 377.222C790.028 386.384 793.4 391.37 791.34 403.286C789.818 412.094 781.314 419.512 774.863 425.273C775.976 426.583 778.737 429.123 778.871 430.22C777.437 430.824 776.276 430.585 774.703 430.49C773.966 433.312 774.016 433.865 776.054 435.984C769.058 436.264 760.498 435.755 753.401 435.464C754.156 435.022 755.834 434.257 755.736 433.266C755.032 426.114 747.085 422.99 742.825 418.415C738.301 413.555 737.761 405.649 737.731 399.405L736.943 397.839C735.989 395.38 735.79 393.651 736.007 391.074C737.355 389.04 738.473 387.64 739.987 385.767C736.58 372.202 751.658 371.821 761.055 372.669C762.093 365.244 762.734 361.174 769.632 357.01Z"/><path fill="#E99C9E" d="M739.987 385.767C741.031 386.788 742.62 388.073 743.945 388.688C750.636 386.962 754.766 386.988 760.96 390.604L761.538 390.948C764.492 396.999 771.847 404.422 773.312 409.102C775.765 416.936 765.765 422.134 774.703 430.49C773.966 433.312 774.016 433.865 776.054 435.984C769.058 436.264 760.498 435.755 753.401 435.464C754.156 435.022 755.834 434.257 755.736 433.266C755.032 426.114 747.085 422.99 742.825 418.415C738.301 413.555 737.761 405.649 737.731 399.405L736.943 397.839C735.989 395.38 735.79 393.651 736.007 391.074C737.355 389.04 738.473 387.64 739.987 385.767Z"/><path fill="#0A0A14" d="M739.987 385.767C741.031 386.788 742.62 388.073 743.945 388.688C740.354 391.045 738.807 392.318 737.938 396.699C737.844 397.179 737.757 397.661 737.677 398.143L736.943 397.839C735.989 395.38 735.79 393.651 736.007 391.074C737.355 389.04 738.473 387.64 739.987 385.767Z"/><path fill="#341011" d="M737.677 398.143L738.345 398.006C740.895 397.468 741.912 396.53 745.001 397.207C743.934 397.418 738.897 399.004 737.731 399.405L736.943 397.839L737.677 398.143Z"/><path fill="#F5EAEA" d="M758.394 414.614L760.141 414.584L760.498 415.189C758.778 418.514 753.701 420.628 749.983 420.054C748.332 418.979 746.753 417.524 745.245 416.231C750.934 416.493 752.849 415.962 758.394 414.614Z"/><path fill="#CE5F68" d="M748.274 405.261C749.126 405.816 748.834 405.607 749.448 406.504C749.338 407.713 749.211 408.341 748.977 409.514C749.799 411.321 749.669 410.777 752.118 411.825C750.138 412.448 749.393 412.706 747.875 411.129C747.325 408.996 747.851 407.456 748.274 405.261Z"/><path fill="#0A0A14" d="M741.312 401.422C743.2 401.479 744.329 401.612 745.722 403.059C744.617 403.651 744.657 403.375 743.101 403.113C741.769 403.406 741.14 403.504 739.825 403.652L739.786 402.944L741.312 401.422Z"/><path fill="#341011" d="M755.327 397.182C758.971 396.627 761.147 397.452 764.078 399.52C762.064 399.435 757.194 398.102 755.327 397.182Z"/><path fill="#915C61" d="M807.293 370.194C818.978 367.065 819.763 362.738 829.832 358.811C832.433 357.796 839.31 357.658 842.483 357.54C847.536 360.621 846.783 363.371 853.094 364.185C855.696 364.521 860.516 372.374 860.529 374.736C863.678 385.198 856.545 397.788 857.242 406.07C858.615 410.773 859.547 414.166 861.552 418.679C855.933 422.408 849.994 426.872 844.415 430.377C842.109 427.738 841.45 426.037 840.039 424.346C838.874 421.238 837.771 417.928 836.67 414.782C835.027 415.31 830.404 416.924 829.032 416.615C817.581 414.034 836.027 407.05 831.283 402.272C830.141 402.227 821.996 405.997 819.854 406.84C817.82 405.121 816.872 403.944 814.055 403.905C813.284 402.84 813.973 398.695 814.149 397.118C814.643 392.688 814.564 388.48 814.573 384.037C806.951 380.908 804.803 378.708 807.293 370.194Z"/><path fill="#0A0A14" d="M807.293 370.194C818.978 367.065 819.763 362.738 829.832 358.811C832.433 357.796 839.31 357.658 842.483 357.54C847.536 360.621 846.783 363.371 853.094 364.185C855.696 364.521 860.516 372.374 860.529 374.736C863.678 385.198 856.545 397.788 857.242 406.07L856.125 403.951C854.709 401.232 854.441 401.066 852.244 398.936C852.229 395.078 855.318 383.371 847.596 385.562C846.127 387.078 845.814 388.415 845.067 390.383L838.032 386.757C837.143 384.971 836.314 381.989 834.799 380.772C828.771 375.933 822.16 383.979 814.573 384.037C806.951 380.908 804.803 378.708 807.293 370.194Z"/><path fill="#0A0A14" d="M154.067 405.154C153.646 404.554 153.243 403.941 152.86 403.317C148.476 396.095 146.448 382.545 148.433 374.414C149.976 368.092 152.643 368.268 157.045 365.58C158.695 364.165 161.047 361.559 163.036 360.706C174.705 355.698 183.56 361.062 193.47 366.577C200.447 370.46 204.461 368.165 201.53 380.31C201.045 382.321 197.95 383.383 196.525 383.881L195.899 384.093C198.57 389.684 195.023 395.381 196.31 401.502C196.329 401.592 196.545 403.702 196.562 403.846C194.888 404.571 189.428 407.385 188.463 407.596C188.336 409.231 188.575 411.744 188.054 413.059C183.154 417.618 178.686 416.456 172.672 415.079C171.514 417.481 170.582 419.189 169.943 421.812C166.079 419.238 154.727 411.494 150.917 410.08L154.067 405.154Z"/><path fill="#E99C9E" d="M180.353 382.328C186.454 383.522 189.675 383.982 195.899 384.093C198.57 389.684 195.023 395.381 196.31 401.502C196.329 401.592 196.545 403.702 196.562 403.846C194.888 404.571 189.428 407.385 188.463 407.596C188.336 409.231 188.575 411.744 188.054 413.059C183.154 417.618 178.686 416.456 172.672 415.079C171.514 417.481 170.582 419.189 169.943 421.812C166.079 419.238 154.727 411.494 150.917 410.08L154.067 405.154C157.315 401.961 160.05 399.64 162.498 395.781C161.508 393.341 159.563 389.12 162.95 387.213C166.702 385.101 169.154 388.73 170.917 391.528C175.318 389.03 177.169 386.206 180.353 382.328Z"/><path fill="#F5EAEA" d="M188.054 413.059C185.798 411.504 181.68 407.636 183.244 404.649C185.038 404.519 187.141 406.426 188.463 407.596C188.336 409.231 188.575 411.744 188.054 413.059Z"/><path fill="#E99C9E" d="M381.97 336.774C384.713 332.422 391.661 325.446 396.511 323.531C406.103 319.744 412.27 321.201 421.292 324.796C431.31 322.84 433.436 332.672 423.852 339.34C426.593 347.056 426.604 351.308 425.178 359.4C421.851 378.278 409.647 363.869 411.416 384.117C408.163 383.757 403.657 382.347 400.545 382.616C397.799 382.104 394.064 379.394 391.672 377.801C392.587 375.653 394.12 372.671 393.692 370.424C384.823 360.363 381.339 349.94 381.97 336.774Z"/><path fill="#0A0A14" d="M381.97 336.774C384.713 332.422 391.661 325.446 396.511 323.531C406.103 319.744 412.27 321.201 421.292 324.796C431.31 322.84 433.436 332.672 423.852 339.34C416.604 340.979 406.836 338.262 401.735 343.846C399.426 346.375 401.254 351.939 398.714 353.152C397.8 350.59 397.62 349.638 394.52 349.125C390.378 351.421 394.361 357.471 396.912 359.771C396.182 363.4 395.602 367.22 393.692 370.424C384.823 360.363 381.339 349.94 381.97 336.774Z"/><path fill="#0A0A14" d="M569.111 328.857C565.89 325.969 563.069 321.814 566.692 318.768C572.996 313.468 594.807 308.376 601.288 315.784C604.146 319.051 608.329 323.286 610.233 326.39C611.076 338.977 609.855 340.037 604.2 351.306C603.003 353.691 602.085 355.09 601.77 357.793C602.028 360.954 602.025 362.365 603.489 365.291L602.714 365.481C600.214 364.416 587.403 367.675 584.552 368.76C583.911 366.614 583.303 363.75 582.768 361.517C582.242 361.388 581.717 361.251 581.195 361.107C576.394 359.82 572.344 356.596 570.014 352.206C566.757 346.096 567.281 335.24 569.111 328.857Z"/><path fill="#915C61" d="M569.111 328.857C575.273 330.095 584.525 327.039 589.171 332.09C591.73 334.87 588.969 339.111 592.621 341.039C594.805 340.956 597.926 340.323 599.464 341.256C600.396 343.637 597.823 347.375 596.434 349.273C598.122 352.356 599.553 355.047 601.77 357.793C602.028 360.954 602.025 362.365 603.489 365.291L602.714 365.481C600.214 364.416 587.403 367.675 584.552 368.76C583.911 366.614 583.303 363.75 582.768 361.517C582.242 361.388 581.717 361.251 581.195 361.107C576.394 359.82 572.344 356.596 570.014 352.206C566.757 346.096 567.281 335.24 569.111 328.857Z"/><path fill="#0A0A14" d="M217.85 643.515C221.941 643.496 245.974 643.247 248.263 643.753C247.862 653.156 246.783 714.612 245.217 718.311L243.149 719.207C241.054 718.821 232.46 718.708 229.682 718.578C228.184 718.784 228.138 718.839 226.662 718.639C224.376 697.936 221.223 677.384 219.639 656.541C219.32 652.344 218.582 647.682 217.85 643.515Z"/><path fill="#0A0A14" d="M263.314 643.679C268.225 643.061 287.796 643.504 293.73 643.472C287.726 662.254 284.502 681.727 278.922 700.616C277.64 704.956 276.716 709.416 275.564 713.79C275.134 715.421 273.109 716.312 271.58 716.411C267.593 715.43 262.123 714.755 258.003 714.548L257.282 714.275C254.902 711.158 262.827 652.906 263.314 643.679Z"/><path fill="#18172F" d="M838.106 752.45C838.531 756.734 838.464 758.673 840.674 762.415L840.962 763.024C842.62 766.564 843.897 773.486 846.094 774.841C849.66 773.049 854.117 769.152 858.73 767.425C858.999 765.467 858.982 762.328 859.034 760.266C863.527 760.199 869.115 760.266 873.493 759.776C873.289 763.303 873.068 765.411 873.573 768.913C876.21 772.976 875.423 781.89 874.91 786.656C861.352 788.164 847.67 788.376 834.031 788.074C833.918 786.315 834.163 783.454 833.304 782.351C827.325 782.223 808.526 791.139 803.048 786.597C800.131 781.022 808.809 778.435 812.252 775.572C816.674 771.894 820.926 768.159 825.204 764.313C824.972 762.633 823.594 757.856 823.108 756.032C828.529 755.468 832.932 754.117 838.106 752.45Z"/><path fill="#915C61" d="M838.106 752.45C838.531 756.734 838.464 758.673 840.674 762.415C835.134 764.719 831.149 766.991 825.204 764.313C824.972 762.633 823.594 757.856 823.108 756.032C828.529 755.468 832.932 754.117 838.106 752.45Z"/><path fill="#915C61" d="M859.034 760.266C863.527 760.199 869.115 760.266 873.493 759.776C873.289 763.303 873.068 765.411 873.573 768.913C868.172 771.269 863.085 772.039 858.73 767.425C858.999 765.467 858.982 762.328 859.034 760.266Z"/><path fill="#0A0A14" d="M258.003 714.548C262.123 714.755 267.593 715.43 271.58 716.411C267.871 728.462 270.321 729.822 275.728 741.143C277.944 743.325 284.448 751.516 284.134 754.123C283.042 763.204 265.552 752.646 263.121 748.72C261.369 745.889 259.69 743.019 257.797 740.249C256.333 742.233 255.35 743.962 254.105 746.072C256.947 749.708 263.634 753.862 262.41 758.708C257.3 762.769 240.045 756.669 237.258 750.989C236.908 750.275 234.625 748.371 233.833 748.078L233.236 748.562C232.853 751.128 233.535 753.799 231.412 755.485C226.323 752.489 227.864 737.241 229.319 732.011C229.756 728.612 229.907 721.998 229.682 718.578C232.46 718.708 241.054 718.821 243.149 719.207C242.193 730.479 243.542 735.335 252.134 743.381C252.897 734.613 251.691 731.412 256.468 723.481C257.447 720.852 258.187 717.36 258.003 714.548Z"/><path fill="#915C61" d="M229.682 718.578C232.46 718.708 241.054 718.821 243.149 719.207C242.193 730.479 243.542 735.335 252.134 743.381C252.836 746.402 253.295 746.734 251.395 749.171C244.318 752.041 232.898 736.918 229.319 732.011C229.756 728.612 229.907 721.998 229.682 718.578Z"/><path fill="#915C61" d="M258.003 714.548C262.123 714.755 267.593 715.43 271.58 716.411C267.871 728.462 270.321 729.822 275.728 741.143C275.857 741.565 276.648 743.878 276.28 744.208C270.754 749.161 263.988 739.338 261.389 734.925C259.393 731.536 257.755 727.57 256.468 723.481C257.447 720.852 258.187 717.36 258.003 714.548Z"/><path fill="#0A0A14" d="M367.261 643.594C373.482 643.561 388.72 643.087 394.331 643.675C392.187 651.178 391.416 671.132 390.209 679.692C389.59 684.084 389.878 689.958 388.025 694.151C384.403 695.831 374.023 695.292 369.083 695.593C368.532 678.48 368.391 660.67 367.261 643.594Z"/><path fill="#18172F" d="M560.983 643.505C569.374 643.406 578.022 643.545 586.433 643.575C586.298 658.089 584.554 673.223 584.282 687.801C584.266 688.661 583.803 689.596 583.285 690.275C582.679 692.532 582.668 695.015 582.74 697.363C579.344 698.6 570.971 701.481 568.261 697.571C568.369 695.356 568.021 692.582 567.821 690.329L566.339 689.891C564.658 687.841 561.615 649.305 560.983 643.505Z"/><path fill="#915C61" d="M567.821 690.329L583.285 690.275C582.679 692.532 582.668 695.015 582.74 697.363C579.344 698.6 570.971 701.481 568.261 697.571C568.369 695.356 568.021 692.582 567.821 690.329Z"/><path fill="#0A0A14" d="M412.526 643.712C415.793 643.534 438.403 643.016 439.896 644.071C439.175 649.211 439.13 655.44 438.865 660.703L437.392 692.399C433.604 692.821 421.782 693.206 418.466 692.58C416.978 690.736 413.43 649.472 412.526 643.712Z"/><path fill="#18172F" d="M613.552 643.517C617.243 643.5 639.094 643.221 641.351 643.838C641.698 650.718 649.237 676.908 647.984 681.27L646.692 682.639C647.204 686.242 647.77 688.338 649.407 691.669C643.813 694.516 641.641 695.563 635.13 694.924C634.125 691.644 633.576 689.907 632.137 686.813L630.962 686.349C625.593 674.377 617.981 655.85 613.552 643.517Z"/><path fill="#915C61" d="M646.692 682.639C647.204 686.242 647.77 688.338 649.407 691.669C643.813 694.516 641.641 695.563 635.13 694.924C634.125 691.644 633.576 689.907 632.137 686.813C636.809 685.986 642.238 684.241 646.692 682.639Z"/><path fill="#385470" d="M654.083 469.396C656.285 468.171 696.864 468.473 701.85 468.684L701.851 468.964C698.649 468.951 697.09 472.541 695.321 475.123C694.036 476.747 692.907 478.736 690.967 479.111C691.842 480.102 692.167 480.611 693.358 481.224C693.776 482.326 694.069 482.878 694.249 484.045C692.661 487.876 690.875 488.402 686.828 487.943C685.817 487.282 685.702 487.311 685.018 486.345L684.224 488.28C682.832 489.872 681.065 492.024 679.619 493.489C675.223 498.664 675.179 499.447 668.941 501.815C667.636 499.89 664.808 492.844 664.135 490.605L663.87 489.958L662.993 489.102L662.639 488.979C661.948 485.363 658.825 480.118 656.934 476.881C656.433 475.391 655.914 473.909 655.377 472.432C655.132 471.023 654.79 470.61 654.083 469.396Z"/><defs><linearGradient id="gradient_6" gradientUnits="userSpaceOnUse" x1="668.99609" y1="460.84753" x2="682.97321" y2="481.84134"><stop offset="0" stop-color="#3B373E"/><stop offset="1" stop-color="#454A67"/></linearGradient></defs><path fill="url(#gradient_6)" d="M654.083 469.396C656.285 468.171 696.864 468.473 701.85 468.684L701.851 468.964C698.649 468.951 697.09 472.541 695.321 475.123C692.013 474.907 688.467 474.756 685.219 474.21C679.833 476.361 671.298 482.672 665.467 485.278C664.507 485.707 663.589 488.206 662.993 489.102L662.639 488.979C661.948 485.363 658.825 480.118 656.934 476.881C656.433 475.391 655.914 473.909 655.377 472.432C655.132 471.023 654.79 470.61 654.083 469.396Z"/><path fill="#385470" d="M664.135 490.605C667.277 490.356 673.167 488.771 676.276 487.95C678.284 488.625 678.691 488.592 679.869 490.205C680.294 491.925 680.198 491.888 679.619 493.489C675.223 498.664 675.179 499.447 668.941 501.815C667.636 499.89 664.808 492.844 664.135 490.605Z"/><path fill="#93EDFA" d="M663.87 489.958C666.553 489.034 682.09 485.622 683.55 484.292C685.899 482.153 683.041 478.256 690.967 479.111C691.842 480.102 692.167 480.611 693.358 481.224C693.776 482.326 694.069 482.878 694.249 484.045C692.661 487.876 690.875 488.402 686.828 487.943C685.817 487.282 685.702 487.311 685.018 486.345L684.224 488.28C682.832 489.872 681.065 492.024 679.619 493.489C680.198 491.888 680.294 491.925 679.869 490.205C678.691 488.592 678.284 488.625 676.276 487.95C673.167 488.771 667.277 490.356 664.135 490.605L663.87 489.958Z"/><path fill="#3D6986" d="M676.276 487.95C679.58 487.174 681.659 486.669 685.018 486.345L684.224 488.28C682.832 489.872 681.065 492.024 679.619 493.489C680.198 491.888 680.294 491.925 679.869 490.205C678.691 488.592 678.284 488.625 676.276 487.95Z"/><path fill="#0A0A14" d="M160.36 761.866C161.821 761.537 173.614 760.752 176.05 760.491C176.528 763.258 177.128 766.188 178.783 768.539C183.518 771.438 202.573 779.713 203.926 783.897C203.122 785.566 203.128 785.478 201.693 786.702C191.02 788.527 171.254 787.354 160.366 786.717C154.959 786.401 159.611 772.148 160.575 768.957C161 766.481 161.058 764.265 160.36 761.866Z"/><path fill="#E99C9E" d="M160.36 761.866C161.821 761.537 173.614 760.752 176.05 760.491C176.528 763.258 177.128 766.188 178.783 768.539C178.185 768.819 177.585 769.094 176.983 769.365C169.851 772.559 167.456 771.604 160.575 768.957C161 766.481 161.058 764.265 160.36 761.866Z"/><path fill="#0A0A14" d="M772.714 756.225C777.439 756.523 783.335 756.297 787.549 756.655C787.378 760.619 787.073 766.368 787.7 770.189C788.753 775.046 788.369 776.628 788.002 781.566C781.424 783.743 750.073 792.926 746.522 786.441C746.644 785.152 746.9 783.704 748.097 783.013C753.344 779.984 763.161 772.587 768.188 770.768C769.591 770.582 771.138 769.508 772.422 768.76C773.064 764.381 773.052 760.605 772.714 756.225Z"/><path fill="#915C61" d="M772.714 756.225C777.439 756.523 783.335 756.297 787.549 756.655C787.378 760.619 787.073 766.368 787.7 770.189C782.18 773.715 780.346 775.253 773.939 776.862C771.579 774.66 770.292 773.22 768.188 770.768C769.591 770.582 771.138 769.508 772.422 768.76C773.064 764.381 773.052 760.605 772.714 756.225Z"/><path fill="#E99C9E" d="M507.337 467.206C509.105 471.015 510.85 474.835 512.573 478.665C508.86 480.432 507.681 481.422 505.172 484.698C501.967 489.332 499.583 491.726 493.942 493.425C487.77 493.43 479.988 492.853 479.097 485.086C477.109 482.774 473.321 481.772 470.369 482.011C470.475 480.459 473.912 471.664 474.733 470.039C479.671 470.217 486.24 470.953 490.734 469.382C496.538 469.511 503.084 470.88 507.337 467.206Z"/><path fill="#915C61" d="M507.337 467.206C509.105 471.015 510.85 474.835 512.573 478.665C508.86 480.432 507.681 481.422 505.172 484.698C500.664 480.51 497.412 478.208 492.216 474.941C489.998 476.199 487.036 478.399 484.493 477.339L484.3 476.67C485.777 472.439 488.464 472.232 490.734 469.382C496.538 469.511 503.084 470.88 507.337 467.206Z"/><path fill="#915C61" d="M479.097 485.086C485.354 480.947 490.555 487.705 492.928 492.978L493.942 493.425C487.77 493.43 479.988 492.853 479.097 485.086Z"/><path fill="#0A0A14" d="M710.059 755.251C714.771 755.977 718.765 756.354 723.483 756.754C722.653 759.43 722.324 766.438 722.9 769.24C723.682 773.132 723.519 776.298 723.517 780.241C714.579 781.183 688.692 788.01 681.391 782.405C681.016 781.464 680.593 780.797 681.4 779.696C684.635 775.286 699.64 768.91 704.358 767.392C705.91 766.857 707.763 765.859 709.275 765.118C709.518 761.827 709.779 758.539 710.059 755.251Z"/><path fill="#915C61" d="M710.059 755.251C714.771 755.977 718.765 756.354 723.483 756.754C722.653 759.43 722.324 766.438 722.9 769.24C717.433 772.386 715.958 773.234 709.857 774.332C708.142 772.425 705.988 769.494 704.358 767.392C705.91 766.857 707.763 765.859 709.275 765.118C709.518 761.827 709.779 758.539 710.059 755.251Z"/><path fill="#0A0A14" d="M106.274 766.864C109.052 768.902 112.091 773.706 114.92 776.167C118.428 779.218 127.321 782.921 127.536 787.895C122.783 794.427 93.0724 783.791 86.2429 781.536C79.9372 779.454 86.9452 766.809 88.8085 763.454C96.004 767.284 98.2041 768.062 106.274 766.864Z"/><path fill="#393A4C" d="M584.23 712.427C578.905 712.745 546.335 718.43 546.182 710.001C548.197 706.997 562.59 701.153 567.737 697.906L568.261 697.571C570.971 701.481 579.344 698.6 582.74 697.363C583.684 702.969 584.444 706.719 584.23 712.427Z"/><path fill="#393A4C" d="M649.407 691.669C651.288 694.374 653.109 700.81 653.651 704.123C652.078 707.881 623.434 718.144 618.439 714.045C617.206 709.09 631.622 699.976 635.13 694.924C641.641 695.563 643.813 694.516 649.407 691.669Z"/><path fill="#0A0A14" d="M385.784 699.273C389.786 701.873 410.279 711.009 407.581 715.354C404.428 716.865 395.499 716.07 391.625 715.93C389.327 716.006 370.563 715.365 370.311 712.847C370.035 710.077 370.707 702.1 372.232 699.8C377.497 702.854 380.298 701.443 385.784 699.273Z"/><path fill="#0A0A14" d="M443.212 713.503C438.555 713.562 422.775 713.232 419.323 711.021C418.462 709.024 418.515 699.389 421.01 698.117C425.918 699.824 429.473 697.753 434.303 697.751C436.008 697.751 439.887 699.726 442.175 700.363L442.657 700.493C443.605 704.29 442.724 709.386 443.212 713.503Z"/><path fill="#393A4C" fill-opacity="0.011764706" d="M631.986 364.789L633.829 364.894C634.831 366.188 634.523 366.295 634.739 368.232C636.358 368.144 636.872 368.008 638.416 368.58C638.708 372.321 636.714 370.711 635.536 372.713L636.267 373.448C637.48 373.197 637.944 373.085 639.172 373.024C640.067 374.914 640.262 377.721 638.146 378.795L636.631 378.012C634.626 378.295 634.472 378.408 632.796 377.468C630.496 374.154 633.035 373.141 631.789 368.701L629.167 367.828C629.095 366.446 629.012 367.115 629.661 365.848C632.458 366.74 630.586 367.715 633.31 367.952L634.02 367.313C632.39 366.365 632.925 366.765 631.986 364.789Z"/></svg>