<?xml version="1.0" encoding="utf-8" ?><svg xmlns="http://www.w3.org/2000/svg" xmlns:xlink="http://www.w3.org/1999/xlink" width="1152" height="896" viewBox="0 0 1152 896"><path fill="#E7E6E6" d="M801.653 356.419C808.465 356.577 815.28 356.615 822.093 356.53C825.224 356.588 828.414 356.469 831.549 356.388C834.106 356.84 835.716 361.391 838.304 362.511C850.052 367.593 867.155 371.018 874.708 382.031C879.027 388.328 880.305 395.504 882.224 402.998C885.986 426.641 892.54 451.798 894.576 475.668C895.383 485.13 887.841 490.696 880.437 495.251L880.654 496.049C882.835 503.889 890.516 516.212 887.56 522.804C881.523 524.838 875.329 526.374 869.041 527.397C869.268 533.482 870.283 540.318 865.558 544.824C860.972 549.197 851.977 553.46 846.157 556.577C847.086 563.449 846.625 584.631 846.59 592.337L846.672 597.376C846.695 602.585 846.409 614.001 846.81 618.677C846.91 620.485 847.022 628.004 847.481 629.019C847.035 629.745 846.83 629.827 846.763 630.552C847.39 635.962 847.186 644.364 847.176 650.042L847.108 680.57C847.079 700.391 847.983 725.595 847.212 744.848L835.917 751.538L824.038 745.133C825.361 714.196 823.511 679.748 823.62 648.596C824.518 646.593 824.071 607.789 824.07 603.64C811.239 607.197 797.47 611.163 784.533 614.229C777.807 616.184 763.823 618.357 760.098 624.635C759.631 625.422 759.319 627.561 759.178 628.543L759.479 629.044C758.916 629.653 758.268 630.281 757.823 630.962C757.297 633.669 756.026 637.737 754.998 640.332C758.344 648.795 776.975 701.234 775.822 705.651C770.154 713.747 763.723 716.818 754.386 719.901C750.718 720.132 748.895 719.318 746.667 716.261C741.354 708.97 736.608 701.108 731.445 693.694C725.063 706.819 718.52 720.744 711.992 733.749L706.626 734.675C696.83 733.832 690.476 730.928 682.122 726.374L681.114 725.07C679.974 719.316 694.643 666.613 697.55 657.13L699.108 650.498C696.823 648.219 695.247 644.661 693.874 641.774C691.696 642.998 684.468 647.274 682.547 648.012L681.458 648.633C664.495 658.172 644.635 668.665 628.253 678.577L623.342 681.123C606.616 690.638 585.887 702.974 568.743 711.576C568.838 729.14 570.044 887.657 568.402 891.951C566.75 893.123 566.356 893.317 564.495 894.154L561.48 896L556.416 896L552.394 896C550.244 894.611 547.869 893.403 545.607 892.186C544.723 832.678 545.669 771.026 545.564 711.308C540.358 707.922 532.563 703.8 526.994 700.663L492.044 680.903L490.108 679.964C468.654 667.663 447.102 655.533 425.455 643.574C413.502 636.965 396.965 628.391 385.773 621.04C387.024 620.185 398.778 614.834 401.066 613.732C404.389 611.624 431.225 598.602 433.616 598.621C434.924 597.217 436.105 596.325 437.585 595.129C439.152 594.332 440.731 593.384 442.263 592.506C439.228 592.31 437.863 594.078 435.147 593.054C434.055 589.486 432.756 586.64 431.265 583.244C430.199 580.945 428.399 577.858 427.148 575.562L425.873 573.407C421.978 572.008 379.439 586.234 369.956 586.98C367.56 583.198 359.443 566.334 359.422 562.085C359.071 557.472 355.45 547.266 353.909 542.663C357.64 543.482 370.559 533.747 376.797 532.522C383.592 531.187 382.826 531.408 389.859 531.712C414.507 518.855 440.63 503.861 465.077 490.241L574.166 429.841C585.173 423.768 624.173 400.61 633.637 398.291C639.386 396.865 645.397 396.871 651.143 398.309C662.544 401.119 692.815 419.846 704.376 426.816C707.769 425.687 721.533 419.377 724.281 417.659C727.85 415.429 735.896 406.956 739.201 403.598C747.894 394.726 756.542 385.81 765.143 376.849C777.168 364.419 780.696 361.241 798.451 359.67C800.138 359.521 800.883 357.725 801.653 356.419ZM740.424 446.877C750.777 451.497 760.724 457.198 770.605 462.691C774.595 464.908 784.013 470.704 787.806 472.107C787.015 467.429 785.004 456.082 783.08 452.45C777.094 441.149 768.912 437.768 770.56 423.313C764.657 428.531 746.577 443.42 740.424 446.877Z"/><path fill="#484A58" d="M853.567 508.867C859.058 511.596 867.034 514.393 868.568 520.809C868.947 523.511 869.008 524.694 869.041 527.397C869.268 533.482 870.283 540.318 865.558 544.824C860.972 549.197 851.977 553.46 846.157 556.577C847.086 563.449 846.625 584.631 846.59 592.337L846.672 597.376C846.695 602.585 846.409 614.001 846.81 618.677C846.91 620.485 847.022 628.004 847.481 629.019C847.035 629.745 846.83 629.827 846.763 630.552C847.39 635.962 847.186 644.364 847.176 650.042L847.108 680.57C847.079 700.391 847.983 725.595 847.212 744.848L835.917 751.538L824.038 745.133C825.361 714.196 823.511 679.748 823.62 648.596C824.518 646.593 824.071 607.789 824.07 603.64C811.239 607.197 797.47 611.163 784.533 614.229C777.807 616.184 763.823 618.357 760.098 624.635C759.631 625.422 759.319 627.561 759.178 628.543L759.479 629.044C758.916 629.653 758.268 630.281 757.823 630.962C757.297 633.669 756.026 637.737 754.998 640.332C758.344 648.795 776.975 701.234 775.822 705.651C770.154 713.747 763.723 716.818 754.386 719.901C750.718 720.132 748.895 719.318 746.667 716.261C741.354 708.97 736.608 701.108 731.445 693.694C725.063 706.819 718.52 720.744 711.992 733.749L706.626 734.675C696.83 733.832 690.476 730.928 682.122 726.374L681.114 725.07C679.974 719.316 694.643 666.613 697.55 657.13L699.108 650.498C696.823 648.219 695.247 644.661 693.874 641.774C691.696 642.998 684.468 647.274 682.547 648.012L681.458 648.633C664.495 658.172 644.635 668.665 628.253 678.577L623.342 681.123C606.616 690.638 585.887 702.974 568.743 711.576C568.838 729.14 570.044 887.657 568.402 891.951C566.75 893.123 566.356 893.317 564.495 894.154L561.48 896L556.416 896L552.394 896C550.244 894.611 547.869 893.403 545.607 892.186C544.723 832.678 545.669 771.026 545.564 711.308C540.358 707.922 532.563 703.8 526.994 700.663L492.044 680.903L490.108 679.964C468.654 667.663 447.102 655.533 425.455 643.574C413.502 636.965 396.965 628.391 385.773 621.04C387.024 620.185 398.778 614.834 401.066 613.732C404.389 611.624 431.225 598.602 433.616 598.621C434.924 597.217 436.105 596.325 437.585 595.129C439.152 594.332 440.731 593.384 442.263 592.506C439.228 592.31 437.863 594.078 435.147 593.054C434.055 589.486 432.756 586.64 431.265 583.244C430.199 580.945 428.399 577.858 427.148 575.562C429.417 573.27 431.786 570.993 434.091 568.729C437.807 564.346 443.493 553.379 449.583 555.426L450.01 555.172C452.612 556.307 455.865 557.83 458.494 558.723L461.175 556.36L462.763 555.953C464.219 556.754 468.814 559.352 470.245 559.366C471.539 560.732 472.013 561.06 472.73 562.748L472.415 565.905C471.638 570.547 471.158 572.832 469.873 577.292C473.813 578.351 474.91 578.927 478.564 580.848C480.454 579.258 483.058 575.207 483.766 572.85C485.277 573.704 489.925 576.451 491.269 576.953C499.143 581.497 507.371 585.774 515.345 590.276C523.397 594.524 530.76 599.088 539.017 603.139L542.744 604.936L543.212 603.967C544.713 603.997 545.329 604.129 546.766 604.397C550.891 606.339 586.212 625.839 587.595 627.411C591.199 626.463 593.11 625.118 596.35 623.243C607.648 616.247 620.638 609.502 632.362 603.16C634.157 601.45 647.036 594.725 650.267 592.911C669.016 582.164 687.917 571.686 706.966 561.479C712.736 557.887 721.565 553.426 727.609 549.826C733.289 546.443 747.477 537.974 753.187 536.009C754.102 536.762 754.91 537.474 755.918 538.104C775.296 546.705 788.999 536.028 805.264 526.259L805.661 528.124L806.681 528.541C808.78 528.062 810.682 527.281 812.681 526.498C826.511 521.084 839.877 514.611 853.567 508.867Z"/><path fill="#3D3E49" d="M868.568 520.809C868.947 523.511 869.008 524.694 869.041 527.397C869.268 533.482 870.283 540.318 865.558 544.824C860.972 549.197 851.977 553.46 846.157 556.577C847.086 563.449 846.625 584.631 846.59 592.337L846.672 597.376C846.695 602.585 846.409 614.001 846.81 618.677C846.91 620.485 847.022 628.004 847.481 629.019C847.035 629.745 846.83 629.827 846.763 630.552C847.39 635.962 847.186 644.364 847.176 650.042L847.108 680.57C847.079 700.391 847.983 725.595 847.212 744.848L835.917 751.538L824.038 745.133C825.361 714.196 823.511 679.748 823.62 648.596C824.518 646.593 824.071 607.789 824.07 603.64C811.239 607.197 797.47 611.163 784.533 614.229C777.807 616.184 763.823 618.357 760.098 624.635C759.631 625.422 759.319 627.561 759.178 628.543L759.479 629.044C758.916 629.653 758.268 630.281 757.823 630.962C757.297 633.669 756.026 637.737 754.998 640.332C758.344 648.795 776.975 701.234 775.822 705.651C770.154 713.747 763.723 716.818 754.386 719.901C750.718 720.132 748.895 719.318 746.667 716.261C741.354 708.97 736.608 701.108 731.445 693.694C725.063 706.819 718.52 720.744 711.992 733.749L706.626 734.675C696.83 733.832 690.476 730.928 682.122 726.374L681.114 725.07C679.974 719.316 694.643 666.613 697.55 657.13L699.108 650.498C696.823 648.219 695.247 644.661 693.874 641.774C691.696 642.998 684.468 647.274 682.547 648.012L681.458 648.633C664.495 658.172 644.635 668.665 628.253 678.577L623.342 681.123C606.616 690.638 585.887 702.974 568.743 711.576C568.838 729.14 570.044 887.657 568.402 891.951C566.75 893.123 566.356 893.317 564.495 894.154L561.48 896L556.416 896L552.394 896C550.244 894.611 547.869 893.403 545.607 892.186C544.723 832.678 545.669 771.026 545.564 711.308C540.358 707.922 532.563 703.8 526.994 700.663L492.044 680.903L490.108 679.964C468.654 667.663 447.102 655.533 425.455 643.574C413.502 636.965 396.965 628.391 385.773 621.04C387.024 620.185 398.778 614.834 401.066 613.732C405.479 617.637 420.802 625.692 426.543 628.893L473.339 654.995L516.619 679.339C534.485 689.468 551.926 703.839 573.051 693.414C587.688 686.19 601.307 677.58 615.587 669.816C661.989 644.323 708.175 618.438 754.139 592.162L828.959 550.459C840.485 544.075 855.725 536.095 866.713 528.54C868.747 527.141 868.509 523.305 868.568 520.809Z"/><path fill="#695DF4" d="M703.141 636.86C707.415 633.881 718.107 628.31 722.893 625.653L759.256 605.309L802.184 581.163C808.716 577.521 817.224 572.429 823.855 569.353C824.022 580.781 824.094 592.21 824.07 603.64C811.239 607.197 797.47 611.163 784.533 614.229C777.807 616.184 763.823 618.357 760.098 624.635C759.631 625.422 759.319 627.561 759.178 628.543L759.479 629.044C758.916 629.653 758.268 630.281 757.823 630.962C757.297 633.669 756.026 637.737 754.998 640.332C758.344 648.795 776.975 701.234 775.822 705.651C770.154 713.747 763.723 716.818 754.386 719.901C750.718 720.132 748.895 719.318 746.667 716.261C741.354 708.97 736.608 701.108 731.445 693.694C725.063 706.819 718.52 720.744 711.992 733.749L706.626 734.675C696.83 733.832 690.476 730.928 682.122 726.374L681.114 725.07C679.974 719.316 694.643 666.613 697.55 657.13L699.108 650.498C696.823 648.219 695.247 644.661 693.874 641.774L698.082 639.936L703.141 636.86Z"/><path fill="#6253C3" d="M731.445 693.694C732.153 691.504 735.694 684.906 736.867 682.707C744.505 668.386 750.129 655.728 754.998 640.332C758.344 648.795 776.975 701.234 775.822 705.651C770.154 713.747 763.723 716.818 754.386 719.901C750.718 720.132 748.895 719.318 746.667 716.261C741.354 708.97 736.608 701.108 731.445 693.694Z"/><path fill="#7567D8" d="M698.082 639.936L703.141 636.86C700.605 643.837 702.966 652.327 697.55 657.13L699.108 650.498C696.823 648.219 695.247 644.661 693.874 641.774L698.082 639.936Z"/><path fill="#6253C3" d="M693.874 641.774L698.082 639.936C698.22 643.575 699.052 647.959 699.108 650.498C696.823 648.219 695.247 644.661 693.874 641.774Z"/><path fill="#46435A" d="M846.59 592.337C845.197 587.965 845.206 561.099 846.157 556.577C847.086 563.449 846.625 584.631 846.59 592.337Z"/><path fill="#1A1A26" d="M623.342 681.123C619.927 678.767 618.374 680.601 615.541 678.324C617.89 676.427 625.365 677.414 628.253 678.577L623.342 681.123Z"/><path fill="#1A1A26" d="M681.458 648.633L680.884 648.438C676.796 647.099 671.942 647.981 670.105 647.175C671.481 645.152 679.112 645.513 681.221 646.288C682.276 646.676 682.066 646.997 682.547 648.012L681.458 648.633Z"/><path fill="#1A1A26" d="M490.108 679.964C492.187 678.229 493.582 677.437 496.326 677.884L496.337 678.744C494.625 679.995 494.062 680.124 492.044 680.903L490.108 679.964Z"/><path fill="#F9AD89" d="M434.091 568.729C437.807 564.346 443.493 553.379 449.583 555.426L450.01 555.172C452.612 556.307 455.865 557.83 458.494 558.723L461.175 556.36L462.763 555.953C464.219 556.754 468.814 559.352 470.245 559.366C471.539 560.732 472.013 561.06 472.73 562.748L472.415 565.905C471.638 570.547 471.158 572.832 469.873 577.292C468.852 578.592 468.878 578.062 468.764 579.332C467.035 584.269 459.046 586.639 454.395 588.531C450.178 586.776 445.958 590.448 442.263 592.506C439.228 592.31 437.863 594.078 435.147 593.054C434.055 589.486 432.756 586.64 431.265 583.244C430.199 580.945 428.399 577.858 427.148 575.562C429.417 573.27 431.786 570.993 434.091 568.729Z"/><path fill="#F4BEA7" d="M434.091 568.729C435.282 571.253 433.566 581.102 431.265 583.244C430.199 580.945 428.399 577.858 427.148 575.562C429.417 573.27 431.786 570.993 434.091 568.729Z"/><path fill="#35222F" d="M450.01 555.172C452.612 556.307 455.865 557.83 458.494 558.723C455.919 560.5 452.221 562.247 449.357 563.704L449.583 555.426L450.01 555.172Z"/><path fill="#695DF4" d="M468.764 579.332C470.914 580.244 477.122 582.979 478.723 584.57C480.962 587.433 484.528 588.559 484.562 591.773C482.346 595.86 481.292 595.748 479.699 598.243C477.981 599.341 476.694 600.166 474.869 601.102C471.085 603.255 462.146 608.571 458.32 609.87C454.319 607.393 440.192 600.421 438.693 597.314C438.527 596.275 438.21 596.062 437.585 595.129C439.152 594.332 440.731 593.384 442.263 592.506C445.958 590.448 450.178 586.776 454.395 588.531C459.046 586.639 467.035 584.269 468.764 579.332Z"/><path fill="#7567D8" d="M458.32 609.87C466.743 601.434 460.947 602.643 474.869 601.102C471.085 603.255 462.146 608.571 458.32 609.87Z"/><path fill="#E7E6E6" d="M442.263 592.506C445.958 590.448 450.178 586.776 454.395 588.531C448.845 591.455 444.059 594.076 438.693 597.314C438.527 596.275 438.21 596.062 437.585 595.129C439.152 594.332 440.731 593.384 442.263 592.506Z"/><path fill="#6253C3" d="M753.187 536.009C754.102 536.762 754.91 537.474 755.918 538.104C740.929 544.568 724.027 556.432 708.966 563.406C685.185 577.231 661.172 590.655 636.939 603.672C630.369 607.166 631.814 608.678 623.127 612.242C617.832 614.302 602.256 623.106 596.656 626.083L596.35 623.243C607.648 616.247 620.638 609.502 632.362 603.16C634.157 601.45 647.036 594.725 650.267 592.911C669.016 582.164 687.917 571.686 706.966 561.479C712.736 557.887 721.565 553.426 727.609 549.826C733.289 546.443 747.477 537.974 753.187 536.009Z"/><path fill="#F3F2F7" d="M469.873 577.292C473.813 578.351 474.91 578.927 478.564 580.848C483.246 583.55 492.632 588.545 496.482 591.605C490.968 595.28 464.167 610.2 458.381 612.595C452.576 609.762 438.812 602.159 433.616 598.621C434.924 597.217 436.105 596.325 437.585 595.129C438.21 596.062 438.527 596.275 438.693 597.314C440.192 600.421 454.319 607.393 458.32 609.87C462.146 608.571 471.085 603.255 474.869 601.102C476.694 600.166 477.981 599.341 479.699 598.243C481.292 595.748 482.346 595.86 484.562 591.773C484.528 588.559 480.962 587.433 478.723 584.57C477.122 582.979 470.914 580.244 468.764 579.332C468.878 578.062 468.852 578.592 469.873 577.292Z"/><path fill="#7567D8" d="M478.723 584.57C483.141 586.692 486.993 589.195 491.146 591.777C487.914 593.622 482.904 596.701 479.699 598.243C481.292 595.748 482.346 595.86 484.562 591.773C484.528 588.559 480.962 587.433 478.723 584.57Z"/><path fill="#7567D8" d="M542.744 604.936L543.212 603.967C544.713 603.997 545.329 604.129 546.766 604.397C550.891 606.339 586.212 625.839 587.595 627.411C591.199 626.463 593.11 625.118 596.35 623.243L596.656 626.083C594.301 627.595 589.169 631.737 586.609 630.501C572.143 621.563 556.265 614.618 542.744 604.936Z"/><path fill="#46435A" d="M515.345 590.276C523.397 594.524 530.76 599.088 539.017 603.139C530.288 603.312 529.153 600.08 521.141 594.999C517.702 595.329 515.481 596.033 513.033 593.225C514.338 592.158 514.825 591.888 515.345 590.276Z"/><path fill="#E7E6E6" d="M502.167 594.963C505.431 595.552 525.67 606.699 526.782 609.298C524.363 612.608 495.813 628.02 490.184 630.857C486.398 630.126 468.455 619.081 464.553 616.415C473.409 610.369 491.833 600.952 502.167 594.963Z"/><path fill="#7567D8" d="M500.818 598.865C504.557 598.852 516.281 606.876 520.128 609.318L516.088 612.278C514.265 612.206 497.936 602.928 497.51 601.454L500.818 598.865Z"/><path fill="#CFCECE" d="M489.995 605.078C493.857 605.437 505.305 611.632 508.55 614.156C505.131 614.664 492.885 607.5 489.995 605.078Z"/><path fill="#CFCECE" d="M485.614 608.54C489.07 608.522 502.751 615.436 504.339 618.024C500.142 617.399 489.792 610.998 485.614 608.54Z"/><path fill="#CFCECE" d="M482.606 611.326C486.105 611.663 495.919 619.044 501.619 621.513C496.31 621.505 486.249 614.891 482.606 611.326Z"/><path fill="#080812" d="M801.653 356.419C808.465 356.577 815.28 356.615 822.093 356.53C825.224 356.588 828.414 356.469 831.549 356.388C834.106 356.84 835.716 361.391 838.304 362.511C850.052 367.593 867.155 371.018 874.708 382.031C879.027 388.328 880.305 395.504 882.224 402.998C885.986 426.641 892.54 451.798 894.576 475.668C895.383 485.13 887.841 490.696 880.437 495.251L880.654 496.049C882.835 503.889 890.516 516.212 887.56 522.804C881.523 524.838 875.329 526.374 869.041 527.397C869.008 524.694 868.947 523.511 868.568 520.809C867.034 514.393 859.058 511.596 853.567 508.867C839.877 514.611 826.511 521.084 812.681 526.498C810.682 527.281 808.78 528.062 806.681 528.541L805.661 528.124L805.264 526.259C788.999 536.028 775.296 546.705 755.918 538.104C754.91 537.474 754.102 536.762 753.187 536.009C752.51 534.705 751.228 532.93 750.378 531.673C750.627 529.72 750.55 529.639 749.815 527.753C744.959 524.649 741.332 522.466 736.207 519.84L718.325 509.979C713.787 506.843 703.734 501.751 698.525 498.932C696.862 498.432 682.814 490.215 680.497 488.879C678.108 487.848 664.566 478.82 662.327 477.027L662.899 475.867L664.414 474.493L666.157 471.816L666.819 470.156C667.72 468.925 668.636 467.705 669.564 466.494C671.012 464.618 672.442 462.554 674.891 462.24C677.842 457.412 672.653 447.726 669.086 443.95L669.009 442.501C672.14 439.255 698.606 428.828 704.376 426.816C707.769 425.687 721.533 419.377 724.281 417.659C727.85 415.429 735.896 406.956 739.201 403.598C747.894 394.726 756.542 385.81 765.143 376.849C777.168 364.419 780.696 361.241 798.451 359.67C800.138 359.521 800.883 357.725 801.653 356.419ZM740.424 446.877C750.777 451.497 760.724 457.198 770.605 462.691C774.595 464.908 784.013 470.704 787.806 472.107C787.015 467.429 785.004 456.082 783.08 452.45C777.094 441.149 768.912 437.768 770.56 423.313C764.657 428.531 746.577 443.42 740.424 446.877Z"/><path fill="#484A58" d="M740.424 446.877C750.777 451.497 760.724 457.198 770.605 462.691C774.595 464.908 784.013 470.704 787.806 472.107C799.09 478.256 810.248 484.636 821.271 491.242C815.838 494.73 798.117 505.462 794.935 509.378C799.249 511.463 802.469 514.259 804.128 518.966C804.931 521.312 805.316 523.781 805.264 526.259C788.999 536.028 775.296 546.705 755.918 538.104C754.91 537.474 754.102 536.762 753.187 536.009C752.51 534.705 751.228 532.93 750.378 531.673C750.627 529.72 750.55 529.639 749.815 527.753C744.959 524.649 741.332 522.466 736.207 519.84L718.325 509.979C713.787 506.843 703.734 501.751 698.525 498.932C696.862 498.432 682.814 490.215 680.497 488.879C678.108 487.848 664.566 478.82 662.327 477.027L662.899 475.867L664.414 474.493L666.157 471.816L666.819 470.156C667.72 468.925 668.636 467.705 669.564 466.494C671.012 464.618 672.442 462.554 674.891 462.24L675.707 462.692C682.568 462.883 732.61 450.1 740.424 446.877Z"/><path fill="#F9AD89" d="M794.935 509.378C799.249 511.463 802.469 514.259 804.128 518.966C804.931 521.312 805.316 523.781 805.264 526.259C788.999 536.028 775.296 546.705 755.918 538.104C754.91 537.474 754.102 536.762 753.187 536.009C752.51 534.705 751.228 532.93 750.378 531.673C750.627 529.72 750.55 529.639 749.815 527.753C751.044 526.636 753.086 525.396 754.524 524.439L759.529 523.252C764.595 522.193 767.905 521.035 772.669 519.166C769.431 518.523 762.913 517.722 763.286 513.524C768.744 506.052 786.907 513.846 794.935 509.378Z"/><path fill="#F3F2F7" d="M664.414 474.493C667.902 476.514 681.77 484.731 684.664 485.78C689.582 489.049 708.055 499.302 713.765 502.131L751.097 522.789L754.524 524.439C753.086 525.396 751.044 526.636 749.815 527.753C744.959 524.649 741.332 522.466 736.207 519.84L718.325 509.979C713.787 506.843 703.734 501.751 698.525 498.932C696.862 498.432 682.814 490.215 680.497 488.879C678.108 487.848 664.566 478.82 662.327 477.027L662.899 475.867L664.414 474.493Z"/><path fill="#7567D8" d="M684.664 485.78L685.441 485.457C683.698 484.012 683.348 483.895 681.261 482.915C686.98 482.995 686.744 486.363 691.314 486.236C698.438 489.968 705.501 493.813 712.501 497.771C713.851 498.527 719.184 501.288 720.015 501.886C721.166 503.155 743.364 514.626 746.888 516.618C748.232 518.382 750.308 520.822 751.097 522.789L713.765 502.131C708.055 499.302 689.582 489.049 684.664 485.78Z"/><path fill="#6253C3" d="M664.414 474.493L666.157 471.816C669.2 474.646 685.008 481.301 691.314 486.236C686.744 486.363 686.98 482.995 681.261 482.915C683.348 483.895 683.698 484.012 685.441 485.457L684.664 485.78C681.77 484.731 667.902 476.514 664.414 474.493Z"/><path fill="#7C71BC" d="M746.888 516.618L759.529 523.252L754.524 524.439L751.097 522.789C750.308 520.822 748.232 518.382 746.888 516.618Z"/><path fill="#E7E6E6" d="M732.137 455.512C735.41 456.59 754.695 467.847 758.102 470.106C753.87 473.541 726.723 488.157 719.985 492.016C716.085 490.669 696.818 480.381 694.702 477.282C698.08 473.245 725.819 458.427 732.137 455.512Z"/><path fill="#695DF4" d="M730.594 458.56C733.399 459.597 734.848 460.327 737.502 461.713C742.663 464.41 747.68 466.956 752.417 470.385C748.385 473.117 745.85 474.796 741.45 477.063C735.085 480.794 726.353 486.149 719.675 489.166C717.718 488.016 714.947 486.488 713.138 485.252C708.012 482.475 703.758 480.406 699.388 476.537C705.923 472.012 715.397 467.206 722.568 463.434C725.233 461.792 727.908 460.167 730.594 458.56Z"/><path fill="#6253C3" d="M713.138 485.252L714.258 484.249C717.652 483.782 721.585 483.945 724.857 483.256C729.538 482.27 736.714 475.755 741.45 477.063C735.085 480.794 726.353 486.149 719.675 489.166C717.718 488.016 714.947 486.488 713.138 485.252Z"/><path fill="#6253C3" d="M730.594 458.56C733.399 459.597 734.848 460.327 737.502 461.713C730.875 463.431 729.35 463.506 722.568 463.434C725.233 461.792 727.908 460.167 730.594 458.56Z"/><path fill="#E7E6E6" d="M751.57 480.591C758.382 476.432 761.347 472.837 768.917 476.727C772.433 478.695 785.26 485.646 787.787 487.994C787.338 489.581 787.236 489.236 785.67 490.524L780.71 493.148C771.704 497.095 761.996 505.721 750.786 509.691C746.893 507.856 727.935 498.467 727.133 495.273C729.799 491.995 747.149 482.605 751.57 480.591Z"/><path fill="#F3F2F7" d="M751.57 480.591C758.382 476.432 761.347 472.837 768.917 476.727C767.308 480.59 755.623 480.518 751.57 480.591Z"/><path fill="#6253C3" d="M737.955 491.644C741.346 493.069 753.474 499.834 755.877 502.32C755.258 503.513 753.332 504.354 751.98 505.18C748.855 504.797 736.738 496.882 733.661 494.921L737.955 491.644Z"/><path fill="#CFCECE" d="M754.887 484.23C759.118 484.991 767.508 489.73 770.27 493.472C766.232 492.694 757.755 487.208 754.887 484.23Z"/><path fill="#CFCECE" d="M746.276 490.569C749.612 490.839 759.916 497.211 762.141 499.506C759.027 498.979 748.155 492.959 746.276 490.569Z"/><path fill="#CFCECE" d="M749.73 487.575C753.04 487.623 757.492 490.77 760.279 492.559L760.546 493.835C758.067 493.256 751.96 489.124 749.73 487.575Z"/><path fill="#3D3E49" d="M785.67 490.524C787.442 491.286 787.483 491.326 788.493 493.031L788.45 494.508C785.94 496.677 782.263 495.783 780.71 493.148L785.67 490.524Z"/><path fill="#484A58" d="M389.859 531.712C414.507 518.855 440.63 503.861 465.077 490.241L574.166 429.841C585.173 423.768 624.173 400.61 633.637 398.291C639.386 396.865 645.397 396.871 651.143 398.309C662.544 401.119 692.815 419.846 704.376 426.816C698.606 428.828 672.14 439.255 669.009 442.501L669.086 443.95C658.319 447.068 646.276 449.284 639.253 458.155C638.948 458.639 638.26 459.636 638.105 460.116C637.522 461.088 636.569 462.854 635.831 463.57C634.837 466.6 634.725 468.391 634.375 471.549C634.688 475.431 634.982 478.595 635.584 482.433L633.298 482.699C631.478 481.109 626.022 478.401 623.742 477.343L606.533 467.473C604.413 468.148 603.669 468.386 601.73 469.45C596.902 471.948 592.212 474.703 587.498 477.413C581.001 480.915 574.541 484.484 568.118 488.119C563.496 490.609 553.031 496.675 548.603 498.607C544.459 500.966 534.095 506.483 530.612 508.979C524.501 512.419 518.114 515.518 512.134 519.045C506.997 522.324 497.515 526.268 493.489 529.502L487.865 532.514C484.081 534.667 480.228 536.928 476.363 538.913L476.029 538.795C470.133 542.336 464.317 546.01 458.586 549.813C460.514 550.826 462.844 552.161 464.851 552.889C464.322 554.635 464.166 554.68 462.763 555.953L461.175 556.36L458.494 558.723C455.865 557.83 452.612 556.307 450.01 555.172L449.583 555.426C443.493 553.379 437.807 564.346 434.091 568.729C431.786 570.993 429.417 573.27 427.148 575.562L425.873 573.407C421.978 572.008 379.439 586.234 369.956 586.98C367.56 583.198 359.443 566.334 359.422 562.085C359.071 557.472 355.45 547.266 353.909 542.663C357.64 543.482 370.559 533.747 376.797 532.522C383.592 531.187 382.826 531.408 389.859 531.712Z"/><path fill="#F3F2F7" d="M605.593 442.337L611.09 445.082L638.105 460.116C637.522 461.088 636.569 462.854 635.831 463.57C634.837 466.6 634.725 468.391 634.375 471.549C634.688 475.431 634.982 478.595 635.584 482.433L633.298 482.699C631.478 481.109 626.022 478.401 623.742 477.343L606.533 467.473C604.413 468.148 603.669 468.386 601.73 469.45C596.902 471.948 592.212 474.703 587.498 477.413C581.001 480.915 574.541 484.484 568.118 488.119C563.496 490.609 553.031 496.675 548.603 498.607C544.459 500.966 534.095 506.483 530.612 508.979C524.501 512.419 518.114 515.518 512.134 519.045C506.997 522.324 497.515 526.268 493.489 529.502L487.865 532.514C484.081 534.667 480.228 536.928 476.363 538.913L476.029 538.795C470.133 542.336 464.317 546.01 458.586 549.813C460.514 550.826 462.844 552.161 464.851 552.889C464.322 554.635 464.166 554.68 462.763 555.953L461.175 556.36L458.494 558.723C455.865 557.83 452.612 556.307 450.01 555.172C444.491 550.428 433.639 545.288 427.001 540.715C427.884 540.25 430.109 539.89 431.272 539.615C432.392 538.74 434.273 537.601 435.516 536.79L434.636 533.599C437.603 531.99 440.579 530.399 443.565 528.825C451.842 523.916 460.439 519.339 468.89 514.702C479.404 508.933 492.729 499.988 503.511 495.581L508.059 495.992C519.737 490.179 536.679 480.402 547.95 473.77C554.372 470.393 560.71 466.859 566.958 463.169C579.994 456.428 592.649 449.25 605.593 442.337Z"/><path fill="#CFCECE" d="M476.093 519.026C479.68 516.342 490.221 510.76 494.293 508.771C499.977 513.254 506.535 515.157 512.134 519.045C506.997 522.324 497.515 526.268 493.489 529.502L487.865 532.514C484.081 534.667 480.228 536.928 476.363 538.913L476.029 538.795C471 536.538 465.064 533.094 460.354 530.211L458.264 529.057C463.119 526.238 468.043 523.539 473.031 520.962L476.093 519.026Z"/><path fill="#080812" d="M476.093 519.026C477.927 520.312 481.301 521.838 482.253 522.552C485.255 524.272 491.051 527.4 493.489 529.502L487.865 532.514C484.081 534.667 480.228 536.928 476.363 538.913L476.029 538.795C471 536.538 465.064 533.094 460.354 530.211L458.264 529.057C463.119 526.238 468.043 523.539 473.031 520.962L476.093 519.026Z"/><path fill="#1A1A26" d="M460.354 530.211L461.578 530.317C474.63 531.433 472.469 521.596 487.865 532.514C484.081 534.667 480.228 536.928 476.363 538.913L476.029 538.795C471 536.538 465.064 533.094 460.354 530.211Z"/><path fill="#1A1A26" d="M476.093 519.026C477.927 520.312 481.301 521.838 482.253 522.552C480.424 524.622 479.448 525.401 476.687 525.016C473.935 523.234 475.034 522.824 473.031 520.962L476.093 519.026Z"/><path fill="#080812" d="M623.949 457.345C627.754 459.14 632.548 462.151 635.831 463.57C634.837 466.6 634.725 468.391 634.375 471.549C634.688 475.431 634.982 478.595 635.584 482.433L633.298 482.699C631.478 481.109 626.022 478.401 623.742 477.343L606.533 467.473L605.752 466.66C610.691 463.905 618.932 459.293 623.949 457.345Z"/><path fill="#6253C3" d="M634.375 471.549C634.688 475.431 634.982 478.595 635.584 482.433L633.298 482.699C631.478 481.109 626.022 478.401 623.742 477.343C627.352 475.572 631.113 473.882 634.375 471.549Z"/><path fill="#695DF4" d="M605.51 447.141C610.656 449.888 619.379 455.345 623.949 457.345C618.932 459.293 610.691 463.905 605.752 466.66L606.533 467.473C604.413 468.148 603.669 468.386 601.73 469.45C599.008 465.212 591.824 464.758 591.304 459.059L588.102 456.77C593.97 453.68 599.774 450.47 605.51 447.141Z"/><path fill="#C1C1D2" d="M591.304 459.059C593.947 460.529 603.545 466.111 605.752 466.66L606.533 467.473C604.413 468.148 603.669 468.386 601.73 469.45C599.008 465.212 591.824 464.758 591.304 459.059Z"/><path fill="#CFCECE" d="M531.647 488.432C535.692 486.341 547.431 478.678 550.702 477.823C556.227 481.166 562.833 484.678 568.118 488.119C563.496 490.609 553.031 496.675 548.603 498.607C546.237 496.748 542.93 494.999 540.26 493.481C537.488 491.567 534.596 490.049 531.647 488.432Z"/><defs><linearGradient id="gradient_0" gradientUnits="userSpaceOnUse" x1="509.56665" y1="516.37317" x2="514.01715" y2="501.66763"><stop offset="0" stop-color="#020306"/><stop offset="1" stop-color="#0C0D1D"/></linearGradient></defs><path fill="url(#gradient_0)" d="M512.899 498.647C515.586 500.069 518.683 501.616 521.221 503.218C524.776 505.076 527.363 506.577 530.612 508.979C524.501 512.419 518.114 515.518 512.134 519.045C506.535 515.157 499.977 513.254 494.293 508.771C498.497 506.584 502.664 504.33 506.794 502.007C508.428 500.911 511.093 499.603 512.899 498.647Z"/><path fill="#010101" d="M512.899 498.647C515.586 500.069 518.683 501.616 521.221 503.218C516.899 505.631 510.55 505.307 506.794 502.007C508.428 500.911 511.093 499.603 512.899 498.647Z"/><path fill="#010101" d="M569.004 467.373C570.557 468.315 576.452 471.732 577.577 472.634C580.699 474.226 584.271 476.169 587.498 477.413C581.001 480.915 574.541 484.484 568.118 488.119C562.833 484.678 556.227 481.166 550.702 477.823C552.281 476.813 554.151 475.769 555.785 474.803C560.29 472.257 564.378 469.787 569.004 467.373Z"/><path fill="#080812" d="M569.004 467.373C570.557 468.315 576.452 471.732 577.577 472.634C573.974 475.553 579.342 480.903 568.989 480.371C562.803 480.053 559.323 475.756 555.785 474.803C560.29 472.257 564.378 469.787 569.004 467.373Z"/><path fill="#695DF4" d="M439.82 539.167C445.35 536.489 452.627 532.113 458.264 529.057L460.354 530.211C465.064 533.094 471 536.538 476.029 538.795C470.133 542.336 464.317 546.01 458.586 549.813C452.934 546.146 445.845 542.643 439.82 539.167Z"/><path fill="#695DF4" d="M531.647 488.432C534.596 490.049 537.488 491.567 540.26 493.481C542.93 494.999 546.237 496.748 548.603 498.607C544.459 500.966 534.095 506.483 530.612 508.979C527.363 506.577 524.776 505.076 521.221 503.218C518.683 501.616 515.586 500.069 512.899 498.647C515.956 496.934 519.477 495.236 522.626 493.63L531.647 488.432Z"/><path fill="#6253C3" d="M531.647 488.432C534.596 490.049 537.488 491.567 540.26 493.481C535.891 493.686 525.748 495.342 522.626 493.63L531.647 488.432Z"/><path fill="#CFCECE" d="M569.004 467.373C575.115 464.806 580.536 459.971 588.102 456.77L591.304 459.059C591.824 464.758 599.008 465.212 601.73 469.45C596.902 471.948 592.212 474.703 587.498 477.413C584.271 476.169 580.699 474.226 577.577 472.634C576.452 471.732 570.557 468.315 569.004 467.373Z"/><path fill="#7567D8" d="M503.511 495.581L508.059 495.992C487.978 506.272 465.576 520.117 445.068 531.172L443.565 528.825C451.842 523.916 460.439 519.339 468.89 514.702C479.404 508.933 492.729 499.988 503.511 495.581Z"/><path fill="#6253C3" d="M427.001 540.715C427.884 540.25 430.109 539.89 431.272 539.615L461.175 556.36L458.494 558.723C455.865 557.83 452.612 556.307 450.01 555.172C444.491 550.428 433.639 545.288 427.001 540.715Z"/><path fill="#7C71BC" d="M434.636 533.599C437.603 531.99 440.579 530.399 443.565 528.825L445.068 531.172C441.966 532.968 438.509 534.871 435.516 536.79L434.636 533.599Z"/><path fill="#F9AD89" d="M389.859 531.712C395.255 533.316 397.148 533.89 401.824 536.915C401.032 541.61 400.53 542.425 403.05 546.428C394.607 548.959 389.817 547.116 380.107 551.454C384.891 551.822 386.973 551.468 390.754 554.284L391.175 555.415C388.242 560.966 366.206 559.213 359.422 562.085C359.071 557.472 355.45 547.266 353.909 542.663C357.64 543.482 370.559 533.747 376.797 532.522C383.592 531.187 382.826 531.408 389.859 531.712Z"/><path fill="#695DF4" d="M401.824 536.915C405.088 536.429 407.243 535.894 410.353 536.954C411.376 538.042 411.276 538.002 411.626 539.475C416.868 546.76 413.727 556.242 414.576 560.892C416.18 569.918 402.524 568.162 399.572 564.909C396.976 562.048 402.204 551.485 402.954 547.032L403.05 546.428C400.53 542.425 401.032 541.61 401.824 536.915Z"/><path fill="#4B4A80" d="M411.626 539.475C416.868 546.76 413.727 556.242 414.576 560.892C413.411 556.527 410.842 551.649 409.911 547.46C409.816 547.03 412.191 543.818 411.626 539.475Z"/><path fill="#7567D8" d="M605.112 438.292L611.222 441.621L611.09 445.082L605.593 442.337C592.649 449.25 579.994 456.428 566.958 463.169C560.71 466.859 554.372 470.393 547.95 473.77C546.89 473.174 546.395 472.442 545.607 471.517C552.545 467.91 558.861 464.848 565.366 460.465C568.7 456.916 575.091 455.318 579.449 452.953C588.105 448.255 596.751 443.504 605.112 438.292Z"/><path fill="#6253C3" d="M545.607 471.517C546.395 472.442 546.89 473.174 547.95 473.77C536.679 480.402 519.737 490.179 508.059 495.992L503.511 495.581C512.986 490.712 536.805 477.185 545.607 471.517Z"/><path fill="#6253C3" d="M611.222 441.621C617.742 444.953 634.16 453.322 639.253 458.155C638.948 458.639 638.26 459.636 638.105 460.116L611.09 445.082L611.222 441.621Z"/><path fill="#7567D8" d="M427.001 540.715C425.446 539.689 425.675 540.292 425.391 539.046C427.584 536.878 431.769 535.046 434.636 533.599L435.516 536.79C434.273 537.601 432.392 538.74 431.272 539.615C430.109 539.89 427.884 540.25 427.001 540.715Z"/><path fill="#F3F2F7" d="M750.378 531.673C751.228 532.93 752.51 534.705 753.187 536.009C747.477 537.974 733.289 546.443 727.609 549.826C721.565 553.426 712.736 557.887 706.966 561.479C687.917 571.686 669.016 582.164 650.267 592.911C647.036 594.725 634.157 601.45 632.362 603.16C620.638 609.502 607.648 616.247 596.35 623.243C593.11 625.118 591.199 626.463 587.595 627.411C586.212 625.839 550.891 606.339 546.766 604.397C545.329 604.129 544.713 603.997 543.212 603.967L542.744 604.936L539.017 603.139C530.76 599.088 523.397 594.524 515.345 590.276C507.371 585.774 499.143 581.497 491.269 576.953C489.925 576.451 485.277 573.704 483.766 572.85C483.058 575.207 480.454 579.258 478.564 580.848C474.91 578.927 473.813 578.351 469.873 577.292C471.158 572.832 471.638 570.547 472.415 565.905L472.73 562.748C472.013 561.06 471.539 560.732 470.245 559.366C468.814 559.352 464.219 556.754 462.763 555.953C464.166 554.68 464.322 554.635 464.851 552.889C462.844 552.161 460.514 550.826 458.586 549.813C464.317 546.01 470.133 542.336 476.029 538.795L476.363 538.913C479.029 541.712 492.36 548.214 496.475 550.826C501.612 553.608 508.589 557.124 513.071 560.58C518.28 563.016 523.311 565.816 528.127 568.959L530.661 570.18L532.35 570.917C536.283 573.059 542.903 577.027 546.683 578.739C546.114 580.798 545.635 583.593 544.262 585.038L533.315 591.306C537.066 594.425 547.61 600.255 552.258 601.58L558.657 605.043C562.345 607.333 566.088 609.535 569.881 611.646C576.008 608.657 581.98 604.89 588.2 601.754L589.165 602.147L606.695 611.909C611.764 609.842 620.254 604.613 625.009 601.727C631.068 598.465 637.299 594.835 643.32 591.451C649.356 588.292 655.3 584.958 661.143 581.454C659.461 579.58 659.044 579.304 656.917 577.932L657.3 576.563C661.405 575.222 666.692 571.96 670.325 569.605L671.019 569.3C672.431 568.51 674.086 567.761 675.556 567.054C678.428 565.713 680.18 564.617 682.875 562.929C682.705 559.704 682.199 554.083 683.54 551.26L682.558 550.594C688.882 546.838 693.448 543.528 700.208 539.811C704.356 542.219 714.209 547.653 717.568 550.222C722.38 547.1 730.849 542.812 736.18 539.896C740.915 537.769 745.921 534.439 750.378 531.673Z"/><path fill="#3D3E49" d="M476.029 538.795L476.363 538.913C479.029 541.712 492.36 548.214 496.475 550.826C501.612 553.608 508.589 557.124 513.071 560.58C506.872 563.846 502.002 566.504 496.139 570.384C490.679 567.812 483.642 563.827 478.157 560.943C476.041 559.771 473.911 558.623 471.769 557.5L470.245 559.366C468.814 559.352 464.219 556.754 462.763 555.953C464.166 554.68 464.322 554.635 464.851 552.889C462.844 552.161 460.514 550.826 458.586 549.813C464.317 546.01 470.133 542.336 476.029 538.795Z"/><path fill="#080812" d="M478.157 560.943C480.769 556.988 491.76 551.908 496.475 550.826C501.612 553.608 508.589 557.124 513.071 560.58C506.872 563.846 502.002 566.504 496.139 570.384C490.679 567.812 483.642 563.827 478.157 560.943Z"/><path fill="#F4BEA7" d="M464.851 552.889C469.305 552.144 468.863 555.881 471.769 557.5L470.245 559.366C468.814 559.352 464.219 556.754 462.763 555.953C464.166 554.68 464.322 554.635 464.851 552.889Z"/><path fill="#CFCECE" d="M513.071 560.58C518.28 563.016 523.311 565.816 528.127 568.959L530.661 570.18L532.35 570.917C527.954 573.332 518.714 578.315 514.872 581.188C511.915 580.638 499.253 572.431 496.139 570.384C502.002 566.504 506.872 563.846 513.071 560.58Z"/><path fill="#080812" d="M588.2 601.754L589.165 602.147L606.695 611.909L588.582 622.102C582.324 618.661 576.09 615.175 569.881 611.646C576.008 608.657 581.98 604.89 588.2 601.754Z"/><path fill="#CFCECE" d="M682.558 550.594C688.882 546.838 693.448 543.528 700.208 539.811C704.356 542.219 714.209 547.653 717.568 550.222C713.259 552.717 703.476 558.631 699.271 560.409C695.811 557.998 687.45 553.502 683.54 551.26L682.558 550.594Z"/><path fill="#080812" d="M532.35 570.917C536.283 573.059 542.903 577.027 546.683 578.739C546.114 580.798 545.635 583.593 544.262 585.038L533.315 591.306L514.872 581.188C518.714 578.315 527.954 573.332 532.35 570.917Z"/><path fill="#010101" d="M683.54 551.26C687.45 553.502 695.811 557.998 699.271 560.409C692.732 563.845 686.732 567.192 680.309 570.785L675.556 567.054C678.428 565.713 680.18 564.617 682.875 562.929C682.705 559.704 682.199 554.083 683.54 551.26Z"/><path fill="#7567D8" d="M491.941 573.93C508.214 582.945 524.638 591.658 540.757 600.958C542.665 602.059 545 603.127 546.766 604.397C545.329 604.129 544.713 603.997 543.212 603.967L542.744 604.936L539.017 603.139C530.76 599.088 523.397 594.524 515.345 590.276C507.371 585.774 499.143 581.497 491.269 576.953L491.941 573.93Z"/><path fill="#CFCECE" d="M671.019 569.3C672.431 568.51 674.086 567.761 675.556 567.054L680.309 570.785C676.981 572.642 663.661 580.456 661.143 581.454C659.461 579.58 659.044 579.304 656.917 577.932L657.3 576.563C661.405 575.222 666.692 571.96 670.325 569.605L671.019 569.3Z"/><path fill="#46435A" d="M472.415 565.905C475.926 569.016 479.606 570.702 483.766 572.85C483.058 575.207 480.454 579.258 478.564 580.848C474.91 578.927 473.813 578.351 469.873 577.292C471.158 572.832 471.638 570.547 472.415 565.905Z"/><path fill="#6253C3" d="M472.73 562.748C479.093 566.557 485.633 570.109 491.941 573.93L491.269 576.953C489.925 576.451 485.277 573.704 483.766 572.85C479.606 570.702 475.926 569.016 472.415 565.905L472.73 562.748Z"/><path fill="#695DF4" d="M718.325 509.979L736.207 519.84C741.332 522.466 744.959 524.649 749.815 527.753C750.55 529.639 750.627 529.72 750.378 531.673C745.921 534.439 740.915 537.769 736.18 539.896C730.849 542.812 722.38 547.1 717.568 550.222C714.209 547.653 704.356 542.219 700.208 539.811C705.845 536.934 713.091 533.159 718.238 529.618C712.122 526.157 705.988 522.729 699.835 519.335C706.369 515.446 711.389 512.929 718.325 509.979Z"/><path fill="#695DF4" d="M718.325 509.979L736.207 519.84C732.29 522.068 721.086 527.658 718.537 529.814L718.238 529.618C712.122 526.157 705.988 522.729 699.835 519.335C706.369 515.446 711.389 512.929 718.325 509.979Z"/><path fill="#080812" d="M736.207 519.84C741.332 522.466 744.959 524.649 749.815 527.753C750.55 529.639 750.627 529.72 750.378 531.673C745.921 534.439 740.915 537.769 736.18 539.896C733.255 538.634 723.214 532.201 718.537 529.814C721.086 527.658 732.29 522.068 736.207 519.84Z"/><path fill="#F9AD89" d="M669.086 443.95C672.653 447.726 677.842 457.412 674.891 462.24C672.442 462.554 671.012 464.618 669.564 466.494C668.636 467.705 667.72 468.925 666.819 470.156L666.157 471.816L664.414 474.493L662.899 475.867L662.327 477.027L661.791 477.246C659.588 479.461 656.069 484.309 653.051 482.593C651.946 480.538 652.074 479.353 651.941 477.025C653.154 475.778 653.069 475.775 653.664 474.091C652.958 472.054 652.48 472.132 650.685 470.605C644.469 472.686 644.174 472.988 640.221 478.929C638.742 481.153 637.727 481.125 635.584 482.433C634.982 478.595 634.688 475.431 634.375 471.549C634.725 468.391 634.837 466.6 635.831 463.57C636.569 462.854 637.522 461.088 638.105 460.116C638.26 459.636 638.948 458.639 639.253 458.155C646.276 449.284 658.319 447.068 669.086 443.95Z"/><path fill="#F4BEA7" d="M650.685 470.605C655.513 466.711 659.391 473.529 663.11 466.148C663.502 465.372 667.054 465.308 668.638 464.652C668.166 466.437 668.638 465.725 667.161 466.854C667.02 467.902 666.792 469.125 666.819 470.156L666.157 471.816L664.414 474.493L662.899 475.867L662.327 477.027L661.791 477.246C659.588 479.461 656.069 484.309 653.051 482.593C651.946 480.538 652.074 479.353 651.941 477.025C653.154 475.778 653.069 475.775 653.664 474.091C652.958 472.054 652.48 472.132 650.685 470.605Z"/><path fill="#695DF4" d="M650.685 470.605C652.48 472.132 652.958 472.054 653.664 474.091C653.069 475.775 653.154 475.778 651.941 477.025C652.074 479.353 651.946 480.538 653.051 482.593C656.069 484.309 659.588 479.461 661.791 477.246L662.327 477.027C664.566 478.82 678.108 487.848 680.497 488.879C674.459 491.698 668.598 494.882 662.947 498.414C660.637 497.337 658.515 497.315 655.962 497.049C653.093 498.661 642.974 504.37 640.105 505.353C635.743 507.744 635.45 507.046 631.543 504.488C631.599 499.218 631.205 489.699 632.044 484.2C632.538 483.608 632.956 483.108 633.298 482.699L635.584 482.433C637.727 481.125 638.742 481.153 640.221 478.929C644.174 472.988 644.469 472.686 650.685 470.605Z"/><defs><linearGradient id="gradient_1" gradientUnits="userSpaceOnUse" x1="651.10291" y1="487.11371" x2="630.44879" y2="490.01379"><stop offset="0" stop-color="#553885"/><stop offset="1" stop-color="#4A4C95"/></linearGradient></defs><path fill="url(#gradient_1)" d="M650.685 470.605C652.48 472.132 652.958 472.054 653.664 474.091C653.069 475.775 653.154 475.778 651.941 477.025C647.068 481.609 642.248 483.065 636.299 486.021C636.234 491.125 635.926 499.183 636.442 503.996C638.281 505.509 638.542 504.203 640.105 505.353C635.743 507.744 635.45 507.046 631.543 504.488C631.599 499.218 631.205 489.699 632.044 484.2C632.538 483.608 632.956 483.108 633.298 482.699L635.584 482.433C637.727 481.125 638.742 481.153 640.221 478.929C644.174 472.988 644.469 472.686 650.685 470.605Z"/><path fill="#CFCECE" d="M661.791 477.246L662.327 477.027C664.566 478.82 678.108 487.848 680.497 488.879C674.459 491.698 668.598 494.882 662.947 498.414C660.637 497.337 658.515 497.315 655.962 497.049L662.122 493.7C662.128 489.206 662.324 481.4 661.791 477.246Z"/><path fill="#695DF4" d="M669.162 513.805C677.408 518.011 689.304 524.832 697.208 529.69C693.379 532.378 681.36 537.662 679.744 540.627C675.464 539.484 669.387 543.919 664.607 545.867C666.095 544.736 671.247 541.148 671.817 539.886C666.044 541.183 665.433 542.517 661.961 543.616C658.639 540.146 645.653 535.254 639.929 529.826C646.069 526.165 662.951 516.695 669.162 513.805Z"/><path fill="#3D3E49" d="M661.961 543.616C665.433 542.517 666.044 541.183 671.817 539.886C671.247 541.148 666.095 544.736 664.607 545.867C669.387 543.919 675.464 539.484 679.744 540.627L680.465 541.825C683.914 544.311 682.183 546.649 682.558 550.594L683.54 551.26C682.199 554.083 682.705 559.704 682.875 562.929C680.18 564.617 678.428 565.713 675.556 567.054C674.086 567.761 672.431 568.51 671.019 569.3L670.325 569.605C666.692 571.96 661.405 575.222 657.3 576.563L657.044 576.089C652.199 573.54 652.357 572.602 652.507 567.473L652.503 553.3C658.274 548.882 660.126 551.578 661.961 543.616Z"/><path fill="#1A1A26" d="M661.961 543.616C665.433 542.517 666.044 541.183 671.817 539.886C671.247 541.148 666.095 544.736 664.607 545.867C669.387 543.919 675.464 539.484 679.744 540.627L680.465 541.825C674.649 546.569 663.147 551.365 656.909 555.209C657.104 559.843 658.321 572.968 657.044 576.089C652.199 573.54 652.357 572.602 652.507 567.473L652.503 553.3C658.274 548.882 660.126 551.578 661.961 543.616Z"/><path fill="#484A58" d="M670.325 569.605C670.157 569.635 669.989 569.665 669.82 569.694L668.979 569.82C666.366 570.233 665.151 570.547 663.395 568.392L663.742 567.25C666.666 565.505 669.065 566.769 671.019 569.3L670.325 569.605Z"/><path fill="#695DF4" d="M546.683 578.739C548.892 573.536 545.137 573.619 545.545 568.963C546.375 567.153 547.315 565.63 549.267 564.823C550.609 564.276 552.124 564.351 553.405 565.028C557.493 567.197 557.356 571.947 554.671 575.264C555.4 578.345 556.025 581.847 557.605 584.547C561.566 587.481 568.333 590.147 569.746 591.274C567.887 592.512 560.684 596.583 560.116 597.059C557.377 602.415 560.341 601.41 558.657 605.043L552.258 601.58C547.61 600.255 537.066 594.425 533.315 591.306L544.262 585.038C545.635 583.593 546.114 580.798 546.683 578.739Z"/><defs><linearGradient id="gradient_2" gradientUnits="userSpaceOnUse" x1="548.65088" y1="584.64886" x2="554.625" y2="599.58319"><stop offset="0" stop-color="#C8C7C1"/><stop offset="1" stop-color="#BFBDE4"/></linearGradient></defs><path fill="url(#gradient_2)" d="M557.605 584.547C561.566 587.481 568.333 590.147 569.746 591.274C567.887 592.512 560.684 596.583 560.116 597.059C557.377 602.415 560.341 601.41 558.657 605.043L552.258 601.58C547.61 600.255 537.066 594.425 533.315 591.306L544.262 585.038C544.055 588.348 541.269 592.978 546.076 594.989C550.104 596.675 556.859 596.339 559.105 591.966C560.248 589.739 558.518 586.641 557.605 584.547Z"/><path fill="#6253C3" d="M560.116 597.059C557.377 602.415 560.341 601.41 558.657 605.043L552.258 601.58L560.116 597.059Z"/><path fill="#7567D8" d="M644.446 571.217C645.559 570.475 651.039 568.128 652.507 567.473C652.357 572.602 652.199 573.54 657.044 576.089L657.3 576.563L656.917 577.932C659.044 579.304 659.461 579.58 661.143 581.454C655.3 584.958 649.356 588.292 643.32 591.451C637.318 588.277 631.549 584.473 625.378 581.571C629.927 578.711 639.24 574.118 644.446 571.217Z"/><path fill="#CFCECE" d="M644.446 571.217C645.559 570.475 651.039 568.128 652.507 567.473C652.357 572.602 652.199 573.54 657.044 576.089L657.3 576.563L656.917 577.932C652.889 576.348 648.259 573.439 644.446 571.217Z"/><path fill="#CFCECE" d="M589.165 602.147C594.086 598.92 601.798 593.954 607.029 591.438L625.009 601.727C620.254 604.613 611.764 609.842 606.695 611.909L589.165 602.147Z"/><path fill="#080812" d="M681.082 508.855C686.694 505.964 693.053 502.188 698.525 498.932C703.734 501.751 713.787 506.843 718.325 509.979C711.389 512.929 706.369 515.446 699.835 519.335C693.508 515.98 687.255 512.486 681.082 508.855Z"/><defs><linearGradient id="gradient_3" gradientUnits="userSpaceOnUse" x1="625.96558" y1="582.78223" x2="623.34692" y2="599.51031"><stop offset="0" stop-color="black"/><stop offset="1" stop-color="#0B0C1C"/></linearGradient></defs><path fill="url(#gradient_3)" d="M625.378 581.571C631.549 584.473 637.318 588.277 643.32 591.451C637.299 594.835 631.068 598.465 625.009 601.727L607.029 591.438L625.378 581.571Z"/><path fill="#695DF4" d="M662.947 498.414C668.598 494.882 674.459 491.698 680.497 488.879C682.814 490.215 696.862 498.432 698.525 498.932C693.053 502.188 686.694 505.964 681.082 508.855C674.385 505.481 669.144 502.584 662.947 498.414Z"/><path fill="#7567D8" d="M569.746 591.274C575.745 595.293 582.342 597.891 588.2 601.754C581.98 604.89 576.008 608.657 569.881 611.646C566.088 609.535 562.345 607.333 558.657 605.043C560.341 601.41 557.377 602.415 560.116 597.059C560.684 596.583 567.887 592.512 569.746 591.274Z"/><path fill="#F3F2F7" d="M528.127 568.959C530.055 566.899 533.61 566.055 536.091 567.81C535.403 569.701 532.54 570.043 530.661 570.18L528.127 568.959Z"/><path fill="#1A1A26" d="M578.816 513.535C580.303 517.993 586.232 529.147 586.723 532.93C586.117 538.037 576.2 539.077 573.492 537.804C557.121 530.111 581.145 524.78 572.162 508.743C572.826 506.678 578.167 508.534 581.015 508.547C594.973 508.609 593.054 500.355 595.56 498.168C597.703 498.069 596.721 497.805 598.558 499.159C599.892 502.298 598.826 501.028 599.077 504.683C603.472 509.395 615.124 507.039 620.031 508.81L620.425 509.829C619.829 511.784 618.63 512.321 616.923 513.551C618.171 516.686 624.911 530.608 625.005 532.194C625.457 539.835 605 541.149 605.572 531.12C608.142 529.667 612.248 517.553 613.852 513.762C610.216 512.744 604.073 510.786 600.404 511.077C598.311 513.565 599.222 541.078 599.247 545.8C605.737 545.683 605.335 546.828 610.705 549.48C611.625 549.934 612.641 550.243 613.787 550.907L613.848 553.587L612.796 554.282C606.595 554.461 582.561 555.297 578.428 553.118L578.253 551.596C579.841 549.993 584.58 547.743 586.58 546.466C588.651 545.143 591.085 545.536 593.617 545.666C593.656 539.273 594.884 515.399 591.841 511.183C589.366 509.931 581.785 512.685 578.816 513.535Z"/><path fill="#6253C3" d="M613.787 550.907L613.848 553.587C608.596 551.352 583.699 554.229 580.534 551.679C585.631 550.223 606.998 550.873 613.787 550.907Z"/><path fill="#F3F2F7" d="M576.841 514.37C578.594 515.695 583.013 527.141 583.941 529.847C582.9 530.6 579.932 530.344 578.457 530.34L570.297 530.235L576.841 514.37Z"/><path fill="#F3F2F7" d="M615.402 514.409C616.986 516.889 621 526.84 621.975 529.825C620.918 530.62 618.522 530.307 616.885 530.318L608.578 530.289C611.055 525.006 612.55 519.807 615.402 514.409Z"/><path fill="#6253C3" d="M595.026 512.364C596.408 512.638 596.354 512.645 597.594 513.334C598.266 517.369 598.022 540.519 598.193 546.639L595.532 545.902C594.087 543.998 594.962 516.769 595.026 512.364Z"/><path fill="#6253C3" d="M569.064 531.416C573.316 531.489 580.922 530.867 584.449 532.621L584.609 533.565L583.022 535.426C577.889 537.842 570.695 537.988 569.064 531.416Z"/><path fill="#6253C3" d="M608.031 531.756C611.774 531.54 620.002 530.9 622.998 532.67L623.029 533.585L621.183 535.314C616.626 537.849 609.147 538.103 608.031 531.756Z"/><path fill="#7567D8" d="M587.94 508.187C590.019 507.808 592.626 507.572 594.298 506.449L595.574 504.348C597.374 504.07 596.714 504.083 598.593 504.937C600.649 507.397 600.841 508.996 598.422 511.306C594.949 512.364 594.097 511.287 591.365 509.277C589.895 508.985 589.301 508.721 587.94 508.187Z"/><path fill="#6253C3" d="M586.681 546.859C591.21 546.875 600.513 546.647 605.125 547.358C605.87 547.939 606.497 548.428 607.007 548.826C604.152 549.893 589.096 550.302 586.818 548.632L586.681 546.859Z"/><path fill="#4B4A80" d="M587.94 508.187C589.301 508.721 589.895 508.985 591.365 509.277C585.681 509.485 579.276 513.16 574.474 510.555C573.855 510.903 586.996 508.406 587.94 508.187Z"/><path fill="#3D3E49" d="M519.961 522.207C521.165 521.976 521.663 521.596 522.708 520.993C524.271 517.055 528.314 511.898 533.111 512.218C534.34 512.3 534.559 513.069 535.396 514.038C537.774 512.958 538.467 512.203 541.209 512.589C542.582 513.97 542.886 514.237 544.553 515.237C544.534 518.952 544.247 530.807 545.113 533.87C548.001 534.036 552.644 536.914 555.211 538.409C546.67 543.642 534.598 550.856 525.745 555.384L515.239 548.978C509.053 546.007 502.683 542.181 496.871 538.547C502.139 535.51 509.232 532.102 514.77 529.193L514.74 524.907L519.961 522.207Z"/><path fill="#7567D8" d="M514.74 524.907L519.961 522.207C520.747 524.437 521.209 525.963 519.898 528.105L520.176 528.239C519.049 532.857 519.347 542.754 520.32 547.597C523.507 546.679 543.847 536.072 545.113 533.87C548.001 534.036 552.644 536.914 555.211 538.409C546.67 543.642 534.598 550.856 525.745 555.384L515.239 548.978C509.053 546.007 502.683 542.181 496.871 538.547C502.139 535.51 509.232 532.102 514.77 529.193L514.74 524.907Z"/><path fill="#1A1A26" d="M514.74 524.907L519.961 522.207C520.747 524.437 521.209 525.963 519.898 528.105L520.176 528.239C519.049 532.857 519.347 542.754 520.32 547.597L519.762 547.987C517.649 547.366 517.343 547.379 515.678 546.037C513.527 542.308 514.686 534.139 514.77 529.193L514.74 524.907Z"/><path fill="#010101" d="M514.74 524.907L519.961 522.207C520.747 524.437 521.209 525.963 519.898 528.105C518.418 528.623 518.062 528.587 516.547 528.667C514.968 527.383 515.403 527.356 514.74 524.907Z"/><path fill="#1A1A26" d="M519.961 522.207C521.165 521.976 521.663 521.596 522.708 520.993C524.271 517.055 528.314 511.898 533.111 512.218C534.34 512.3 534.559 513.069 535.396 514.038C537.774 512.958 538.467 512.203 541.209 512.589L540.816 513.125C539.469 514.98 539.076 515.47 538.588 517.796C536.666 519.422 536.394 518.513 533.583 519.302C530.171 521.61 523.511 526.114 520.176 528.239L519.898 528.105C521.209 525.963 520.747 524.437 519.961 522.207Z"/><path fill="#CFCECE" d="M531.404 514.571L532.056 515.262C530.815 517.07 528.707 518.061 526.767 519.235C526.195 518.797 526.453 519.103 526.161 518.201C527.427 516.451 529.443 515.636 531.404 514.571Z"/><path fill="#F3F2F7" d="M616.088 540.591C618.679 540.502 620.293 540.226 622.665 541.251L622.887 542.008C621.009 543.231 619.058 543.014 616.734 543.094C614.883 543.345 611.442 543.415 609.809 542.401C611.234 541.182 614.108 540.946 616.088 540.591Z"/><path fill="#F3F2F7" d="M631.365 508.107C634.313 508.221 639.149 509.013 641.407 511.017C638.361 511.386 632.955 512.575 630.861 510.257L631.365 508.107Z"/><path fill="#CFCECE" d="M64.4064 475.237C62.573 471.979 57.2255 466.925 58.7358 463.303L60.0302 462.959C64.6398 464.2 65.247 464.89 68.3335 468.283C70.5269 466.233 75.4025 462.336 78.3986 463.656C79.0341 466.025 70.9038 478.075 68.5503 479.277C76.3668 497.49 75.5123 502.515 79.0938 520.628C85.7717 512.215 91.7113 503.037 98.7857 495.004C99.3038 494.862 99.822 494.721 100.34 494.579C100.123 497.032 100.676 497.051 98.6071 498.369C93.6122 505.094 81.955 518.691 79.9002 525.59C79.0862 528.323 78.5471 539.455 77.7443 543.649L77.644 544.681C76.6345 548.248 76.2988 550.326 75.76 554.02C106.936 552.78 106.511 551.943 99.6143 582.377C97.6839 590.896 96.4111 600.11 94.4815 608.675C93.1908 615.204 91.1937 622.396 90.2511 628.856L185.031 628.799C182.221 615.125 179.119 601.247 177.087 587.55C175.893 579.503 182.567 575.358 188.98 578.905C198.903 584.393 212.761 590.555 222.08 596.606C225.736 600.627 239.503 606.701 244.758 609.988C255.66 616.807 269.281 622.343 279.311 630.438C284.443 634.579 286.354 649.065 287.685 655.71C289.617 665.654 291.656 675.577 293.802 685.476C297.15 699.932 299.366 715.747 303.404 729.999C315.816 730.257 390.976 722.533 394.908 725.875L395.758 728.021C397.272 734.874 398.163 741.993 399.511 748.895C401.846 760.852 404.164 772.846 406.557 784.793C408.874 795.805 411.054 806.845 413.095 817.912C414.04 822.959 418.444 835.433 411.969 836.853C409.716 836.23 408.399 835.181 407.209 833.139C404.614 828.688 394.647 777.797 393.204 769.286C391.958 761.93 391.257 754.458 389.956 747.125C385.987 755.991 367.574 818.313 364.168 820.414L361.395 820.789C352.373 820.274 343.911 819.051 335.326 816.163C334.777 815.609 334.203 815.017 333.812 814.336C330.493 808.547 338.853 761.38 340.907 751.726L310.726 768.74C310.57 776.27 309.634 784.265 308.675 791.77C304.983 820.661 303.003 849.733 299.189 878.601C298.486 883.921 298.237 891.057 296.5 896L289.769 896C287.094 891.266 289.335 879.656 289.976 873.911L293.478 842.997C296.176 818.621 298.009 793.982 301.749 769.721C289.936 766.388 278.831 758.039 268.027 752.173C249.978 742.374 232.058 731.121 213.917 721.614C208.722 749.392 203.148 777.099 197.199 804.726C195.924 810.785 194.712 816.604 193.748 822.734C192.977 827.636 192.55 836.04 186.647 836.994C179.237 834.738 183.909 824.754 184.912 819.756L191.422 786.977C196.246 763.144 200.27 739.255 205.895 715.607C202.436 712.769 201.317 710.497 200.304 706.198C198.504 698.563 197.089 690.757 195.578 683.066C192.149 665.768 188.81 648.453 185.561 631.121C173.22 630.766 159.364 631.038 146.908 631.028L62.8092 631.022C42.8822 630.38 20.0583 630.798 0 631.058L0 628.847L41.8444 628.859C45.8434 628.862 58.4286 628.621 61.942 629.022C61.9053 627.753 59.274 616.92 58.8363 615.004C56.2816 603.495 53.8907 591.951 51.6644 580.374C50.5205 574.452 47.0702 561.718 50.0405 556.446C54.4698 552.787 66.2257 553.92 72.4438 553.996C73.5913 548.97 76.7529 536.511 75.7442 532.127C60.7617 523.201 58.2064 507.289 63.2324 491.617C67.7195 496.771 70.4483 503.033 74.6544 508.401C74.4431 500.953 68.6544 486.411 65.546 479.342C63.843 479.304 61.5244 479.065 59.935 479.017C55.4198 478.878 48.7356 470.125 53.6178 467.64C57.1769 469.24 60.291 473.119 64.4064 475.237ZM72.922 509.897C69.8091 505.285 66.7614 500.63 63.7799 495.933C62.6976 511.445 63.4148 520.115 76.4481 530.33C76.6999 522.006 76.9323 517.326 72.922 509.897Z"/><path fill="#080812" d="M340.907 751.726C345.64 748.635 352.336 745.268 357.355 742.358C366.756 736.907 376.127 731.665 385.818 726.737C387.402 733.006 388.707 740.685 389.956 747.125C385.987 755.991 367.574 818.313 364.168 820.414L361.395 820.789C352.373 820.274 343.911 819.051 335.326 816.163C334.777 815.609 334.203 815.017 333.812 814.336C330.493 808.547 338.853 761.38 340.907 751.726Z"/><path fill="#695DF4" d="M259.871 488.496C262.266 484.041 264.274 481.781 267.504 477.93C271.029 480.537 281.891 482.078 286.84 483.488C292.601 485.118 298.106 487.545 303.196 490.699C304.735 493.607 305.945 497.002 307.139 500.097C313.376 503.672 320.082 506.117 326.456 509.266C339.912 515.912 341.406 531.042 349.431 542.035C349.534 542.175 352.081 541.65 352.375 541.585C353.335 542.1 353.215 541.901 353.909 542.663C355.45 547.266 359.071 557.472 359.422 562.085C359.443 566.334 367.56 583.198 369.956 586.98C379.439 586.234 421.978 572.008 425.873 573.407L427.148 575.562C428.399 577.858 430.199 580.945 431.265 583.244C432.756 586.64 434.055 589.486 435.147 593.054C437.863 594.078 439.228 592.31 442.263 592.506C440.731 593.384 439.152 594.332 437.585 595.129C436.105 596.325 434.924 597.217 433.616 598.621C431.225 598.602 404.389 611.624 401.066 613.732C398.778 614.834 387.024 620.185 385.773 621.04C381.656 622.876 376.473 624.55 372.155 626.067C372.243 627.007 372.48 628.955 372.49 629.816L372.485 631.065C372.474 637.236 372.363 643.71 372.5 649.855C369.148 649.572 363.935 649.706 360.445 649.688L356.08 649.697L353.586 649.199L349.457 649.254C349.644 643.621 349.804 635.756 349.393 630.248L349.45 629.723L349.231 623.56C339.982 614.379 338.106 607.042 331.312 596.324C329.842 607.339 330.208 618.46 329.309 629.382L329.571 630.51C329.555 635.636 329.505 643.543 330.453 648.58C331.372 658.367 332.789 662.195 327.227 670.579C320.929 680.071 295.947 683.359 293.802 685.476C291.656 675.577 289.617 665.654 287.685 655.71C286.354 649.065 284.443 634.579 279.311 630.438C269.281 622.343 255.66 616.807 244.758 609.988C239.503 606.701 225.736 600.627 222.08 596.606C222.31 572.745 224.717 548.277 224.37 524.342C224.196 512.39 230.597 494.128 243.054 490.293C248.006 488.768 254.523 488.111 259.871 488.496Z"/><path fill="#484A58" d="M349.231 623.56C353 625.962 355.059 627.315 359.474 628.435C365.165 628.321 366.901 628.163 372.155 626.067C372.243 627.007 372.48 628.955 372.49 629.816L372.485 631.065C372.474 637.236 372.363 643.71 372.5 649.855C369.148 649.572 363.935 649.706 360.445 649.688L356.08 649.697L353.586 649.199L349.457 649.254C349.644 643.621 349.804 635.756 349.393 630.248L349.45 629.723L349.231 623.56Z"/><path fill="#3D3E49" d="M349.231 623.56C353 625.962 355.059 627.315 359.474 628.435C361.484 633.33 360.747 644.229 360.445 649.688L356.08 649.697L353.586 649.199L349.457 649.254C349.644 643.621 349.804 635.756 349.393 630.248L349.45 629.723L349.231 623.56Z"/><path fill="#1A1A26" d="M353.586 649.199C352.984 644.977 353.267 633.411 354.09 629.359L354.625 629.566C356.561 635.04 352.841 646.968 356.08 649.697L353.586 649.199Z"/><path fill="#E7E6E6" d="M259.871 488.496C262.266 484.041 264.274 481.781 267.504 477.93C271.029 480.537 281.891 482.078 286.84 483.488C292.601 485.118 298.106 487.545 303.196 490.699C304.735 493.607 305.945 497.002 307.139 500.097C286.036 491.41 282.982 490.963 259.871 488.496Z"/><path fill="#7567D8" d="M324.238 616.784C325.702 619.501 325.271 641.062 324.953 645.313L324.452 645.42C323.377 642.845 324.134 621.036 324.238 616.784Z"/><path fill="#CFCECE" d="M882.224 402.998C894.514 409.471 906.736 416.075 918.887 422.807C927.444 427.605 943.416 433.892 940.673 445.889C936.156 465.642 932.617 485.578 928.828 505.481L920.975 546.753C918.831 558.056 917.403 571.142 911.996 581.199C914.869 594.316 918.772 616.679 922.217 628.823C965.348 628.866 1009.69 629.409 1052.73 628.823C1043.42 619.583 1033.31 592.25 1033.19 578.921C1033.04 563.429 1044.06 556.634 1058.44 556.785C1057.11 549.896 1056.52 544.88 1052.77 538.804C1047.49 537.88 1033.57 536.197 1033 529.351C1036.22 525.509 1044.7 528.524 1048.69 529.943C1046.49 523.901 1043.84 518.663 1040.88 513.006C1039.42 510.208 1037.98 507.192 1039.39 504.159C1045.51 502.827 1050.35 512.095 1050.86 516.993C1051.94 527.347 1055.89 535.745 1059.23 545.43C1060.89 550.266 1061.45 555.319 1063.63 560.102C1066.62 545.423 1064.45 527.144 1057.2 513.96C1055.28 510.458 1049.24 502.413 1053.94 498.883C1057.93 499.118 1059.37 501.883 1061.61 504.743C1062.27 498.635 1062.57 486.343 1070.12 485.301C1074.75 486.836 1072.04 493.846 1074.45 498.356C1077.74 504.525 1068.24 515.756 1066.94 521.868C1065.4 528.739 1067.76 535.569 1067.94 542.493C1068.18 547.832 1068.3 552.616 1068.31 557.993C1070.2 548.712 1072.66 539.757 1075.45 530.707C1077.32 524.659 1078.35 507.453 1085.03 505.071C1093.23 508.104 1084.89 523.489 1081.82 527.638C1080.08 529.996 1079.35 532.836 1078.38 535.56L1078.18 536.151C1082.81 533.971 1093.03 528.309 1096.79 534.03C1096.55 543.039 1082.23 542.533 1076.09 542.298C1073.8 548.093 1072.91 551.278 1071.93 557.45C1081.37 556.856 1088.86 555.702 1096.48 562.417C1101.11 566.492 1103.27 571.494 1103.69 577.611C1104.74 592.993 1095.69 620.789 1081.71 628.792L1152 628.837L1152 631.005L922.235 631.064C926.605 648.623 929.706 666.692 934 684.285C935.116 688.858 937.543 698.145 928.688 695.071C925.278 692.353 922.071 674.742 921.101 669.693C918.666 657.02 915.064 643.8 913.182 631.097C895.015 630.566 876.7 631.094 858.52 630.9C854.792 630.86 850.408 631.134 846.763 630.552C846.83 629.827 847.035 629.745 847.481 629.019C853.851 628.556 863.777 628.822 870.331 628.821L912.56 628.824C909.788 617.591 905.404 596.893 904.836 586.171C886.894 596.577 865.186 609.274 846.81 618.677C846.409 614.001 846.695 602.585 846.672 597.376L846.59 592.337C846.625 584.631 847.086 563.449 846.157 556.577C851.977 553.46 860.972 549.197 865.558 544.824C870.283 540.318 869.268 533.482 869.041 527.397C875.329 526.374 881.523 524.838 887.56 522.804C890.516 516.212 882.835 503.889 880.654 496.049L880.437 495.251C887.841 490.696 895.383 485.13 894.576 475.668C892.54 451.798 885.986 426.641 882.224 402.998ZM1051.46 536.081C1047.8 531.228 1041.79 529.926 1036.02 530.604C1041.08 532.649 1046.23 534.477 1051.46 536.081Z"/><path fill="#695DF4" d="M869.041 527.397C875.329 526.374 881.523 524.838 887.56 522.804C896.921 551.202 894.66 578.037 863.404 591.162C858.13 593.377 851.753 594.967 846.672 597.376L846.59 592.337C846.625 584.631 847.086 563.449 846.157 556.577C851.977 553.46 860.972 549.197 865.558 544.824C870.283 540.318 869.268 533.482 869.041 527.397Z"/><path fill="#F3F2F7" d="M1069.55 489.091C1071.51 493.18 1067.85 501.655 1065.4 505.147C1063.71 501.556 1067.57 492.21 1069.55 489.091Z"/><path fill="#F3F2F7" d="M1091.51 534.276L1092.99 534.644L1092.93 535.346C1089.73 538.392 1084.85 539.236 1080.64 539.543C1079.64 539.401 1079.71 539.399 1078.86 538.842C1080.48 537.687 1088.94 535.191 1091.51 534.276Z"/><path fill="#F3F2F7" d="M1084.13 508.318L1084.85 509.114C1085.84 514.319 1084.02 518.524 1081.26 522.798L1081.02 522.681C1080.51 520.888 1083.4 510.712 1084.13 508.318Z"/><path fill="#F3F2F7" d="M1070.8 503.262L1071.22 503.667C1071.47 505.956 1067.55 511.732 1066.26 513.747C1063.63 510.472 1068.56 506.026 1070.8 503.262Z"/><path fill="#F3F2F7" d="M1041.95 507.239C1046.04 509.269 1048.37 514.517 1048.4 518.926C1046.66 516.502 1042.3 509.902 1041.95 507.239Z"/><path fill="#F3F2F7" d="M1056.15 503.857C1059.48 505.977 1061.77 510.444 1062.16 514.311C1059.18 512.83 1056.88 507.012 1056.15 503.857Z"/><path fill="#080812" d="M330.453 648.58C336.791 648.716 343.126 648.941 349.457 649.254L353.586 649.199L356.08 649.697L360.445 649.688C363.935 649.706 369.148 649.572 372.5 649.855C390.048 651.22 398.601 652.494 405.418 670.435C416.479 672.608 431.179 674.2 437.979 684.247C441.127 688.997 443.647 694.134 445.475 699.53C450.745 714.844 479.288 819.402 477.207 830.746C476.972 832.027 476.241 832.85 475.358 833.738C470.246 836.278 466.265 838.145 460.731 839.928C458.103 840.42 453.782 841.355 451.263 841.593L449.788 841.322C445.332 839.274 443.49 834.433 441.447 830.114C429.772 805.424 416.478 780.945 408.4 754.795C406.279 747.929 403.453 730.973 397.371 727.427L395.758 728.021L394.908 725.875C390.976 722.533 315.816 730.257 303.404 729.999C299.366 715.747 297.15 699.932 293.802 685.476C295.947 683.359 320.929 680.071 327.227 670.579C332.789 662.195 331.372 658.367 330.453 648.58Z"/><path fill="#010101" d="M449.788 841.322C452.387 836.577 456.174 839.059 460.731 839.928C458.103 840.42 453.782 841.355 451.263 841.593L449.788 841.322Z"/><path fill="#010101" d="M330.401 671.96C331.654 673.739 331.281 672.764 331.432 675.036C330.134 677.207 330.831 676.445 328.457 677.842L327.693 676.693C327.699 674.866 329.202 673.468 330.401 671.96Z"/><path fill="#080812" d="M771.761 305.812L771.035 305.475C762.141 301.303 764.852 293.452 767.921 286.334C770.555 280.223 777.598 276.504 782 272.943C798.49 259.601 825.62 255.055 840.943 272.569C841.74 273.479 846.538 275.047 847.838 275.77C859.487 280.284 860.177 296.897 862.374 307.284C863.121 310.786 865.727 314.692 866.704 317.989C875.2 346.66 849.459 355.388 827.238 353.539L827.117 354.735C828.621 355.979 829.562 355.972 831.549 356.388C828.414 356.469 825.224 356.588 822.093 356.53C815.28 356.615 808.465 356.577 801.653 356.419L803.106 353.417C794.657 352.267 780.001 350.591 773.518 344.518C769.497 340.751 774.06 332.988 774.281 326.327L774.299 325.594C772.393 320.767 771.527 311.018 771.761 305.812Z"/><path fill="#F9AD89" d="M771.761 305.812C773.082 304.162 773.505 303.595 774.492 301.734C796.754 317.523 808.713 303.174 816.031 306.728C817.149 309.092 817.345 312.207 817.706 314.872L821.381 317.752C832.633 326.645 818.79 339.915 818.439 350.186C816.974 354.069 818.791 355.453 822.093 356.53C815.28 356.615 808.465 356.577 801.653 356.419L803.106 353.417C794.657 352.267 780.001 350.591 773.518 344.518C769.497 340.751 774.06 332.988 774.281 326.327L774.299 325.594C772.393 320.767 771.527 311.018 771.761 305.812Z"/><path fill="#010101" d="M774.299 325.594C778.56 332.877 781.989 340.004 789.607 344.776C792.638 346.675 800.219 349.057 803.091 351.371C803.169 351.433 803.169 352.986 803.106 353.417C794.657 352.267 780.001 350.591 773.518 344.518C769.497 340.751 774.06 332.988 774.281 326.327L774.299 325.594Z"/><path fill="#F4BEA7" d="M818.439 350.186C822.544 352.902 824.581 352.289 827.238 353.539L827.117 354.735C828.621 355.979 829.562 355.972 831.549 356.388C828.414 356.469 825.224 356.588 822.093 356.53C818.791 355.453 816.974 354.069 818.439 350.186Z"/><path fill="#080812" d="M253.989 408.965C256.825 384.521 281.21 391.099 298.425 389.435C301.099 388.813 303.974 387.014 306.394 385.774C315.959 380.874 321.588 388.879 326.735 395.812C329.84 396.215 334.224 396.575 335.974 399.307C341.687 408.228 335.095 416.769 328.62 421.834C338.302 440.352 332.583 466.174 313.274 476.398C310.188 478.032 306.333 479.095 302.954 480.096C302.799 484.262 302.662 486.611 303.196 490.699C298.106 487.545 292.601 485.118 286.84 483.488C281.891 482.078 271.029 480.537 267.504 477.93L268.008 475.898C263.265 473.832 259.557 470.422 257.131 465.782C248.908 450.059 232.523 421.387 253.989 408.965Z"/><path fill="#F9AD89" d="M328.62 421.834C338.302 440.352 332.583 466.174 313.274 476.398C310.188 478.032 306.333 479.095 302.954 480.096C302.799 484.262 302.662 486.611 303.196 490.699C298.106 487.545 292.601 485.118 286.84 483.488C281.891 482.078 271.029 480.537 267.504 477.93L268.008 475.898C270.523 475.915 274.24 475.433 276.557 475.57C296.284 476.738 296.131 473.547 303.707 456.053C301.803 455.249 299.252 454.251 297.602 453.034C293.371 449.912 292.987 443.758 296.628 439.889C298.119 438.277 300.218 437.363 302.414 437.369C308.636 437.417 307.085 443.02 311.874 442.474C314.526 440.713 315.003 434.412 315.949 430.734C317.994 428.554 325.593 423.911 328.62 421.834Z"/><path fill="#F4BEA7" d="M305.838 455.772L307.332 456.874C308.313 458.891 307.954 460.437 307.804 462.721C307.202 462.767 307.094 462.63 306.455 462.412C305.614 460.643 305.849 457.854 305.838 455.772Z"/><path fill="#080812" d="M775.822 705.651C777.051 709.115 779.073 713.596 781.477 716.379C786.586 719.891 794.727 729.247 796.26 735.591C796.7 737.605 794.731 740.692 793.366 742.058C778.342 757.092 764.051 776.763 741.534 780.081C734.21 781.161 733.096 775.659 736.254 770.238C739.655 764.397 744.045 759.691 747.289 753.779C751.787 746.194 754.311 738.142 758.244 730.456C757.062 726.9 755.776 723.381 754.386 719.901C763.723 716.818 770.154 713.747 775.822 705.651Z"/><path fill="#F9AD89" d="M775.822 705.651C777.051 709.115 779.073 713.596 781.477 716.379C776.813 724.589 768.888 737.171 758.244 730.456C757.062 726.9 755.776 723.381 754.386 719.901C763.723 716.818 770.154 713.747 775.822 705.651Z"/><path fill="#080812" d="M335.326 816.163C343.911 819.051 352.373 820.274 361.395 820.789C360.645 823.176 359.951 825.581 359.312 828.001C364.299 832.024 368.268 836.747 373.961 841.016C380.661 846.428 388.101 850.815 395.012 855.893C398.081 858.148 399.681 861.007 398.014 864.5C395.129 866.911 391.387 867.216 387.711 867.38C382.99 867.579 378.262 867.26 373.611 866.429C358.916 863.811 336.997 857.202 323.963 849.938C320.561 848.042 328.679 827.319 331.69 824.687C332.893 822.763 334.429 818.46 335.326 816.163Z"/><path fill="#F9AD89" d="M335.326 816.163C343.911 819.051 352.373 820.274 361.395 820.789C360.645 823.176 359.951 825.581 359.312 828.001C349.394 836.255 341.25 830.545 331.69 824.687C332.893 822.763 334.429 818.46 335.326 816.163Z"/><path fill="#080812" d="M682.122 726.374C690.476 730.928 696.83 733.832 706.626 734.675C706.556 736.844 706.379 739.102 706.697 741.23C708.4 744.099 710.504 765.153 707.396 766.803C698.661 770.286 694.87 769.721 684.51 770.608C674.707 771.446 633.212 775.076 632.384 760.946C632.135 756.69 650.722 750.909 656.243 748.65C662.605 746.047 672.464 740.701 679.79 737.164C680.232 732.544 680.503 730.681 682.122 726.374Z"/><path fill="#F9AD89" d="M682.122 726.374C690.476 730.928 696.83 733.832 706.626 734.675C706.556 736.844 706.379 739.102 706.697 741.23C701.301 744.038 691.136 745.936 685.237 743.694C681.914 742.431 681.079 740.146 679.79 737.164C680.232 732.544 680.503 730.681 682.122 726.374Z"/><path fill="#080812" d="M475.358 833.738C476.275 836.73 477.189 840.608 479.322 842.898C486.219 846.458 491.98 849.209 498.942 852.386C506.553 855.86 525.144 859.408 528.069 866.909C526.545 880.816 469.008 876.367 457.926 875.289C455.703 875.073 451.995 874.269 450.965 872.603C448.307 868.307 450.718 851.384 451.293 847.546C451.379 845.443 451.33 843.679 451.263 841.593C453.782 841.355 458.103 840.42 460.731 839.928C466.265 838.145 470.246 836.278 475.358 833.738Z"/><path fill="#F4BEA7" d="M475.358 833.738C476.275 836.73 477.189 840.608 479.322 842.898C477.738 845.969 476.907 847.43 474.317 849.873C468.081 850.208 463.996 850.23 457.778 849.101C456.085 848.794 452.465 847.702 451.293 847.546C451.379 845.443 451.33 843.679 451.263 841.593C453.782 841.355 458.103 840.42 460.731 839.928C466.265 838.145 470.246 836.278 475.358 833.738Z"/><path fill="#CFCECE" d="M784.533 614.229C797.47 611.163 811.239 607.197 824.07 603.64C824.071 607.789 824.518 646.593 823.62 648.596L823.455 648.489L822.859 648.74C821.737 655.203 820.865 671.78 820.262 678.844C818.535 698.605 816.533 718.341 814.255 738.045C813.591 743.412 813.029 749.148 811.892 754.397C811.253 757.349 807.162 756.526 805.238 755.427C803.114 751.771 807.147 722.352 807.686 716.144C809.961 687.756 812.753 659.412 816.059 631.126C796.873 630.435 777.104 631.181 757.823 630.962C758.268 630.281 758.916 629.653 759.479 629.044C775.934 628.646 793.177 628.906 809.689 628.917C802.687 625.278 791.219 618.486 784.533 614.229Z"/><path fill="#CFCECE" fill-opacity="0.98431373" d="M100.34 494.579C103.048 508.388 95.5631 542.813 77.644 544.681L77.7443 543.649C80.4139 542.474 83.0086 541.367 85.0345 539.2C94.3211 529.265 98.5719 511.435 98.6071 498.369C100.676 497.051 100.123 497.032 100.34 494.579Z"/><path fill="#CFCECE" fill-opacity="0.88627452" d="M372.49 629.816C379.361 629.283 389.147 629.689 396.032 630.425L396.161 630.572C393.931 631.476 376.286 631.023 372.485 631.065L372.49 629.816Z"/><path fill="#CFCECE" fill-opacity="0.84313726" d="M329.309 629.382C333.472 629.078 345.823 628.626 349.45 629.723L349.393 630.248C343.237 630.659 335.833 630.499 329.571 630.51L329.309 629.382Z"/></svg>